<?xml version="1.0" standalone="no"?>
<!DOCTYPE svg PUBLIC "-//W3C//DTD SVG 1.1//EN" "http://www.w3.org/Graphics/SVG/1.1/DTD/svg11.dtd" >
<svg xmlns="http://www.w3.org/2000/svg" xmlns:xlink="http://www.w3.org/1999/xlink" version="1.1">
<metadata>
Created by FontForge 20201107 at Fri Mar 31 12:56:46 2023
 By 
Copyright 2016 The Nunito Sans Project Authors (https://github.com/Fonthausen/NunitoSans)
</metadata>
<defs>
<font id="NunitoSans7pt-Light" horiz-adv-x="0" >
  <font-face 
    font-family="Nunito Sans 7pt Light"
    font-weight="300"
    font-stretch="normal"
    units-per-em="1000"
    panose-1="0 0 0 0 0 0 0 0 0 0"
    ascent="800"
    descent="-200"
    x-height="494"
    cap-height="705"
    bbox="-252 -292 1327 1045"
    underline-thickness="32"
    underline-position="-97"
    unicode-range="U+000D-FB02"
  />
<missing-glyph horiz-adv-x="500" 
d="M50 -180v885h400v-885h-400zM100 -130h300v785h-300v-785z" />
    <glyph glyph-name="fi" unicode="fi" horiz-adv-x="628" 
d="M127 0v436h-104v58h122l-18 -24v39q0 92 53 141.5t151 55.5l45 2l5 -60l-52 -3q-35 -2 -65.5 -14t-48.5 -40t-18 -78v-33l-12 14h348v-494h-70v436h-266v-436h-70zM454 622v82h86v-82h-86z" />
    <glyph glyph-name="fl" unicode="fl" horiz-adv-x="711" 
d="M127 0v436h-104v58h121l-17 -17v31q0 93 53 142.5t152 55.5l49 2l6 -60l-58 -3q-35 -2 -65 -14t-48.5 -39.5t-18.5 -78.5v-29l-12 10h177v-58h-165v-436h-70zM629 -8q-64 0 -101 39.5t-37 109.5v564h70v-555q0 -30 9.5 -52.5t27 -34t41.5 -11.5q15 0 29.5 2t29.5 6l1 -59
q-16 -4 -32.5 -6.5t-37.5 -2.5z" />
    <glyph glyph-name=".notdef" horiz-adv-x="500" 
d="M50 -180v885h400v-885h-400zM100 -130h300v785h-300v-785z" />
    <glyph glyph-name=".null" 
 />
    <glyph glyph-name="nonmarkingreturn" horiz-adv-x="333" 
 />
    <glyph glyph-name="NULL" 
 />
    <glyph glyph-name="NULL" 
 />
    <glyph glyph-name="CR" unicode="&#xd;" horiz-adv-x="278" 
 />
    <glyph glyph-name="space" unicode=" " horiz-adv-x="278" 
 />
    <glyph glyph-name="exclam" unicode="!" horiz-adv-x="249" 
d="M99 187l-18 518h86l-17 -518h-51zM77 0v92h95v-92h-95z" />
    <glyph glyph-name="quotedbl" unicode="&#x22;" horiz-adv-x="383" 
d="M91 434l-18 271h81l-17 -271h-46zM248 434l-18 271h81l-17 -271h-46z" />
    <glyph glyph-name="numbersign" unicode="#" horiz-adv-x="600" 
d="M83 0l37 186h-103v55h113l46 231h-121v55h131l34 178h60l-34 -178h160l34 178h60l-34 -178h102v-55h-112l-46 -231h121v-55h-131l-37 -186h-59l36 186h-160l-36 -186h-61zM188 240h163l47 233h-163z" />
    <glyph glyph-name="dollar" unicode="$" horiz-adv-x="600" 
d="M279 -115v143l17 -16q-71 1 -135 21t-112 63l28 57q32 -27 65 -44t72 -25.5t87 -8.5q89 0 133 34t44 86t-35.5 79.5t-101.5 36.5l-98 14q-87 13 -133 54.5t-46 119.5q0 54 28.5 96.5t79 68.5t118.5 28l-11 -13v141h61v-141l-13 13q55 -2 110 -23.5t94 -62.5l-28 -56
q-40 42 -88.5 61t-110.5 19q-78 0 -125 -37t-47 -94q0 -51 29 -77.5t96 -35.5l98 -15q99 -14 145.5 -59t46.5 -116q0 -53 -28.5 -93t-79 -63t-115.5 -27l16 16v-144h-61z" />
    <glyph glyph-name="percent" unicode="%" horiz-adv-x="960" 
d="M297 -24l-49 29l415 724l49 -29zM237 282q-52 0 -92 26t-62 74t-22 117q0 102 49 158t127 56q52 0 91.5 -25.5t61.5 -73.5t22 -115q0 -68 -22 -116.5t-61.5 -74.5t-91.5 -26zM237 335q49 0 81.5 41t32.5 123q0 80 -32.5 121t-81.5 41q-50 0 -82.5 -40.5t-32.5 -121.5
q0 -82 32.5 -123t82.5 -41zM723 -8q-52 0 -91.5 25t-62 73.5t-22.5 117.5q0 102 49 158.5t127 56.5q52 0 91.5 -26t62 -74t22.5 -115q0 -68 -22 -116.5t-62 -74t-92 -25.5zM723 44q50 0 82.5 41t32.5 123q0 80 -32.5 121t-82.5 41t-82.5 -40.5t-32.5 -121.5q0 -82 32.5 -123
t82.5 -41z" />
    <glyph glyph-name="ampersand" unicode="&#x26;" horiz-adv-x="692" 
d="M285 -8q-69 0 -119 21.5t-76 60.5t-26 91q0 49 18 85t52 67t79 62l32 23l-11 -15q-52 55 -73 94t-21 80q0 45 22.5 79t62.5 53.5t92 19.5q47 0 83.5 -16t58 -46.5t21.5 -72.5q0 -36 -17 -67t-52.5 -62.5t-93.5 -69.5l-8 15l201 -221l-12 -1q23 40 39 103.5t18 130.5h65
q-3 -84 -26 -156.5t-56 -122.5l-4 21l137 -148h-82l-90 99h17q-40 -54 -100.5 -80.5t-130.5 -26.5zM288 52q61 0 109.5 21.5t81.5 69.5v-23l-224 241l30 2l-32 -22q-40 -27 -66.5 -52t-39.5 -53.5t-13 -66.5q0 -57 39.5 -87t114.5 -30zM317 657q-46 0 -78 -26.5t-32 -68.5
q0 -23 7 -43t25.5 -44.5t51.5 -60.5l-15 1q49 32 79.5 58t45.5 49.5t15 47.5q0 42 -29 64.5t-70 22.5z" />
    <glyph glyph-name="quotesingle" unicode="'" horiz-adv-x="226" 
d="M91 434l-18 271h81l-17 -271h-46z" />
    <glyph glyph-name="parenleft" unicode="(" horiz-adv-x="324" 
d="M233 -191q-69 110 -102.5 222t-33.5 232q0 119 33.5 231t102.5 223l53 -17q-40 -72 -66.5 -144.5t-39.5 -145.5t-13 -147t13 -147t39.5 -145t66.5 -145z" />
    <glyph glyph-name="parenright" unicode=")" horiz-adv-x="324" 
d="M90 -191l-53 17q41 73 67 145.5t39 145.5t13 146q0 74 -13 146.5t-39 145.5t-67 145l53 17q70 -110 103 -222t33 -232q0 -119 -33 -231t-103 -223z" />
    <glyph glyph-name="asterisk" unicode="*" horiz-adv-x="472" 
d="M161 341l-49 30l87 135l-1 1l-162 -9v58l162 -8v2l-86 134l51 30l72 -149h2l71 149l51 -31l-86 -133l-1 -2l164 8v-58l-163 9v-1l86 -135l-49 -30l-73 148h-2z" />
    <glyph glyph-name="plus" unicode="+" horiz-adv-x="600" 
d="M272 40v220h-216v55h216v213h56v-213h216v-55h-216v-220h-56z" />
    <glyph glyph-name="comma" unicode="," horiz-adv-x="255" 
d="M120 -146l-38 31q17 16 26.5 38t13.5 45.5t5 42.5l12 -11h-60v94h97v-72q0 -28 -5.5 -59.5t-18 -59.5t-32.5 -49z" />
    <glyph glyph-name="hyphen" unicode="-" horiz-adv-x="420" 
d="M74 238v59h272v-59h-272z" />
    <glyph glyph-name="period" unicode="." horiz-adv-x="255" 
d="M79 0v94h97v-94h-97z" />
    <glyph glyph-name="slash" unicode="/" horiz-adv-x="285" 
d="M44 -59l-57 14l253 793l57 -15z" />
    <glyph glyph-name="zero" unicode="0" horiz-adv-x="600" 
d="M300 -8q-80 0 -134.5 41t-83 121.5t-28.5 197.5q0 119 28.5 199t83.5 121t135 41t134.5 -41t82.5 -120.5t28 -196.5q0 -119 -28.5 -200t-83 -122t-134.5 -41zM300 56q89 0 132 72.5t43 225.5q0 152 -42.5 223.5t-131.5 71.5q-90 0 -133 -72t-43 -224q0 -151 43 -224
t132 -73z" />
    <glyph glyph-name="one" unicode="1" horiz-adv-x="600" 
d="M84 0v62h209v589l40 -8l-215 -141l-34 55l225 148h54v-643h191v-62h-470z" />
    <glyph glyph-name="two" unicode="2" horiz-adv-x="600" 
d="M84 0v53l254 267q39 41 60 73.5t29.5 63t8.5 61.5q0 63 -40 97t-108 34q-51 0 -101.5 -19.5t-94.5 -64.5l-30 57q46 45 104.5 68t123.5 23q66 0 114.5 -23.5t75 -66.5t26.5 -102q0 -30 -7 -59.5t-21 -58.5t-36.5 -59.5t-55.5 -64.5l-207 -215v-1h357v-63h-452z" />
    <glyph glyph-name="three" unicode="3" horiz-adv-x="600" 
d="M292 -8q-43 0 -84.5 8.5t-79.5 28t-70 48.5l30 57q47 -43 100 -60.5t105 -17.5q45 0 83 13.5t60.5 43.5t22.5 78q0 66 -44.5 101t-129.5 35h-100v63h87q49 0 88 15.5t61 47t22 79.5q0 60 -41 88.5t-102 28.5q-53 0 -106 -18t-95 -65l-29 57q42 46 103 68t128 22
q64 0 111.5 -21t74 -61t26.5 -96q0 -60 -35 -106t-94 -66v-2q41 -7 73.5 -29t52 -58t19.5 -83q0 -65 -30.5 -109t-83.5 -67t-123 -23z" />
    <glyph glyph-name="four" unicode="4" horiz-adv-x="600" 
d="M393 0v151h-337v55l327 499h77v-493h99v-61h-99v-151h-67zM394 212v402v0l-272 -415l-8 13h280z" />
    <glyph glyph-name="five" unicode="5" horiz-adv-x="600" 
d="M309 -8q-46 0 -87.5 9.5t-77.5 30t-66 49.5l31 57q46 -44 94.5 -63t106.5 -19q79 0 123 41.5t44 117.5q0 75 -41 119.5t-114 44.5q-48 0 -88 -19.5t-74 -68.5h-62v414h418v-63h-352v-284h1q24 37 66 60.5t96 23.5q68 0 117 -28.5t75.5 -78.5t26.5 -116q0 -72 -29.5 -123
t-82 -77.5t-125.5 -26.5z" />
    <glyph glyph-name="six" unicode="6" horiz-adv-x="600" 
d="M323 -8q-84 0 -142 40.5t-88 117.5t-30 186q0 122 33 206t95.5 127.5t150.5 43.5q40 0 75.5 -9.5t67 -29t59.5 -48.5l-28 -56q-40 44 -83 61.5t-92 17.5q-51 0 -91 -20t-67 -59t-40.5 -96.5t-13.5 -132.5v-55h2q9 48 37 82.5t69 53.5t88 19q66 0 115.5 -28.5t77.5 -79
t28 -116.5q0 -65 -28.5 -116.5t-79 -80t-115.5 -28.5zM320 54q47 0 82.5 21t55.5 57.5t20 84.5t-20.5 84t-56 56.5t-82.5 20.5q-48 0 -84.5 -20.5t-57.5 -57t-21 -83.5q0 -48 20.5 -84.5t57.5 -57.5t86 -21z" />
    <glyph glyph-name="seven" unicode="7" horiz-adv-x="600" 
d="M124 0l347 682l5 -41h-407v64h461v-54l-330 -651h-76z" />
    <glyph glyph-name="eight" unicode="8" horiz-adv-x="600" 
d="M300 -8q-116 0 -183 51t-67 141q0 46 18 82t51.5 60t78.5 33v2q-38 10 -68 34t-47 58t-17 73q0 87 64 137t170 50t170 -50t64 -137q0 -38 -17.5 -72t-47 -58.5t-68.5 -34.5v-2q43 -8 76.5 -32t53 -60.5t19.5 -81.5q0 -91 -66.5 -142t-183.5 -51zM300 53q88 0 135 34.5
t47 101.5t-47 102.5t-135 35.5t-135 -35.5t-47 -102.5t47 -101.5t135 -34.5zM300 389q77 0 121.5 35t44.5 98q0 62 -44.5 96.5t-121.5 34.5t-121.5 -34.5t-44.5 -96.5t44.5 -97.5t121.5 -35.5z" />
    <glyph glyph-name="nine" unicode="9" horiz-adv-x="600" 
d="M261 -8q-41 0 -77 8.5t-68 27t-60 47.5l30 55q42 -45 84.5 -59.5t90.5 -14.5q52 0 91 20t65.5 59t40 96.5t13.5 132.5v55h-2q-9 -47 -37 -81.5t-68.5 -53.5t-88.5 -19q-65 0 -115 28.5t-78 78.5t-28 115q0 66 29 117t79.5 80t114.5 29q87 0 144.5 -39.5t86.5 -116.5
t29 -188q0 -121 -33 -205t-94.5 -128t-148.5 -44zM281 327q48 0 85 21t57.5 57.5t20.5 82.5q0 50 -20 86.5t-57 56.5t-87 20q-47 0 -82.5 -21t-55 -57t-19.5 -85q0 -48 20 -84t55.5 -56.5t82.5 -20.5z" />
    <glyph glyph-name="colon" unicode=":" horiz-adv-x="255" 
d="M79 402v92h97v-92h-97zM79 0v91h97v-91h-97z" />
    <glyph glyph-name="semicolon" unicode=";" horiz-adv-x="255" 
d="M120 -146l-38 31q17 16 26.5 38t13.5 45.5t5 42.5l13 -11h-61v92h97v-70q0 -28 -5.5 -59.5t-18 -59.5t-32.5 -49zM79 402v92h97v-92h-97z" />
    <glyph glyph-name="less" unicode="&#x3c;" horiz-adv-x="600" 
d="M544 33l-488 226v50l488 226v-60l-413 -192v2l413 -191v-61z" />
    <glyph glyph-name="equal" unicode="=" horiz-adv-x="600" 
d="M56 358v55h488v-55h-488zM56 157v55h488v-55h-488z" />
    <glyph glyph-name="greater" unicode="&#x3e;" horiz-adv-x="600" 
d="M56 33v60l413 192v-2l-413 192v60l488 -226v-50z" />
    <glyph glyph-name="question" unicode="?" horiz-adv-x="476" 
d="M183 187v18q0 42 9.5 75.5t30.5 62.5t56 58q26 21 48 43t36 47.5t14 56.5q0 39 -20.5 60.5t-53 31t-70.5 9.5q-53 0 -102 -20t-94 -62l-28 57q29 28 66.5 48t79 30.5t80.5 10.5q64 0 111.5 -18.5t73.5 -54.5t26 -89q0 -41 -18 -75.5t-46 -62.5t-56 -51q-32 -27 -50.5 -50
t-26.5 -48.5t-11 -60.5l-1 -16h-54zM163 0v92h95v-92h-95z" />
    <glyph glyph-name="at" unicode="@" horiz-adv-x="984" 
d="M504 -152q-96 0 -173.5 30t-133 86.5t-85.5 134.5t-30 175t31.5 177.5t89 139.5t137 90.5t175.5 31.5q116 0 203 -46.5t135.5 -129.5t48.5 -193q0 -84 -24.5 -148t-67.5 -98.5t-101 -34.5q-50 0 -78.5 25.5t-32.5 69.5l-2 -2q-26 -44 -66 -68.5t-85 -24.5
q-74 0 -116.5 47.5t-42.5 132.5q0 73 28 131t77.5 91t112.5 33q46 0 79 -23t47 -62h2l11 73h58l-42 -246q-4 -25 -5 -37t-1 -22q0 -35 15.5 -52.5t46.5 -17.5q40 0 69.5 29.5t46 82t16.5 121.5q0 95 -41.5 165.5t-116 110t-174.5 39.5q-112 0 -196.5 -48t-131.5 -135
t-47 -202t44 -198.5t125.5 -128.5t194.5 -45q82 0 148.5 25.5t108.5 72.5l32 -42q-32 -35 -77 -59.5t-99 -37.5t-113 -13zM453 116q47 0 83 27.5t57 75.5t21 110q0 58 -26 86.5t-80 28.5q-46 0 -82.5 -25.5t-57 -71t-20.5 -104.5q0 -62 27 -94.5t78 -32.5z" />
    <glyph glyph-name="A" unicode="A" horiz-adv-x="764" 
d="M43 0l307 705h65l306 -705h-74l-87 202l39 -21h-433l38 21l-87 -202h-74zM380 619l-166 -390l-25 15h387l-27 -15l-165 390h-4z" />
    <glyph glyph-name="B" unicode="B" horiz-adv-x="727" 
d="M113 0v705h285q109 0 168.5 -47t59.5 -138q0 -66 -34 -106t-84 -51v-2q35 -5 65.5 -25.5t50 -56.5t19.5 -86q0 -63 -27.5 -106t-80 -65t-126.5 -22h-296zM183 63h223q35 0 61.5 5t46 15.5t32.5 26.5t19.5 36t6.5 45q0 28 -7 49.5t-21 37.5t-33.5 26.5t-46 15.5t-58.5 5
h-223v-262zM183 388h208q82 0 123 33t41 99q0 61 -39.5 91.5t-124.5 30.5h-208v-254z" />
    <glyph glyph-name="C" unicode="C" horiz-adv-x="711" 
d="M404 -9q-99 0 -171.5 43.5t-111.5 125t-39 193.5t39 193t111 124t172 43q74 0 134.5 -23t104.5 -68l-30 -55q-47 43 -96.5 62t-112.5 19q-117 0 -183 -75t-66 -220q0 -144 66 -220t183 -76q63 0 112.5 19t96.5 62l30 -55q-44 -45 -104.5 -68.5t-134.5 -23.5z" />
    <glyph glyph-name="D" unicode="D" horiz-adv-x="781" 
d="M113 0v705h237q112 0 190 -41t118.5 -119.5t40.5 -191.5t-41 -192t-119 -120t-189 -41h-237zM183 64h164q136 0 207.5 70.5t71.5 218.5t-71 218t-208 70h-164v-577z" />
    <glyph glyph-name="E" unicode="E" horiz-adv-x="646" 
d="M113 0v705h451v-64h-381v-252h361v-64h-361v-261h381v-64h-451z" />
    <glyph glyph-name="F" unicode="F" horiz-adv-x="614" 
d="M113 0v705h450v-64h-380v-254h360v-64h-360v-323h-70z" />
    <glyph glyph-name="G" unicode="G" horiz-adv-x="779" 
d="M427 -8q-109 0 -186 42t-118 123t-41 196q0 113 39.5 193.5t114 123.5t177.5 43q53 0 100.5 -10.5t87.5 -30.5t68 -50l-30 -54q-46 42 -102 61t-125 19q-122 0 -189.5 -75t-67.5 -220q0 -150 70.5 -223.5t202.5 -73.5q60 0 112.5 9.5t93.5 27.5l-23 -49v258h-186v63h251
v-325q-27 -13 -68.5 -24t-88.5 -17.5t-92 -6.5z" />
    <glyph glyph-name="H" unicode="H" horiz-adv-x="803" 
d="M113 0v705h70v-315h437v315h70v-705h-70v326h-437v-326h-70z" />
    <glyph glyph-name="I" unicode="I" horiz-adv-x="296" 
d="M113 0v705h70v-705h-70z" />
    <glyph glyph-name="J" unicode="J" horiz-adv-x="394" 
d="M12 -7l-5 64l79 4q36 2 64 18.5t44.5 46t16.5 67.5v512h70v-516q0 -53 -24.5 -95.5t-67 -67.5t-96.5 -29z" />
    <glyph glyph-name="K" unicode="K" horiz-adv-x="659" 
d="M113 0v705h70v-323h4l348 323h92l-396 -367l5 42l416 -380h-98l-367 335h-4v-335h-70z" />
    <glyph glyph-name="L" unicode="L" horiz-adv-x="582" 
d="M113 0v705h70v-641h366v-64h-436z" />
    <glyph glyph-name="M" unicode="M" horiz-adv-x="914" 
d="M115 0v705h86l258 -517h-1l256 517h85v-705h-67v608v0l-247 -497h-54l-249 497v0v-608h-67z" />
    <glyph glyph-name="N" unicode="N" horiz-adv-x="812" 
d="M113 0v705h66l452 -599v0v599h68v-705h-67l-452 597v0v-597h-67z" />
    <glyph glyph-name="O" unicode="O" horiz-adv-x="807" 
d="M403 -8q-74 0 -133.5 24.5t-101.5 71.5t-64 113.5t-22 150.5q0 85 22 152t63.5 113.5t101 71t134.5 24.5q76 0 135.5 -24.5t101.5 -71t63.5 -113t21.5 -151.5q0 -84 -22 -151t-63.5 -114t-101 -71.5t-135.5 -24.5zM403 57q79 0 134.5 33.5t85 99.5t29.5 163t-29 162.5
t-85 99t-135 33.5q-78 0 -133.5 -33.5t-85 -99t-29.5 -162.5q0 -96 29.5 -162t85 -100t133.5 -34z" />
    <glyph glyph-name="P" unicode="P" horiz-adv-x="692" 
d="M113 0v705h280q75 0 127.5 -25t80.5 -71.5t28 -112.5q0 -65 -28 -112.5t-81 -72.5t-127 -25h-210v-286h-70zM183 348h201q86 0 130 37t44 111q0 75 -44 110.5t-130 35.5h-201v-294z" />
    <glyph glyph-name="Q" unicode="Q" horiz-adv-x="807" 
d="M606 -195l-77 125q-18 30 -47.5 46t-70.5 16l54 24q34 0 58 -6t42.5 -22t36.5 -46l65 -103zM403 -8q-74 0 -133.5 24.5t-101.5 71.5t-64 113.5t-22 150.5q0 85 22 152t63.5 113.5t101 71t134.5 24.5q76 0 135.5 -24.5t101.5 -71t63.5 -113t21.5 -151.5q0 -84 -22 -151
t-63.5 -114t-101 -71.5t-135.5 -24.5zM403 57q79 0 134.5 33.5t85 99.5t29.5 163t-29 162.5t-85 99t-135 33.5q-78 0 -133.5 -33.5t-85 -99t-29.5 -162.5q0 -96 29.5 -162t85 -100t133.5 -34z" />
    <glyph glyph-name="R" unicode="R" horiz-adv-x="722" 
d="M113 0v705h281q112 0 173 -50.5t61 -148.5q0 -55 -21 -95.5t-59 -65t-90 -32.5l2 -2l6 -2q22 -6 39 -21.5t35 -49.5l126 -238h-77l-118 223q-16 31 -34.5 47.5t-44 22.5t-61.5 6h-148v-299h-70zM183 361h211q85 0 123.5 35.5t38.5 108.5t-40.5 105t-127.5 32h-205v-281z
" />
    <glyph glyph-name="S" unicode="S" horiz-adv-x="657" 
d="M344 -8q-59 0 -111 8.5t-95 27.5t-74 47l28 59q36 -30 74.5 -47t83 -23.5t94.5 -6.5q85 0 133 36t48 100q0 33 -15.5 55t-48.5 36t-85 24l-117 24q-96 19 -137.5 65.5t-41.5 117.5q0 60 34.5 104.5t95 69t137.5 24.5q50 0 93 -9.5t78.5 -29t64.5 -48.5l-29 -59
q-44 45 -94.5 63t-113.5 18q-55 0 -99.5 -15.5t-70.5 -45t-26 -74.5q0 -47 29.5 -75t100.5 -42l116 -22q103 -21 151 -65t48 -114q0 -58 -31 -104.5t-87.5 -72.5t-132.5 -26z" />
    <glyph glyph-name="T" unicode="T" horiz-adv-x="640" 
d="M285 0v641h-259v64h588v-64h-259v-641h-70z" />
    <glyph glyph-name="U" unicode="U" horiz-adv-x="756" 
d="M378 -8q-135 0 -205 70.5t-70 207.5v435h70v-437q0 -109 52.5 -159t152.5 -50t152 50t52 159v437h71v-435q0 -137 -70.5 -207.5t-204.5 -70.5z" />
    <glyph glyph-name="V" unicode="V" horiz-adv-x="683" 
d="M310 0l-303 705h76l259 -617h-1l259 617h75l-302 -705h-63z" />
    <glyph glyph-name="W" unicode="W" horiz-adv-x="1101" 
d="M272 0l-220 705h73l186 -614h-2l211 614h61l211 -615h-1l187 615h71l-220 -705h-71l-207 604v0l-210 -604h-69z" />
    <glyph glyph-name="X" unicode="X" horiz-adv-x="671" 
d="M32 0l258 374l1 -23l-244 354h81l207 -301h1l208 301h81l-246 -354v24l260 -375h-82l-223 323v0l-221 -323h-81z" />
    <glyph glyph-name="Y" unicode="Y" horiz-adv-x="616" 
d="M273 0v367l13 -59l-278 397h81l219 -314h1l219 314h79l-277 -397l13 59v-367h-70z" />
    <glyph glyph-name="Z" unicode="Z" horiz-adv-x="603" 
d="M51 0v46l432 632l10 -37h-442v64h499v-45l-431 -633l-10 37h452v-64h-510z" />
    <glyph glyph-name="bracketleft" unicode="[" horiz-adv-x="322" 
d="M111 -180v885h198v-58h-129v-769h129v-58h-198z" />
    <glyph glyph-name="backslash" unicode="\" horiz-adv-x="285" 
d="M240 -59l-253 792l57 15l253 -793z" />
    <glyph glyph-name="bracketright" unicode="]" horiz-adv-x="322" 
d="M13 -180v58h129v769h-129v58h199v-885h-199z" />
    <glyph glyph-name="asciicircum" unicode="^" horiz-adv-x="600" 
d="M50 140l225 488h50l225 -488h-59l-192 416h1l-191 -416h-59z" />
    <glyph glyph-name="underscore" unicode="_" horiz-adv-x="500" 
d="M8 -53v53h484v-53h-484z" />
    <glyph glyph-name="grave" unicode="`" horiz-adv-x="500" 
d="M223 560l-129 193h82l103 -193h-56z" />
    <glyph glyph-name="a" unicode="a" horiz-adv-x="611" 
d="M261 -8q-52 0 -94 19t-66 52t-24 74q0 58 33.5 90.5t100.5 45.5t168 13h80v-54h-76q-62 0 -106.5 -4t-73 -14t-42 -27.5t-13.5 -45.5q0 -44 35.5 -67t87.5 -23q47 0 86.5 21.5t64 56.5t24.5 77v116q0 61 -36.5 90.5t-106.5 29.5q-46 0 -89.5 -12t-90.5 -41l-25 55
q30 19 65 32t72 20t73 7q62 0 108.5 -19.5t72.5 -60.5t26 -105v-318h-63v110h-3q-14 -30 -40 -57.5t-63 -44t-85 -16.5z" />
    <glyph glyph-name="b" unicode="b" horiz-adv-x="644" 
d="M348 -8q-64 0 -112 31t-71 87h-3v-110h-64v705h70v-317h2q22 54 68.5 84.5t110.5 30.5q69 0 120.5 -32.5t80 -89.5t28.5 -134q0 -76 -28.5 -133.5t-80.5 -89.5t-121 -32zM337 52q79 0 124.5 53t45.5 142t-45.5 142t-125.5 53q-78 0 -123.5 -53t-45.5 -142t45.5 -142
t124.5 -53z" />
    <glyph glyph-name="c" unicode="c" horiz-adv-x="515" 
d="M315 -8q-76 0 -131.5 31t-86 88.5t-30.5 135.5q0 79 30.5 136.5t86.5 88.5t131 31q51 0 96.5 -18t75.5 -49l-28 -53q-30 28 -67 42.5t-72 14.5q-84 0 -133 -51t-49 -143q0 -91 49 -141.5t132 -50.5q36 0 72.5 14.5t64.5 39.5l28 -52q-29 -30 -73.5 -47t-95.5 -17z" />
    <glyph glyph-name="d" unicode="d" horiz-adv-x="644" 
d="M296 -8q-69 0 -120.5 32t-80 89.5t-28.5 133.5q0 77 28.5 134t80 89.5t119.5 32.5q65 0 111.5 -30.5t67.5 -84.5h3v317h70v-705h-65v110h-3q-23 -56 -70.5 -87t-112.5 -31zM307 52q80 0 125 53t45 142t-45 142t-124 53t-125 -53t-46 -142t45.5 -142t124.5 -53z" />
    <glyph glyph-name="e" unicode="e" horiz-adv-x="598" 
d="M328 -8q-79 0 -138 30t-91 87.5t-32 138.5q0 74 28.5 131.5t83 90.5t129.5 33t124.5 -32t74.5 -88.5t25 -132.5v-22h-416v55h375l-22 -22q0 87 -42 135.5t-119 48.5q-50 0 -89 -23t-61 -64.5t-22 -100.5v-9q0 -63 23.5 -106.5t67 -66.5t101.5 -23q41 0 85 11.5t82 43.5
l28 -52q-38 -33 -91 -48t-104 -15z" />
    <glyph glyph-name="f" unicode="f" horiz-adv-x="393" 
d="M127 0v436h-104v58h121l-17 -17v31q0 93 53 142.5t152 55.5l49 2l6 -60l-58 -3q-35 -2 -65 -14t-48.5 -39.5t-18.5 -78.5v-29l-12 10h177v-58h-165v-436h-70z" />
    <glyph glyph-name="g" unicode="g" horiz-adv-x="643" 
d="M307 -188q-58 0 -116.5 18t-98.5 49l25 56q28 -19 59.5 -32.5t65 -21t64.5 -7.5q81 0 127.5 43t46.5 116v94h-5q-18 -51 -65.5 -83t-109.5 -32q-71 0 -123.5 30.5t-81 86t-28.5 129.5q0 73 28.5 128.5t81 86t123.5 30.5q62 0 110 -32.5t67 -87.5h3v111h66v-454
q0 -69 -29.5 -120.5t-83 -79.5t-126.5 -28zM308 73q78 0 124 51t46 134t-46 133.5t-124 50.5q-79 0 -125 -50.5t-46 -133.5t46 -134t125 -51z" />
    <glyph glyph-name="h" unicode="h" horiz-adv-x="628" 
d="M98 0v705h68v-318h2q23 53 70.5 84.5t108.5 31.5q62 0 103 -21.5t61.5 -64.5t20.5 -108v-309h-70v305q0 40 -12 70.5t-39.5 47.5t-73.5 17q-49 0 -87 -22t-60 -58.5t-22 -78.5v-281h-70z" />
    <glyph glyph-name="i" unicode="i" horiz-adv-x="265" 
d="M88 621v84h89v-84h-89zM98 0v494h70v-494h-70z" />
    <glyph glyph-name="j" unicode="j" horiz-adv-x="243" 
d="M78 621v84h89v-84h-89zM-56 -193l-5 61l49 6q48 5 74 30.5t26 80.5v509h70v-507q0 -41 -10.5 -71.5t-30.5 -52t-50 -34t-71 -17.5z" />
    <glyph glyph-name="k" unicode="k" horiz-adv-x="532" 
d="M98 0v705h70v-434h4l236 223h90l-276 -257l2 35l303 -272h-93l-262 233h-4v-233h-70z" />
    <glyph glyph-name="l" unicode="l" horiz-adv-x="319" 
d="M236 -8q-64 0 -101 39.5t-37 109.5v564h70v-555q0 -30 9.5 -52.5t27 -34t41.5 -11.5q15 0 29.5 2t29.5 6l1 -59q-16 -4 -32.5 -6.5t-37.5 -2.5z" />
    <glyph glyph-name="m" unicode="m" horiz-adv-x="944" 
d="M100 0v494h64v-109h3q12 30 35.5 57t56.5 44t74 17q67 0 110.5 -34t51.5 -85h2q20 49 63 84t110 35q56 0 95.5 -21.5t60 -64t20.5 -108.5v-309h-69v302q0 68 -25 103t-91 35q-49 0 -83.5 -22t-52.5 -58.5t-18 -81.5v-278h-69v302q0 66 -29.5 102t-85.5 36
q-48 0 -82.5 -24t-53 -60.5t-18.5 -73.5v-282h-69z" />
    <glyph glyph-name="n" unicode="n" horiz-adv-x="628" 
d="M98 0v494h65v-109h2q25 54 73 86t109 32q62 0 103 -21.5t61.5 -64.5t20.5 -108v-309h-70v305q0 40 -12 70.5t-39 47.5t-74 17q-49 0 -87.5 -22t-60 -58.5t-21.5 -78.5v-281h-70z" />
    <glyph glyph-name="o" unicode="o" horiz-adv-x="613" 
d="M307 -8q-74 0 -128 31.5t-83 89.5t-29 135t29.5 134t83 89t127.5 32t127.5 -32t83 -89t29.5 -134t-29.5 -135t-83 -89.5t-127.5 -31.5zM306 54q79 0 125 53t46 141t-45.5 140t-124.5 52t-124.5 -52t-45.5 -140t45.5 -141t123.5 -53z" />
    <glyph glyph-name="p" unicode="p" horiz-adv-x="644" 
d="M98 -180v674h64v-109h3q23 56 71 87t112 31q69 0 121 -32t80.5 -89.5t28.5 -134.5q0 -75 -28.5 -133t-80 -90t-120.5 -32q-64 0 -110.5 30.5t-68.5 83.5h-2v-286h-70zM337 52q79 0 124.5 53.5t45.5 142.5t-45.5 141.5t-124.5 52.5t-124.5 -52.5t-45.5 -141.5t45.5 -142.5
t124.5 -53.5z" />
    <glyph glyph-name="q" unicode="q" horiz-adv-x="644" 
d="M477 -180v286h-3q-21 -54 -67.5 -84t-111.5 -30q-68 0 -119.5 32t-80 89.5t-28.5 133.5q0 77 28.5 134.5t80 89.5t120.5 32q65 0 112.5 -31t70.5 -88h3v110h65v-674h-70zM308 52q79 0 124 53.5t45 142.5q0 88 -45 141t-125 53q-79 0 -124.5 -53t-45.5 -141
q0 -89 46 -142.5t125 -53.5z" />
    <glyph glyph-name="r" unicode="r" horiz-adv-x="420" 
d="M98 0v494h64v-109h3q19 52 66 82t112 34l44 2l7 -65l-69 -6q-73 -6 -115 -48t-42 -102v-282h-70z" />
    <glyph glyph-name="s" unicode="s" horiz-adv-x="551" 
d="M277 -8q-40 0 -79.5 7.5t-73 21.5t-56.5 35l26 52q26 -21 57 -33.5t64 -17.5t63 -5q65 0 103 21t38 57q0 33 -22 50.5t-72 26.5l-103 19q-69 12 -104.5 45t-35.5 89q0 43 24.5 75t69 50t105.5 18q35 0 72.5 -7.5t70 -21.5t51.5 -35l-27 -51q-21 20 -49.5 32t-59 17.5
t-59.5 5.5q-60 0 -95.5 -22t-35.5 -59q0 -32 20.5 -49.5t66.5 -26.5l101 -19q75 -14 111.5 -46t36.5 -88q0 -43 -25.5 -75t-72.5 -49t-110 -17z" />
    <glyph glyph-name="t" unicode="t" horiz-adv-x="422" 
d="M296 -8q-83 0 -127 45t-44 127v270h-102v60h104v149h68v-149h186v-60h-186v-261q0 -61 27 -90t82 -29q23 0 44 4.5t40 13.5l12 -57q-19 -12 -47.5 -17.5t-56.5 -5.5z" />
    <glyph glyph-name="u" unicode="u" horiz-adv-x="624" 
d="M283 -8q-61 0 -103 21.5t-63 64.5t-21 106v310h70v-306q0 -38 12 -69t40 -48t74 -17q47 0 84.5 22.5t58.5 58.5t21 78v281h70v-494h-65v110h-2q-27 -55 -70 -86.5t-106 -31.5z" />
    <glyph glyph-name="v" unicode="v" horiz-adv-x="550" 
d="M239 0l-207 494h76l167 -419h1l169 419h73l-207 -494h-72z" />
    <glyph glyph-name="w" unicode="w" horiz-adv-x="864" 
d="M205 0l-167 494h71l137 -417h-1l154 417h67l152 -417h-1l139 417h71l-170 -494h-71l-155 421h2l-156 -421h-72z" />
    <glyph glyph-name="x" unicode="x" horiz-adv-x="543" 
d="M35 0l203 273v-38l-193 259h81l145 -197v0l145 197h81l-192 -256l1 31l202 -269h-82l-155 209v0l-155 -209h-81z" />
    <glyph glyph-name="y" unicode="y" horiz-adv-x="550" 
d="M163 -180l88 205v-53l-219 522h76l168 -420v0l169 420h74l-282 -674h-74z" />
    <glyph glyph-name="z" unicode="z" horiz-adv-x="528" 
d="M62 0v43l329 415l7 -25h-325v61h390v-45l-330 -417l-7 29h349v-61h-413z" />
    <glyph glyph-name="braceleft" unicode="{" horiz-adv-x="366" 
d="M247 -180q-44 0 -71.5 24t-27.5 69v243q0 42 -15.5 58.5t-57.5 18.5l-27 1v58l27 1q42 2 57.5 18.5t15.5 58.5v242q0 45 27.5 69t71.5 24h105v-58h-91q-22 0 -33 -9.5t-11 -32.5v-253q0 -26 -10.5 -44.5t-30 -29.5t-47.5 -14v-3q28 -2 47.5 -13t30 -29.5t10.5 -44.5v-254
q0 -23 11 -32.5t33 -9.5h91v-58h-105z" />
    <glyph glyph-name="bar" unicode="|" horiz-adv-x="300" 
d="M118 -180v885h64v-885h-64z" />
    <glyph glyph-name="braceright" unicode="}" horiz-adv-x="366" 
d="M14 -180v58h90q23 0 34 9.5t11 32.5v253q0 26 10.5 45t30.5 29.5t47 13.5v3q-27 3 -47 13.5t-30.5 29t-10.5 44.5v254q0 23 -11 32.5t-34 9.5h-90v58h105q45 0 72 -24t27 -69v-243q0 -41 15.5 -58t56.5 -19l28 -1v-57l-28 -2q-41 -1 -56.5 -18t-15.5 -59v-242
q0 -45 -27 -69t-72 -24h-105z" />
    <glyph glyph-name="asciitilde" unicode="~" horiz-adv-x="600" 
d="M416 217q-22 0 -43.5 6t-43.5 16.5t-45 22.5q-19 11 -36 19.5t-31.5 13t-28.5 4.5q-34 0 -54 -18.5t-33 -48.5l-45 24q19 46 51.5 70.5t76.5 24.5q23 0 44.5 -6t43 -16t43.5 -23q29 -16 53 -26t44 -10q35 0 55 19.5t32 46.5l45 -23q-20 -46 -52 -71t-76 -25z" />
    <glyph glyph-name="uni00A0" unicode="&#xa0;" horiz-adv-x="278" 
 />
    <glyph glyph-name="exclamdown" unicode="&#xa1;" horiz-adv-x="249" 
d="M81 -180l18 487h51l17 -487h-86zM77 403v91h95v-91h-95z" />
    <glyph glyph-name="cent" unicode="&#xa2;" horiz-adv-x="600" 
d="M290 -115v142l12 -16q-67 5 -118 35.5t-79.5 83t-28.5 122.5q0 71 28.5 123t79.5 83t118 36l-12 -17v139h61v-137l-13 15q46 -1 90 -17.5t72 -46.5l-25 -52q-31 27 -68.5 41.5t-74.5 14.5q-84 0 -135.5 -48t-51.5 -134q0 -85 51.5 -133t134.5 -48q37 0 74.5 13.5
t66.5 38.5l25 -51q-26 -27 -69.5 -43.5t-86.5 -18.5l10 15v-140h-61z" />
    <glyph glyph-name="sterling" unicode="&#xa3;" horiz-adv-x="600" 
d="M41 0v62h120v262h-120v55h120v135q0 63 23.5 107.5t70 68t114.5 23.5q57 0 106.5 -21t86.5 -58l-28 -55q-36 38 -75.5 55t-91.5 17q-45 0 -75.5 -15t-46.5 -44.5t-16 -75.5v-137h239v-55h-239v-262h321v-62h-509z" />
    <glyph glyph-name="currency" unicode="&#xa4;" horiz-adv-x="600" 
d="M64 -40l-43 43l89 92q-23 31 -36.5 70t-13.5 81t13 81t37 70l-89 91l43 44l89 -92q30 25 68 39.5t80 14.5t79.5 -14t67.5 -38l87 90l44 -44l-89 -89q25 -32 38.5 -71t13.5 -82t-13.5 -82.5t-38.5 -70.5l88 -90l-43 -43l-87 89q-31 -24 -68 -37.5t-79 -13.5
q-40 0 -78.5 13.5t-69.5 38.5zM301 59q49 0 88.5 25t62.5 67t23 95t-23 95t-63 67.5t-89 24.5q-49 0 -88.5 -25t-63 -67.5t-23.5 -94.5q0 -53 24 -95t63.5 -67t88.5 -25z" />
    <glyph glyph-name="yen" unicode="&#xa5;" horiz-adv-x="600" 
d="M265 0v176h-194v52h194v101h-194v52h173l-8 -9l-229 333h78l216 -322v0l215 322h76l-226 -333l-8 9h172v-52h-196v-101h196v-52h-196v-176h-69z" />
    <glyph glyph-name="brokenbar" unicode="&#xa6;" horiz-adv-x="300" 
d="M118 371v334h64v-334h-64zM118 -180v334h64v-334h-64z" />
    <glyph glyph-name="section" unicode="&#xa7;" horiz-adv-x="534" 
d="M244 -188q-62 0 -112.5 16.5t-82.5 46.5l25 51q21 -19 49 -32t60 -20.5t64 -7.5q61 0 100 31.5t39 87.5q0 40 -20 68.5t-74 54.5l-105 50q-52 25 -83 50t-45 55.5t-14 68.5q0 40 20.5 78t50.5 61l-6 -20q-10 12 -17.5 32t-7.5 52q0 56 27 95.5t74 61t105 21.5
q59 0 108 -16.5t79 -45.5l-25 -50q-31 28 -75.5 42.5t-88.5 14.5q-58 0 -96.5 -31t-38.5 -88q0 -40 20.5 -68.5t73.5 -54.5l105 -50q55 -26 86 -52t43.5 -55t12.5 -66q0 -41 -20 -78t-50 -60l6 19q9 -11 16.5 -31.5t7.5 -53.5q0 -56 -27.5 -95.5t-75 -60.5t-108.5 -21z
M109 339q0 -28 11 -49.5t35.5 -40t62.5 -36.5l90 -42q40 -19 65.5 -39t38.5 -40h-21q20 18 30.5 42.5t10.5 50.5t-10 47t-33.5 40t-66.5 39l-89 42q-39 19 -65 39t-40 40h21q-20 -19 -30 -42.5t-10 -50.5z" />
    <glyph glyph-name="dieresis" unicode="&#xa8;" horiz-adv-x="500" 
d="M304 621v82h82v-82h-82zM114 621v82h82v-82h-82z" />
    <glyph glyph-name="copyright" unicode="&#xa9;" horiz-adv-x="816" 
d="M409 -8q-77 0 -143 27.5t-115 76.5t-76.5 115t-27.5 142q0 77 27.5 142.5t76.5 114t114.5 76t143.5 27.5q77 0 142.5 -27.5t114.5 -76t76.5 -114t27.5 -142.5q0 -76 -27.5 -142t-76.5 -115t-114.5 -76.5t-142.5 -27.5zM421 137q-64 0 -110 27.5t-71 76.5t-25 115
t25 113.5t71 73t110 25.5q38 0 77 -14t65 -40l-23 -46q-26 25 -57 36t-60 11q-68 0 -106.5 -42t-38.5 -118t38.5 -120.5t106.5 -44.5q29 0 60 11.5t57 36.5l23 -47q-26 -26 -65.5 -40t-76.5 -14zM409 33q67 0 125 24t101 68t67 102t24 126t-24 126t-67 101.5t-101 67.5
t-125 24q-68 0 -126 -24t-101 -67.5t-67.5 -101.5t-24.5 -126t24.5 -126t67.5 -102t101 -68t126 -24z" />
    <glyph glyph-name="ordfeminine" unicode="&#xaa;" horiz-adv-x="359" 
d="M153 387q-50 0 -82 27t-32 69q0 49 44 72t117 23h66v-40h-65q-35 0 -59.5 -6t-36.5 -18t-12 -31q0 -23 17.5 -37.5t52.5 -14.5q28 0 50 12t34.5 35t12.5 56v60q0 38 -20 55.5t-60 17.5q-30 0 -58.5 -8t-54.5 -23l-16 45q27 16 61.5 24t68.5 8q65 0 97.5 -30t32.5 -90
v-201h-50v58h-2q-18 -34 -44.5 -48.5t-61.5 -14.5z" />
    <glyph glyph-name="guillemotleft" unicode="&#xab;" horiz-adv-x="437" 
d="M162 89l-100 167v33l101 168l50 -19l-87 -165l87 -166zM334 89l-100 167v33l101 168l50 -19l-87 -165l87 -166z" />
    <glyph glyph-name="logicalnot" unicode="&#xac;" horiz-adv-x="600" 
d="M488 152v210h-432v54h488v-264h-56z" />
    <glyph glyph-name="uni00AD" unicode="&#xad;" horiz-adv-x="420" 
d="M74 238v59h272v-59h-272z" />
    <glyph glyph-name="registered" unicode="&#xae;" horiz-adv-x="816" 
d="M409 -8q-76 0 -142 27.5t-115.5 76.5t-77 115t-27.5 142q0 77 27.5 142.5t76.5 114t114.5 76t142.5 27.5q78 0 143.5 -27.5t114 -76t76 -114t27.5 -142.5q0 -76 -27.5 -142t-76 -115t-114.5 -76.5t-142 -27.5zM409 34q67 0 124.5 24t101 67.5t67.5 101.5t24 126t-24 126
t-67.5 101t-101 67t-124.5 24q-68 0 -125.5 -24t-101 -67t-67.5 -101t-24 -126t24 -126t67.5 -101.5t101 -67.5t125.5 -24zM268 142v421h168q67 0 103 -32t36 -90q0 -46 -26.5 -76.5t-72.5 -38.5l1 -2q20 -4 32.5 -17t19.5 -34l52 -131h-60l-51 133q-10 25 -29.5 34.5
t-48.5 9.5h-79l12 9v-186h-57zM325 365h104q42 0 65.5 17t23.5 58t-23.5 58.5t-65.5 17.5h-104v-151z" />
    <glyph glyph-name="macron" unicode="&#xaf;" horiz-adv-x="500" 
d="M93 636v56h314v-56h-314z" />
    <glyph glyph-name="degree" unicode="&#xb0;" horiz-adv-x="373" 
d="M187 420q-42 0 -75 19.5t-52.5 53t-19.5 74.5q0 42 19 74.5t52.5 52t75.5 19.5q41 0 74 -19t52.5 -52t19.5 -75q0 -41 -19.5 -74.5t-52.5 -53t-74 -19.5zM187 471q40 0 66 27t26 69t-26 69t-67 27q-40 0 -66 -27t-26 -69t26 -69t67 -27z" />
    <glyph glyph-name="plusminus" unicode="&#xb1;" horiz-adv-x="600" 
d="M272 120v180h-216v54h216v178h56v-178h216v-54h-216v-180h-56zM56 0v55h488v-55h-488z" />
    <glyph glyph-name="uni00B2" unicode="&#xb2;" horiz-adv-x="480" 
d="M79 238v42l173 167q39 37 54.5 67.5t15.5 62.5q0 38 -25 59.5t-69 21.5q-37 0 -75 -14.5t-64 -38.5l-29 43q32 30 78.5 45.5t92.5 15.5t79 -16t52 -45.5t19 -67.5q0 -41 -18 -77t-58 -75l-144 -139v-1h242v-50h-324z" />
    <glyph glyph-name="uni00B3" unicode="&#xb3;" horiz-adv-x="480" 
d="M236 234q-52 0 -99.5 16t-76.5 45l30 43q24 -24 62 -38.5t82 -14.5q43 0 75 19.5t32 63.5q0 46 -33 63.5t-87 17.5h-87v51h76q52 0 85 22t33 64q0 35 -26.5 53.5t-71.5 18.5q-36 0 -74 -14t-65 -39l-30 43q33 29 79 45t93 16q69 0 110.5 -34t41.5 -83q0 -39 -25 -69
t-55 -44v-2q26 -7 47.5 -23t34 -39t12.5 -53q0 -40 -22.5 -69t-59.5 -44t-81 -15z" />
    <glyph glyph-name="acute" unicode="&#xb4;" horiz-adv-x="500" 
d="M221 559l104 194h81l-129 -194h-56z" />
    <glyph glyph-name="uni00B5" unicode="&#xb5;" horiz-adv-x="600" 
d="M91 -180v674h68v-309q0 -38 11.5 -68.5t38 -47.5t72.5 -17q47 0 83 22.5t56 58.5t20 77v284h69v-494h-66v108h-3q-24 -53 -62.5 -84.5t-97.5 -31.5q-49 0 -77.5 18t-43.5 49h-3l3 -239h-68z" />
    <glyph glyph-name="paragraph" unicode="&#xb6;" horiz-adv-x="576" 
d="M217 -180v498q-59 0 -103 25t-68 69t-24 100t24.5 99.5t68.5 68.5t103 25h245v-885h-62v826h-123v-826h-61z" />
    <glyph glyph-name="periodcentered" unicode="&#xb7;" horiz-adv-x="255" 
d="M79 226v93h97v-93h-97z" />
    <glyph glyph-name="cedilla" unicode="&#xb8;" horiz-adv-x="500" 
d="M254 -193q-24 0 -48.5 5t-39.5 14l12 43q19 -9 35.5 -13t41.5 -4q27 0 43.5 9t16.5 28q0 15 -10.5 22.5t-29.5 7.5q-9 0 -21.5 -2t-28.5 -7l-17 15l15 95h48l-13 -77l-22 8q11 3 25 5t26 2q23 0 41.5 -7.5t30.5 -23t12 -38.5q0 -25 -15.5 -43.5t-41.5 -28.5t-60 -10z" />
    <glyph glyph-name="uni00B9" unicode="&#xb9;" horiz-adv-x="480" 
d="M92 238v50h146v370l27 -2l-158 -106l-30 43l169 112h48v-417h121v-50h-323z" />
    <glyph glyph-name="ordmasculine" unicode="&#xba;" horiz-adv-x="373" 
d="M186 387q-42 0 -77 20.5t-55.5 57.5t-20.5 86q0 48 20.5 84.5t55.5 57t77 20.5q43 0 78 -20.5t55.5 -57t20.5 -84.5q0 -49 -20.5 -86t-55.5 -57.5t-78 -20.5zM187 436q44 0 71 29.5t27 85.5q0 55 -27 84.5t-71 29.5q-45 0 -72 -29.5t-27 -84.5q0 -56 27 -85.5t72 -29.5z
" />
    <glyph glyph-name="guillemotright" unicode="&#xbb;" horiz-adv-x="437" 
d="M101 89l-50 19l87 165l-87 166l51 18l100 -168v-32zM273 89l-50 19l87 165l-87 166l51 18l100 -168v-32z" />
    <glyph glyph-name="onequarter" unicode="&#xbc;" horiz-adv-x="1086" 
d="M92 238v50h146v370l27 -2l-158 -106l-30 43l169 112h48v-417h121v-50h-323zM379 -23l-45 25l417 726l45 -25zM895 0v106h-233v47l236 314h52v-309h76v-52h-76v-106h-55zM896 158v226h-3l-184 -246l-3 20h190z" />
    <glyph glyph-name="onehalf" unicode="&#xbd;" horiz-adv-x="1127" 
d="M92 238v50h146v370l27 -2l-158 -106l-30 43l169 112h48v-417h121v-50h-323zM379 -23l-45 25l417 726l45 -25zM726 0v42l173 167q39 37 54.5 67.5t15.5 62.5q0 38 -25 59.5t-69 21.5q-37 0 -75 -14.5t-64 -38.5l-29 43q32 30 78.5 45.5t92.5 15.5t79 -16t52 -45.5
t19 -67.5q0 -41 -18 -77t-58 -75l-144 -139v-1h242v-50h-324z" />
    <glyph glyph-name="threequarters" unicode="&#xbe;" horiz-adv-x="1086" 
d="M236 234q-52 0 -99.5 16t-76.5 45l30 43q24 -24 62 -38.5t82 -14.5q43 0 75 19.5t32 63.5q0 46 -33 63.5t-87 17.5h-87v51h76q52 0 85 22t33 64q0 35 -26.5 53.5t-71.5 18.5q-36 0 -74 -14t-65 -39l-30 43q33 29 79 45t93 16q69 0 110.5 -34t41.5 -83q0 -39 -25 -69
t-55 -44v-2q26 -7 47.5 -23t34 -39t12.5 -53q0 -40 -22.5 -69t-59.5 -44t-81 -15zM379 -23l-45 25l417 726l45 -25zM895 0v106h-233v47l236 314h52v-309h76v-52h-76v-106h-55zM896 158v226h-3l-184 -246l-3 20h190z" />
    <glyph glyph-name="questiondown" unicode="&#xbf;" horiz-adv-x="476" 
d="M224 -188q-63 0 -110.5 18t-74 53.5t-26.5 88.5q0 42 16.5 74.5t43 59.5t55.5 51q32 26 51.5 47.5t29.5 42.5t12 45l1 15h54v-17q0 -30 -11 -59t-33.5 -57t-57.5 -56q-38 -31 -64.5 -63.5t-26.5 -79.5q0 -38 20 -59t53 -30t70 -9q54 0 103 20t93 61l29 -57
q-29 -27 -66.5 -47t-78.5 -31t-82 -11zM201 403v91h95v-91h-95z" />
    <glyph glyph-name="Agrave" unicode="&#xc0;" horiz-adv-x="764" 
d="M43 0l307 705h65l306 -705h-74l-87 202l39 -21h-433l38 21l-87 -202h-74zM380 619l-166 -390l-25 15h387l-27 -15l-165 390h-4zM355 765l-146 171h87l118 -171h-59z" />
    <glyph glyph-name="Aacute" unicode="&#xc1;" horiz-adv-x="764" 
d="M43 0l307 705h65l306 -705h-74l-87 202l39 -21h-433l38 21l-87 -202h-74zM380 619l-166 -390l-25 15h387l-27 -15l-165 390h-4zM353 765l118 171h89l-146 -171h-61z" />
    <glyph glyph-name="Acircumflex" unicode="&#xc2;" horiz-adv-x="764" 
d="M43 0l307 705h65l306 -705h-74l-87 202l39 -21h-433l38 21l-87 -202h-74zM380 619l-166 -390l-25 15h387l-27 -15l-165 390h-4zM223 765l125 171h70l125 -171h-58l-102 122l-103 -122h-57z" />
    <glyph glyph-name="Atilde" unicode="&#xc3;" horiz-adv-x="764" 
d="M43 0l307 705h65l306 -705h-74l-87 202l39 -21h-433l38 21l-87 -202h-74zM380 619l-166 -390l-25 15h387l-27 -15l-165 390h-4zM226 783l-50 3q6 64 37 98.5t80 34.5q28 0 54 -13t51 -30q22 -14 40.5 -24t35.5 -10q29 0 45 20t23 59l49 -2q-6 -64 -37 -98.5t-80 -34.5
q-28 0 -54 13.5t-51 29.5q-22 15 -41 24.5t-36 9.5q-28 0 -44 -20t-22 -60z" />
    <glyph glyph-name="Adieresis" unicode="&#xc4;" horiz-adv-x="764" 
d="M43 0l307 705h65l306 -705h-74l-87 202l39 -21h-433l38 21l-87 -202h-74zM380 619l-166 -390l-25 15h387l-27 -15l-165 390h-4zM437 809v80h82v-80h-82zM247 809v80h82v-80h-82z" />
    <glyph glyph-name="Aring" unicode="&#xc5;" horiz-adv-x="764" 
d="M43 0l307 705h65l306 -705h-74l-87 202l39 -21h-433l38 21l-87 -202h-74zM380 619l-166 -390l-25 15h387l-27 -15l-165 390h-4zM383 758q-34 0 -61 15.5t-42.5 41t-15.5 57.5t15.5 58t42.5 41t61 15t61 -15t42.5 -41t15.5 -58t-15.5 -57.5t-42.5 -41t-61 -15.5zM383 800
q32 0 52.5 20.5t20.5 52.5q0 31 -20.5 51t-52.5 20q-31 0 -52 -20t-21 -51q0 -32 20.5 -52.5t52.5 -20.5z" />
    <glyph glyph-name="AE" unicode="&#xc6;" horiz-adv-x="1034" 
d="M3 0l415 705h534v-64h-464l24 37l64 -310l-41 21h397v-64h-386l35 21l67 -316l-38 34h342v-64h-367l-43 205l27 -24h-401l34 24l-121 -205h-78zM447 634l-234 -407l-23 17h359l-11 -18l-86 408h-5z" />
    <glyph glyph-name="Ccedilla" unicode="&#xc7;" horiz-adv-x="711" 
d="M404 -9q-99 0 -171.5 43.5t-111.5 125t-39 193.5t39 193t111 124t172 43q74 0 134.5 -23t104.5 -68l-30 -55q-47 43 -96.5 62t-112.5 19q-117 0 -183 -75t-66 -220q0 -144 66 -220t183 -76q63 0 112.5 19t96.5 62l30 -55q-44 -45 -104.5 -68.5t-134.5 -23.5zM405 -193
q-24 0 -48.5 5t-39.5 14l12 43q19 -9 35.5 -13t41.5 -4q27 0 43.5 9t16.5 28q0 15 -10.5 22.5t-29.5 7.5q-9 0 -21.5 -2t-28.5 -7l-17 15l15 95h48l-13 -77l-22 8q11 3 25 5t26 2q23 0 41.5 -7.5t30.5 -23t12 -38.5q0 -25 -15.5 -43.5t-41.5 -28.5t-60 -10z" />
    <glyph glyph-name="Egrave" unicode="&#xc8;" horiz-adv-x="646" 
d="M113 0v705h451v-64h-381v-252h361v-64h-361v-261h381v-64h-451zM318 765l-146 171h87l118 -171h-59z" />
    <glyph glyph-name="Eacute" unicode="&#xc9;" horiz-adv-x="646" 
d="M113 0v705h451v-64h-381v-252h361v-64h-361v-261h381v-64h-451zM316 765l118 171h89l-146 -171h-61z" />
    <glyph glyph-name="Ecircumflex" unicode="&#xca;" horiz-adv-x="646" 
d="M113 0v705h451v-64h-381v-252h361v-64h-361v-261h381v-64h-451zM186 765l125 171h70l125 -171h-58l-102 122l-103 -122h-57z" />
    <glyph glyph-name="Edieresis" unicode="&#xcb;" horiz-adv-x="646" 
d="M113 0v705h451v-64h-381v-252h361v-64h-361v-261h381v-64h-451zM400 809v80h82v-80h-82zM210 809v80h82v-80h-82z" />
    <glyph glyph-name="Igrave" unicode="&#xcc;" horiz-adv-x="296" 
d="M113 0v705h70v-705h-70zM120 765l-146 171h87l118 -171h-59z" />
    <glyph glyph-name="Iacute" unicode="&#xcd;" horiz-adv-x="296" 
d="M113 0v705h70v-705h-70zM118 765l118 171h89l-146 -171h-61z" />
    <glyph glyph-name="Icircumflex" unicode="&#xce;" horiz-adv-x="296" 
d="M113 0v705h70v-705h-70zM-12 765l125 171h70l125 -171h-58l-102 122l-103 -122h-57z" />
    <glyph glyph-name="Idieresis" unicode="&#xcf;" horiz-adv-x="296" 
d="M113 0v705h70v-705h-70zM202 809v80h82v-80h-82zM12 809v80h82v-80h-82z" />
    <glyph glyph-name="Eth" unicode="&#xd0;" horiz-adv-x="781" 
d="M113 0v705h237q112 0 190 -41t118.5 -119.5t40.5 -191.5t-41 -192t-119 -120t-189 -41h-237zM183 64h164q136 0 207.5 70.5t71.5 218.5t-71 218t-208 70h-164v-577zM22 328v61h368v-61h-368z" />
    <glyph glyph-name="Ntilde" unicode="&#xd1;" horiz-adv-x="812" 
d="M113 0v705h66l452 -599v0v599h68v-705h-67l-452 597v0v-597h-67zM253 783l-50 3q6 64 37 98.5t80 34.5q28 0 54 -13t51 -30q22 -14 40.5 -24t35.5 -10q29 0 45 20t23 59l49 -2q-6 -64 -37 -98.5t-80 -34.5q-28 0 -54 13.5t-51 29.5q-22 15 -41 24.5t-36 9.5
q-28 0 -44 -20t-22 -60z" />
    <glyph glyph-name="Ograve" unicode="&#xd2;" horiz-adv-x="807" 
d="M403 -8q-74 0 -133.5 24.5t-101.5 71.5t-64 113.5t-22 150.5q0 85 22 152t63.5 113.5t101 71t134.5 24.5q76 0 135.5 -24.5t101.5 -71t63.5 -113t21.5 -151.5q0 -84 -22 -151t-63.5 -114t-101 -71.5t-135.5 -24.5zM403 57q79 0 134.5 33.5t85 99.5t29.5 163t-29 162.5
t-85 99t-135 33.5q-78 0 -133.5 -33.5t-85 -99t-29.5 -162.5q0 -96 29.5 -162t85 -100t133.5 -34zM375 765l-146 171h87l118 -171h-59z" />
    <glyph glyph-name="Oacute" unicode="&#xd3;" horiz-adv-x="807" 
d="M403 -8q-74 0 -133.5 24.5t-101.5 71.5t-64 113.5t-22 150.5q0 85 22 152t63.5 113.5t101 71t134.5 24.5q76 0 135.5 -24.5t101.5 -71t63.5 -113t21.5 -151.5q0 -84 -22 -151t-63.5 -114t-101 -71.5t-135.5 -24.5zM403 57q79 0 134.5 33.5t85 99.5t29.5 163t-29 162.5
t-85 99t-135 33.5q-78 0 -133.5 -33.5t-85 -99t-29.5 -162.5q0 -96 29.5 -162t85 -100t133.5 -34zM373 765l118 171h89l-146 -171h-61z" />
    <glyph glyph-name="Ocircumflex" unicode="&#xd4;" horiz-adv-x="807" 
d="M403 -8q-74 0 -133.5 24.5t-101.5 71.5t-64 113.5t-22 150.5q0 85 22 152t63.5 113.5t101 71t134.5 24.5q76 0 135.5 -24.5t101.5 -71t63.5 -113t21.5 -151.5q0 -84 -22 -151t-63.5 -114t-101 -71.5t-135.5 -24.5zM403 57q79 0 134.5 33.5t85 99.5t29.5 163t-29 162.5
t-85 99t-135 33.5q-78 0 -133.5 -33.5t-85 -99t-29.5 -162.5q0 -96 29.5 -162t85 -100t133.5 -34zM243 765l125 171h70l125 -171h-58l-102 122l-103 -122h-57z" />
    <glyph glyph-name="Otilde" unicode="&#xd5;" horiz-adv-x="807" 
d="M403 -8q-74 0 -133.5 24.5t-101.5 71.5t-64 113.5t-22 150.5q0 85 22 152t63.5 113.5t101 71t134.5 24.5q76 0 135.5 -24.5t101.5 -71t63.5 -113t21.5 -151.5q0 -84 -22 -151t-63.5 -114t-101 -71.5t-135.5 -24.5zM403 57q79 0 134.5 33.5t85 99.5t29.5 163t-29 162.5
t-85 99t-135 33.5q-78 0 -133.5 -33.5t-85 -99t-29.5 -162.5q0 -96 29.5 -162t85 -100t133.5 -34zM246 783l-50 3q6 64 37 98.5t80 34.5q28 0 54 -13t51 -30q22 -14 40.5 -24t35.5 -10q29 0 45 20t23 59l49 -2q-6 -64 -37 -98.5t-80 -34.5q-28 0 -54 13.5t-51 29.5
q-22 15 -41 24.5t-36 9.5q-28 0 -44 -20t-22 -60z" />
    <glyph glyph-name="Odieresis" unicode="&#xd6;" horiz-adv-x="807" 
d="M403 -8q-74 0 -133.5 24.5t-101.5 71.5t-64 113.5t-22 150.5q0 85 22 152t63.5 113.5t101 71t134.5 24.5q76 0 135.5 -24.5t101.5 -71t63.5 -113t21.5 -151.5q0 -84 -22 -151t-63.5 -114t-101 -71.5t-135.5 -24.5zM403 57q79 0 134.5 33.5t85 99.5t29.5 163t-29 162.5
t-85 99t-135 33.5q-78 0 -133.5 -33.5t-85 -99t-29.5 -162.5q0 -96 29.5 -162t85 -100t133.5 -34zM457 809v80h82v-80h-82zM267 809v80h82v-80h-82z" />
    <glyph glyph-name="multiply" unicode="&#xd7;" horiz-adv-x="600" 
d="M105 50l-39 38l195 196l-195 195l39 39l195 -195l195 195l39 -39l-195 -195l195 -196l-39 -38l-195 196z" />
    <glyph glyph-name="Oslash" unicode="&#xd8;" horiz-adv-x="807" 
d="M403 -8q-74 0 -133.5 24.5t-101.5 71.5t-64 113.5t-22 150.5q0 85 22 152t63.5 113.5t101 71t134.5 24.5q76 0 135.5 -24.5t101.5 -71t63.5 -113t21.5 -151.5q0 -84 -22 -151t-63.5 -114t-101 -71.5t-135.5 -24.5zM403 57q79 0 134.5 33.5t85 99.5t29.5 163t-29 162.5
t-85 99t-135 33.5q-78 0 -133.5 -33.5t-85 -99t-29.5 -162.5q0 -96 29.5 -162t85 -100t133.5 -34zM216 -42l-56 32l54 92l26 37l297 508l15 36l55 92l55 -32l-54 -92l-26 -37l-296 -508l-16 -36z" />
    <glyph glyph-name="Ugrave" unicode="&#xd9;" horiz-adv-x="756" 
d="M378 -8q-135 0 -205 70.5t-70 207.5v435h70v-437q0 -109 52.5 -159t152.5 -50t152 50t52 159v437h71v-435q0 -137 -70.5 -207.5t-204.5 -70.5zM350 765l-146 171h87l118 -171h-59z" />
    <glyph glyph-name="Uacute" unicode="&#xda;" horiz-adv-x="756" 
d="M378 -8q-135 0 -205 70.5t-70 207.5v435h70v-437q0 -109 52.5 -159t152.5 -50t152 50t52 159v437h71v-435q0 -137 -70.5 -207.5t-204.5 -70.5zM348 765l118 171h89l-146 -171h-61z" />
    <glyph glyph-name="Ucircumflex" unicode="&#xdb;" horiz-adv-x="756" 
d="M378 -8q-135 0 -205 70.5t-70 207.5v435h70v-437q0 -109 52.5 -159t152.5 -50t152 50t52 159v437h71v-435q0 -137 -70.5 -207.5t-204.5 -70.5zM218 765l125 171h70l125 -171h-58l-102 122l-103 -122h-57z" />
    <glyph glyph-name="Udieresis" unicode="&#xdc;" horiz-adv-x="756" 
d="M378 -8q-135 0 -205 70.5t-70 207.5v435h70v-437q0 -109 52.5 -159t152.5 -50t152 50t52 159v437h71v-435q0 -137 -70.5 -207.5t-204.5 -70.5zM432 809v80h82v-80h-82zM242 809v80h82v-80h-82z" />
    <glyph glyph-name="Yacute" unicode="&#xdd;" horiz-adv-x="616" 
d="M273 0v367l13 -59l-278 397h81l219 -314h1l219 314h79l-277 -397l13 59v-367h-70zM278 765l118 171h89l-146 -171h-61z" />
    <glyph glyph-name="Thorn" unicode="&#xde;" horiz-adv-x="680" 
d="M113 0v705h70v-133h210q75 0 128 -24t80.5 -69.5t27.5 -111.5q0 -65 -28 -112t-80.5 -71.5t-127.5 -24.5h-210v-159h-70zM183 222h201q86 0 130 35t44 110q0 74 -44 108.5t-130 34.5h-201v-288z" />
    <glyph glyph-name="germandbls" unicode="&#xdf;" horiz-adv-x="653" 
d="M429 -8q-38 0 -76.5 7t-72 20t-57.5 33l24 55q40 -31 87.5 -43t90.5 -12q55 0 84.5 19.5t29.5 59.5q0 33 -23 52t-82 40q-46 16 -73 34.5t-39 40.5t-12 50q0 30 16.5 58.5t58.5 69.5q29 29 43 52t14 49q0 24 -16 40.5t-42.5 25t-57.5 8.5q-73 0 -115.5 -39.5
t-42.5 -119.5v-492h-70v487q0 70 28.5 120.5t80 77t119.5 26.5q53 0 94.5 -15.5t65.5 -44t24 -67.5q0 -25 -7.5 -46t-23.5 -42.5t-42 -46.5q-29 -29 -45.5 -51t-16.5 -42q0 -16 8 -29t27.5 -25t53.5 -25q76 -29 110 -61.5t34 -85.5q0 -40 -23 -71.5t-63.5 -49t-92.5 -17.5z
" />
    <glyph glyph-name="agrave" unicode="&#xe0;" horiz-adv-x="611" 
d="M261 -8q-52 0 -94 19t-66 52t-24 74q0 58 33.5 90.5t100.5 45.5t168 13h80v-54h-76q-62 0 -106.5 -4t-73 -14t-42 -27.5t-13.5 -45.5q0 -44 35.5 -67t87.5 -23q47 0 86.5 21.5t64 56.5t24.5 77v116q0 61 -36.5 90.5t-106.5 29.5q-46 0 -89.5 -12t-90.5 -41l-25 55
q30 19 65 32t72 20t73 7q62 0 108.5 -19.5t72.5 -60.5t26 -105v-318h-63v110h-3q-14 -30 -40 -57.5t-63 -44t-85 -16.5zM282 560l-129 193h82l103 -193h-56z" />
    <glyph glyph-name="aacute" unicode="&#xe1;" horiz-adv-x="611" 
d="M261 -8q-52 0 -94 19t-66 52t-24 74q0 58 33.5 90.5t100.5 45.5t168 13h80v-54h-76q-62 0 -106.5 -4t-73 -14t-42 -27.5t-13.5 -45.5q0 -44 35.5 -67t87.5 -23q47 0 86.5 21.5t64 56.5t24.5 77v116q0 61 -36.5 90.5t-106.5 29.5q-46 0 -89.5 -12t-90.5 -41l-25 55
q30 19 65 32t72 20t73 7q62 0 108.5 -19.5t72.5 -60.5t26 -105v-318h-63v110h-3q-14 -30 -40 -57.5t-63 -44t-85 -16.5zM280 559l104 194h81l-129 -194h-56z" />
    <glyph glyph-name="acircumflex" unicode="&#xe2;" horiz-adv-x="611" 
d="M261 -8q-52 0 -94 19t-66 52t-24 74q0 58 33.5 90.5t100.5 45.5t168 13h80v-54h-76q-62 0 -106.5 -4t-73 -14t-42 -27.5t-13.5 -45.5q0 -44 35.5 -67t87.5 -23q47 0 86.5 21.5t64 56.5t24.5 77v116q0 61 -36.5 90.5t-106.5 29.5q-46 0 -89.5 -12t-90.5 -41l-25 55
q30 19 65 32t72 20t73 7q62 0 108.5 -19.5t72.5 -60.5t26 -105v-318h-63v110h-3q-14 -30 -40 -57.5t-63 -44t-85 -16.5zM162 566l111 187h72l111 -187h-54l-93 136l-92 -136h-55z" />
    <glyph glyph-name="atilde" unicode="&#xe3;" horiz-adv-x="611" 
d="M261 -8q-52 0 -94 19t-66 52t-24 74q0 58 33.5 90.5t100.5 45.5t168 13h80v-54h-76q-62 0 -106.5 -4t-73 -14t-42 -27.5t-13.5 -45.5q0 -44 35.5 -67t87.5 -23q47 0 86.5 21.5t64 56.5t24.5 77v116q0 61 -36.5 90.5t-106.5 29.5q-46 0 -89.5 -12t-90.5 -41l-25 55
q30 19 65 32t72 20t73 7q62 0 108.5 -19.5t72.5 -60.5t26 -105v-318h-63v110h-3q-14 -30 -40 -57.5t-63 -44t-85 -16.5zM178 599l-46 3q5 62 32.5 96.5t70.5 34.5q26 0 46.5 -13.5t39.5 -30.5q16 -14 30 -24t29 -10q26 0 40 20.5t20 59.5l46 -3q-5 -62 -32.5 -96.5
t-69.5 -34.5q-27 0 -47.5 14t-39.5 30q-16 15 -30 24t-29 9q-26 0 -40 -20t-20 -59z" />
    <glyph glyph-name="adieresis" unicode="&#xe4;" horiz-adv-x="611" 
d="M261 -8q-52 0 -94 19t-66 52t-24 74q0 58 33.5 90.5t100.5 45.5t168 13h80v-54h-76q-62 0 -106.5 -4t-73 -14t-42 -27.5t-13.5 -45.5q0 -44 35.5 -67t87.5 -23q47 0 86.5 21.5t64 56.5t24.5 77v116q0 61 -36.5 90.5t-106.5 29.5q-46 0 -89.5 -12t-90.5 -41l-25 55
q30 19 65 32t72 20t73 7q62 0 108.5 -19.5t72.5 -60.5t26 -105v-318h-63v110h-3q-14 -30 -40 -57.5t-63 -44t-85 -16.5zM363 621v82h82v-82h-82zM173 621v82h82v-82h-82z" />
    <glyph glyph-name="aring" unicode="&#xe5;" horiz-adv-x="611" 
d="M261 -8q-52 0 -94 19t-66 52t-24 74q0 58 33.5 90.5t100.5 45.5t168 13h80v-54h-76q-62 0 -106.5 -4t-73 -14t-42 -27.5t-13.5 -45.5q0 -44 35.5 -67t87.5 -23q47 0 86.5 21.5t64 56.5t24.5 77v116q0 61 -36.5 90.5t-106.5 29.5q-46 0 -89.5 -12t-90.5 -41l-25 55
q30 19 65 32t72 20t73 7q62 0 108.5 -19.5t72.5 -60.5t26 -105v-318h-63v110h-3q-14 -30 -40 -57.5t-63 -44t-85 -16.5zM309 555q-35 0 -62 15.5t-43 42t-16 58.5q0 33 16 59t43 41.5t62 15.5t62 -15.5t43 -41.5t16 -59q0 -32 -16 -58.5t-43 -42t-62 -15.5zM309 598
q32 0 53 21t21 52q0 32 -21 53t-53 21t-53 -21t-21 -53q0 -31 21 -52t53 -21z" />
    <glyph glyph-name="ae" unicode="&#xe6;" horiz-adv-x="974" 
d="M257 -8q-51 0 -92 19t-64.5 52t-23.5 74q0 58 34 90.5t101.5 45.5t170.5 13h86v-54h-82q-86 0 -138.5 -7.5t-76.5 -27t-24 -56.5q0 -43 34.5 -66.5t84.5 -23.5q51 0 91.5 21.5t64 57t23.5 77.5v115q0 61 -36.5 90.5t-103.5 29.5q-48 0 -92.5 -12t-90.5 -41l-25 55
q30 19 65 32t72.5 20t73.5 7q73 0 120.5 -30.5t65.5 -78.5v0q28 54 77.5 81.5t115.5 27.5q72 0 121 -31.5t74.5 -88t25.5 -133.5v-21h-414v54h373l-22 -21q0 53 -18 94.5t-53 65t-87 23.5q-80 0 -127.5 -51t-47.5 -138v-10q0 -88 49.5 -141t142.5 -53q50 0 88.5 12.5
t78.5 41.5l27 -51q-35 -32 -87 -47.5t-107 -15.5q-61 0 -106 16.5t-75 48t-44 74.5h-1q-16 -38 -46.5 -70t-74 -50.5t-101.5 -18.5z" />
    <glyph glyph-name="ccedilla" unicode="&#xe7;" horiz-adv-x="515" 
d="M315 -8q-76 0 -131.5 31t-86 88.5t-30.5 135.5q0 79 30.5 136.5t86.5 88.5t131 31q51 0 96.5 -18t75.5 -49l-28 -53q-30 28 -67 42.5t-72 14.5q-84 0 -133 -51t-49 -143q0 -91 49 -141.5t132 -50.5q36 0 72.5 14.5t64.5 39.5l28 -52q-29 -30 -73.5 -47t-95.5 -17z
M314 -193q-24 0 -48.5 5t-39.5 14l12 43q19 -9 35.5 -13t41.5 -4q27 0 43.5 9t16.5 28q0 15 -10.5 22.5t-29.5 7.5q-9 0 -21.5 -2t-28.5 -7l-17 15l15 95h48l-13 -77l-22 8q11 3 25 5t26 2q23 0 41.5 -7.5t30.5 -23t12 -38.5q0 -25 -15.5 -43.5t-41.5 -28.5t-60 -10z" />
    <glyph glyph-name="egrave" unicode="&#xe8;" horiz-adv-x="598" 
d="M328 -8q-79 0 -138 30t-91 87.5t-32 138.5q0 74 28.5 131.5t83 90.5t129.5 33t124.5 -32t74.5 -88.5t25 -132.5v-22h-416v55h375l-22 -22q0 87 -42 135.5t-119 48.5q-50 0 -89 -23t-61 -64.5t-22 -100.5v-9q0 -63 23.5 -106.5t67 -66.5t101.5 -23q41 0 85 11.5t82 43.5
l28 -52q-38 -33 -91 -48t-104 -15zM282 560l-129 193h82l103 -193h-56z" />
    <glyph glyph-name="eacute" unicode="&#xe9;" horiz-adv-x="598" 
d="M328 -8q-79 0 -138 30t-91 87.5t-32 138.5q0 74 28.5 131.5t83 90.5t129.5 33t124.5 -32t74.5 -88.5t25 -132.5v-22h-416v55h375l-22 -22q0 87 -42 135.5t-119 48.5q-50 0 -89 -23t-61 -64.5t-22 -100.5v-9q0 -63 23.5 -106.5t67 -66.5t101.5 -23q41 0 85 11.5t82 43.5
l28 -52q-38 -33 -91 -48t-104 -15zM280 559l104 194h81l-129 -194h-56z" />
    <glyph glyph-name="ecircumflex" unicode="&#xea;" horiz-adv-x="598" 
d="M328 -8q-79 0 -138 30t-91 87.5t-32 138.5q0 74 28.5 131.5t83 90.5t129.5 33t124.5 -32t74.5 -88.5t25 -132.5v-22h-416v55h375l-22 -22q0 87 -42 135.5t-119 48.5q-50 0 -89 -23t-61 -64.5t-22 -100.5v-9q0 -63 23.5 -106.5t67 -66.5t101.5 -23q41 0 85 11.5t82 43.5
l28 -52q-38 -33 -91 -48t-104 -15zM162 566l111 187h72l111 -187h-54l-93 136l-92 -136h-55z" />
    <glyph glyph-name="edieresis" unicode="&#xeb;" horiz-adv-x="598" 
d="M328 -8q-79 0 -138 30t-91 87.5t-32 138.5q0 74 28.5 131.5t83 90.5t129.5 33t124.5 -32t74.5 -88.5t25 -132.5v-22h-416v55h375l-22 -22q0 87 -42 135.5t-119 48.5q-50 0 -89 -23t-61 -64.5t-22 -100.5v-9q0 -63 23.5 -106.5t67 -66.5t101.5 -23q41 0 85 11.5t82 43.5
l28 -52q-38 -33 -91 -48t-104 -15zM363 621v82h82v-82h-82zM173 621v82h82v-82h-82z" />
    <glyph glyph-name="igrave" unicode="&#xec;" horiz-adv-x="265" 
d="M98 0v494h70v-494h-70zM105 560l-129 193h82l103 -193h-56z" />
    <glyph glyph-name="iacute" unicode="&#xed;" horiz-adv-x="265" 
d="M98 0v494h70v-494h-70zM103 559l104 194h81l-129 -194h-56z" />
    <glyph glyph-name="icircumflex" unicode="&#xee;" horiz-adv-x="265" 
d="M98 0v494h70v-494h-70zM-15 566l111 187h72l111 -187h-54l-93 136l-92 -136h-55z" />
    <glyph glyph-name="idieresis" unicode="&#xef;" horiz-adv-x="265" 
d="M98 0v494h70v-494h-70zM186 621v82h82v-82h-82zM-4 621v82h82v-82h-82z" />
    <glyph glyph-name="eth" unicode="&#xf0;" horiz-adv-x="604" 
d="M305 -8q-71 0 -124.5 29.5t-83.5 82t-30 124.5q0 70 29.5 123t82.5 82.5t123 29.5q61 0 106.5 -30t66.5 -81v0q-5 76 -47 140t-115 109h19l-163 -68l-21 47l128 54v-13q-22 12 -48 21.5t-54 16.5l17 52q44 -9 82.5 -24.5t71.5 -34.5l-21 1l139 58l20 -47l-107 -45l2 11
q55 -39 93 -92t57.5 -116t19.5 -136q0 -93 -28.5 -158.5t-83 -100.5t-131.5 -35zM305 53q79 0 124 46.5t45 128.5q0 83 -44.5 129t-123.5 46q-77 0 -123 -48t-46 -127q0 -80 46 -127.5t122 -47.5z" />
    <glyph glyph-name="ntilde" unicode="&#xf1;" horiz-adv-x="628" 
d="M98 0v494h65v-109h2q25 54 73 86t109 32q62 0 103 -21.5t61.5 -64.5t20.5 -108v-309h-70v305q0 40 -12 70.5t-39 47.5t-74 17q-49 0 -87.5 -22t-60 -58.5t-21.5 -78.5v-281h-70zM195 599l-46 3q5 62 32.5 96.5t70.5 34.5q26 0 46.5 -13.5t39.5 -30.5q16 -14 30 -24
t29 -10q26 0 40 20.5t20 59.5l46 -3q-5 -62 -32.5 -96.5t-69.5 -34.5q-27 0 -47.5 14t-39.5 30q-16 15 -30 24t-29 9q-26 0 -40 -20t-20 -59z" />
    <glyph glyph-name="ograve" unicode="&#xf2;" horiz-adv-x="613" 
d="M307 -8q-74 0 -128 31.5t-83 89.5t-29 135t29.5 134t83 89t127.5 32t127.5 -32t83 -89t29.5 -134t-29.5 -135t-83 -89.5t-127.5 -31.5zM306 54q79 0 125 53t46 141t-45.5 140t-124.5 52t-124.5 -52t-45.5 -140t45.5 -141t123.5 -53zM280 560l-129 193h82l103 -193h-56z
" />
    <glyph glyph-name="oacute" unicode="&#xf3;" horiz-adv-x="613" 
d="M307 -8q-74 0 -128 31.5t-83 89.5t-29 135t29.5 134t83 89t127.5 32t127.5 -32t83 -89t29.5 -134t-29.5 -135t-83 -89.5t-127.5 -31.5zM306 54q79 0 125 53t46 141t-45.5 140t-124.5 52t-124.5 -52t-45.5 -140t45.5 -141t123.5 -53zM278 559l104 194h81l-129 -194h-56z
" />
    <glyph glyph-name="ocircumflex" unicode="&#xf4;" horiz-adv-x="613" 
d="M307 -8q-74 0 -128 31.5t-83 89.5t-29 135t29.5 134t83 89t127.5 32t127.5 -32t83 -89t29.5 -134t-29.5 -135t-83 -89.5t-127.5 -31.5zM306 54q79 0 125 53t46 141t-45.5 140t-124.5 52t-124.5 -52t-45.5 -140t45.5 -141t123.5 -53zM160 566l111 187h72l111 -187h-54
l-93 136l-92 -136h-55z" />
    <glyph glyph-name="otilde" unicode="&#xf5;" horiz-adv-x="613" 
d="M307 -8q-74 0 -128 31.5t-83 89.5t-29 135t29.5 134t83 89t127.5 32t127.5 -32t83 -89t29.5 -134t-29.5 -135t-83 -89.5t-127.5 -31.5zM306 54q79 0 125 53t46 141t-45.5 140t-124.5 52t-124.5 -52t-45.5 -140t45.5 -141t123.5 -53zM176 599l-46 3q5 62 32.5 96.5
t70.5 34.5q26 0 46.5 -13.5t39.5 -30.5q16 -14 30 -24t29 -10q26 0 40 20.5t20 59.5l46 -3q-5 -62 -32.5 -96.5t-69.5 -34.5q-27 0 -47.5 14t-39.5 30q-16 15 -30 24t-29 9q-26 0 -40 -20t-20 -59z" />
    <glyph glyph-name="odieresis" unicode="&#xf6;" horiz-adv-x="613" 
d="M307 -8q-74 0 -128 31.5t-83 89.5t-29 135t29.5 134t83 89t127.5 32t127.5 -32t83 -89t29.5 -134t-29.5 -135t-83 -89.5t-127.5 -31.5zM306 54q79 0 125 53t46 141t-45.5 140t-124.5 52t-124.5 -52t-45.5 -140t45.5 -141t123.5 -53zM361 621v82h82v-82h-82zM171 621v82
h82v-82h-82z" />
    <glyph glyph-name="divide" unicode="&#xf7;" horiz-adv-x="600" 
d="M56 257v55h488v-55h-488zM250 40v89h88v-89h-88zM250 440v89h88v-89h-88z" />
    <glyph glyph-name="oslash" unicode="&#xf8;" horiz-adv-x="613" 
d="M307 -8q-74 0 -127.5 32t-83 89.5t-29.5 134.5t29.5 134t83 89t127.5 32t127.5 -32t83 -89t29.5 -134t-29.5 -134.5t-83 -89.5t-127.5 -32zM306 51q80 0 126 54t46 143t-45.5 142t-125.5 53q-81 0 -126.5 -53t-45.5 -142t46 -143t125 -54zM167 -43l-46 26l326 554l45 -26
z" />
    <glyph glyph-name="ugrave" unicode="&#xf9;" horiz-adv-x="624" 
d="M283 -8q-61 0 -103 21.5t-63 64.5t-21 106v310h70v-306q0 -38 12 -69t40 -48t74 -17q47 0 84.5 22.5t58.5 58.5t21 78v281h70v-494h-65v110h-2q-27 -55 -70 -86.5t-106 -31.5zM284 560l-129 193h82l103 -193h-56z" />
    <glyph glyph-name="uacute" unicode="&#xfa;" horiz-adv-x="624" 
d="M283 -8q-61 0 -103 21.5t-63 64.5t-21 106v310h70v-306q0 -38 12 -69t40 -48t74 -17q47 0 84.5 22.5t58.5 58.5t21 78v281h70v-494h-65v110h-2q-27 -55 -70 -86.5t-106 -31.5zM282 559l104 194h81l-129 -194h-56z" />
    <glyph glyph-name="ucircumflex" unicode="&#xfb;" horiz-adv-x="624" 
d="M283 -8q-61 0 -103 21.5t-63 64.5t-21 106v310h70v-306q0 -38 12 -69t40 -48t74 -17q47 0 84.5 22.5t58.5 58.5t21 78v281h70v-494h-65v110h-2q-27 -55 -70 -86.5t-106 -31.5zM164 566l111 187h72l111 -187h-54l-93 136l-92 -136h-55z" />
    <glyph glyph-name="udieresis" unicode="&#xfc;" horiz-adv-x="624" 
d="M283 -8q-61 0 -103 21.5t-63 64.5t-21 106v310h70v-306q0 -38 12 -69t40 -48t74 -17q47 0 84.5 22.5t58.5 58.5t21 78v281h70v-494h-65v110h-2q-27 -55 -70 -86.5t-106 -31.5zM365 621v82h82v-82h-82zM175 621v82h82v-82h-82z" />
    <glyph glyph-name="yacute" unicode="&#xfd;" horiz-adv-x="550" 
d="M163 -180l88 205v-53l-219 522h76l168 -420v0l169 420h74l-282 -674h-74zM245 559l104 194h81l-129 -194h-56z" />
    <glyph glyph-name="thorn" unicode="&#xfe;" horiz-adv-x="644" 
d="M98 -180v885h67v-318h3q23 54 69.5 85t110.5 31q70 0 121.5 -32.5t80 -89.5t28.5 -134q0 -76 -28.5 -134t-80.5 -89.5t-120 -31.5q-63 0 -110 30t-69 84h-2v-286h-70zM337 52q79 0 124.5 53.5t45.5 142.5t-45.5 141.5t-124.5 52.5t-124.5 -52.5t-45.5 -141.5t45.5 -142.5
t124.5 -53.5z" />
    <glyph glyph-name="ydieresis" unicode="&#xff;" horiz-adv-x="550" 
d="M163 -180l88 205v-53l-219 522h76l168 -420v0l169 420h74l-282 -674h-74zM328 621v82h82v-82h-82zM138 621v82h82v-82h-82z" />
    <glyph glyph-name="Amacron" unicode="&#x100;" horiz-adv-x="764" 
d="M43 0l307 705h65l306 -705h-74l-87 202l39 -21h-433l38 21l-87 -202h-74zM380 619l-166 -390l-25 15h387l-27 -15l-165 390h-4zM220 816v57h326v-57h-326z" />
    <glyph glyph-name="amacron" unicode="&#x101;" horiz-adv-x="611" 
d="M261 -8q-52 0 -94 19t-66 52t-24 74q0 58 33.5 90.5t100.5 45.5t168 13h80v-54h-76q-62 0 -106.5 -4t-73 -14t-42 -27.5t-13.5 -45.5q0 -44 35.5 -67t87.5 -23q47 0 86.5 21.5t64 56.5t24.5 77v116q0 61 -36.5 90.5t-106.5 29.5q-46 0 -89.5 -12t-90.5 -41l-25 55
q30 19 65 32t72 20t73 7q62 0 108.5 -19.5t72.5 -60.5t26 -105v-318h-63v110h-3q-14 -30 -40 -57.5t-63 -44t-85 -16.5zM152 636v56h314v-56h-314z" />
    <glyph glyph-name="Abreve" unicode="&#x102;" horiz-adv-x="764" 
d="M43 0l307 705h65l306 -705h-74l-87 202l39 -21h-433l38 21l-87 -202h-74zM380 619l-166 -390l-25 15h387l-27 -15l-165 390h-4zM383 760q-70 0 -116 45.5t-52 124.5l51 7q5 -56 35 -89t82 -33q54 0 83.5 34t33.5 88l52 -7q-6 -79 -53 -124.5t-116 -45.5z" />
    <glyph glyph-name="abreve" unicode="&#x103;" horiz-adv-x="611" 
d="M261 -8q-52 0 -94 19t-66 52t-24 74q0 58 33.5 90.5t100.5 45.5t168 13h80v-54h-76q-62 0 -106.5 -4t-73 -14t-42 -27.5t-13.5 -45.5q0 -44 35.5 -67t87.5 -23q47 0 86.5 21.5t64 56.5t24.5 77v116q0 61 -36.5 90.5t-106.5 29.5q-46 0 -89.5 -12t-90.5 -41l-25 55
q30 19 65 32t72 20t73 7q62 0 108.5 -19.5t72.5 -60.5t26 -105v-318h-63v110h-3q-14 -30 -40 -57.5t-63 -44t-85 -16.5zM309 556q-46 0 -79.5 23.5t-52 67t-21.5 101.5l51 6q4 -69 29 -105.5t73 -36.5q47 0 72.5 36.5t29.5 105.5l51 -6q-2 -58 -21.5 -101.5t-52.5 -67
t-79 -23.5z" />
    <glyph glyph-name="Aogonek" unicode="&#x104;" horiz-adv-x="764" 
d="M43 0l307 705h65l306 -705h-74l-87 202l39 -21h-433l38 21l-87 -202h-74zM380 619l-166 -390l-25 15h387l-27 -15l-165 390h-4zM690 -194q-46 0 -76 26t-30 69q0 39 27 75t71 59l28 -35q-15 -7 -31 -19.5t-26.5 -30.5t-10.5 -39q0 -29 16.5 -41t39.5 -12q12 0 25.5 3
t26.5 9l17 -47q-13 -7 -32.5 -12t-44.5 -5z" />
    <glyph glyph-name="aogonek" unicode="&#x105;" horiz-adv-x="611" 
d="M261 -8q-52 0 -94 19t-66 52t-24 74q0 58 33.5 90.5t100.5 45.5t168 13h80v-54h-76q-62 0 -106.5 -4t-73 -14t-42 -27.5t-13.5 -45.5q0 -44 35.5 -67t87.5 -23q47 0 86.5 21.5t64 56.5t24.5 77v116q0 61 -36.5 90.5t-106.5 29.5q-46 0 -89.5 -12t-90.5 -41l-25 55
q30 19 65 32t72 20t73 7q62 0 108.5 -19.5t72.5 -60.5t26 -105v-318h-63v110h-3q-14 -30 -40 -57.5t-63 -44t-85 -16.5zM481 -194q-46 0 -76 26t-30 69q0 39 27 75t71 59l28 -35q-15 -7 -31 -19.5t-26.5 -30.5t-10.5 -39q0 -29 16.5 -41t39.5 -12q12 0 25.5 3t26.5 9l17 -47
q-13 -7 -32.5 -12t-44.5 -5z" />
    <glyph glyph-name="Cacute" unicode="&#x106;" horiz-adv-x="711" 
d="M404 -9q-99 0 -171.5 43.5t-111.5 125t-39 193.5t39 193t111 124t172 43q74 0 134.5 -23t104.5 -68l-30 -55q-47 43 -96.5 62t-112.5 19q-117 0 -183 -75t-66 -220q0 -144 66 -220t183 -76q63 0 112.5 19t96.5 62l30 -55q-44 -45 -104.5 -68.5t-134.5 -23.5zM372 765
l118 171h89l-146 -171h-61z" />
    <glyph glyph-name="cacute" unicode="&#x107;" horiz-adv-x="515" 
d="M315 -8q-76 0 -131.5 31t-86 88.5t-30.5 135.5q0 79 30.5 136.5t86.5 88.5t131 31q51 0 96.5 -18t75.5 -49l-28 -53q-30 28 -67 42.5t-72 14.5q-84 0 -133 -51t-49 -143q0 -91 49 -141.5t132 -50.5q36 0 72.5 14.5t64.5 39.5l28 -52q-29 -30 -73.5 -47t-95.5 -17z
M281 559l104 194h81l-129 -194h-56z" />
    <glyph glyph-name="Ccircumflex" unicode="&#x108;" horiz-adv-x="711" 
d="M404 -9q-99 0 -171.5 43.5t-111.5 125t-39 193.5t39 193t111 124t172 43q74 0 134.5 -23t104.5 -68l-30 -55q-47 43 -96.5 62t-112.5 19q-117 0 -183 -75t-66 -220q0 -144 66 -220t183 -76q63 0 112.5 19t96.5 62l30 -55q-44 -45 -104.5 -68.5t-134.5 -23.5zM242 765
l125 171h70l125 -171h-58l-102 122l-103 -122h-57z" />
    <glyph glyph-name="ccircumflex" unicode="&#x109;" horiz-adv-x="515" 
d="M315 -8q-76 0 -131.5 31t-86 88.5t-30.5 135.5q0 79 30.5 136.5t86.5 88.5t131 31q51 0 96.5 -18t75.5 -49l-28 -53q-30 28 -67 42.5t-72 14.5q-84 0 -133 -51t-49 -143q0 -91 49 -141.5t132 -50.5q36 0 72.5 14.5t64.5 39.5l28 -52q-29 -30 -73.5 -47t-95.5 -17z
M163 566l111 187h72l111 -187h-54l-93 136l-92 -136h-55z" />
    <glyph glyph-name="Cdotaccent" unicode="&#x10a;" horiz-adv-x="711" 
d="M404 -9q-99 0 -171.5 43.5t-111.5 125t-39 193.5t39 193t111 124t172 43q74 0 134.5 -23t104.5 -68l-30 -55q-47 43 -96.5 62t-112.5 19q-117 0 -183 -75t-66 -220q0 -144 66 -220t183 -76q63 0 112.5 19t96.5 62l30 -55q-44 -45 -104.5 -68.5t-134.5 -23.5zM357 809v87
h89v-87h-89z" />
    <glyph glyph-name="cdotaccent" unicode="&#x10b;" horiz-adv-x="515" 
d="M315 -8q-76 0 -131.5 31t-86 88.5t-30.5 135.5q0 79 30.5 136.5t86.5 88.5t131 31q51 0 96.5 -18t75.5 -49l-28 -53q-30 28 -67 42.5t-72 14.5q-84 0 -133 -51t-49 -143q0 -91 49 -141.5t132 -50.5q36 0 72.5 14.5t64.5 39.5l28 -52q-29 -30 -73.5 -47t-95.5 -17z
M268 622v83h84v-83h-84z" />
    <glyph glyph-name="Ccaron" unicode="&#x10c;" horiz-adv-x="711" 
d="M404 -9q-99 0 -171.5 43.5t-111.5 125t-39 193.5t39 193t111 124t172 43q74 0 134.5 -23t104.5 -68l-30 -55q-47 43 -96.5 62t-112.5 19q-117 0 -183 -75t-66 -220q0 -144 66 -220t183 -76q63 0 112.5 19t96.5 62l30 -55q-44 -45 -104.5 -68.5t-134.5 -23.5zM367 765
l-125 171h58l102 -122l103 122h57l-125 -171h-70z" />
    <glyph glyph-name="ccaron" unicode="&#x10d;" horiz-adv-x="515" 
d="M315 -8q-76 0 -131.5 31t-86 88.5t-30.5 135.5q0 79 30.5 136.5t86.5 88.5t131 31q51 0 96.5 -18t75.5 -49l-28 -53q-30 28 -67 42.5t-72 14.5q-84 0 -133 -51t-49 -143q0 -91 49 -141.5t132 -50.5q36 0 72.5 14.5t64.5 39.5l28 -52q-29 -30 -73.5 -47t-95.5 -17z
M274 559l-111 194h55l92 -143l93 143h54l-111 -194h-72z" />
    <glyph glyph-name="Dcaron" unicode="&#x10e;" horiz-adv-x="781" 
d="M113 0v705h237q112 0 190 -41t118.5 -119.5t40.5 -191.5t-41 -192t-119 -120t-189 -41h-237zM183 64h164q136 0 207.5 70.5t71.5 218.5t-71 218t-208 70h-164v-577zM359 765l-125 171h58l102 -122l103 122h57l-125 -171h-70z" />
    <glyph glyph-name="dcaron" unicode="&#x10f;" horiz-adv-x="644" 
d="M296 -8q-69 0 -120.5 32t-80 89.5t-28.5 133.5q0 77 28.5 134t80 89.5t119.5 32.5q65 0 111.5 -30.5t67.5 -84.5h3v317h70v-705h-65v110h-3q-23 -56 -70.5 -87t-112.5 -31zM307 52q80 0 125 53t45 142t-45 142t-124 53t-125 -53t-46 -142t45.5 -142t124.5 -53zM596 515
v190h65l-23 -190h-42z" />
    <glyph glyph-name="Dcroat" unicode="&#x110;" horiz-adv-x="781" 
d="M113 0v705h237q112 0 190 -41t118.5 -119.5t40.5 -191.5t-41 -192t-119 -120t-189 -41h-237zM183 64h164q136 0 207.5 70.5t71.5 218.5t-71 218t-208 70h-164v-577zM22 328v61h368v-61h-368z" />
    <glyph glyph-name="dcroat" unicode="&#x111;" horiz-adv-x="655" 
d="M296 -8q-69 0 -120.5 31t-80 87.5t-28.5 131.5t28.5 131.5t80 88t120.5 31.5q64 0 110.5 -30t67.5 -83h3v177h-194v53h194v95h70v-94h90v-54h-90v-557h-65v110h-3q-22 -55 -70 -86.5t-113 -31.5zM307 51q80 0 125 51t45 140q0 86 -45 139t-124 53q-53 0 -91 -24.5
t-59 -67t-21 -100.5q0 -89 45.5 -140t124.5 -51z" />
    <glyph glyph-name="Emacron" unicode="&#x112;" horiz-adv-x="646" 
d="M113 0v705h451v-64h-381v-252h361v-64h-361v-261h381v-64h-451zM183 816v57h326v-57h-326z" />
    <glyph glyph-name="emacron" unicode="&#x113;" horiz-adv-x="598" 
d="M328 -8q-79 0 -138 30t-91 87.5t-32 138.5q0 74 28.5 131.5t83 90.5t129.5 33t124.5 -32t74.5 -88.5t25 -132.5v-22h-416v55h375l-22 -22q0 87 -42 135.5t-119 48.5q-50 0 -89 -23t-61 -64.5t-22 -100.5v-9q0 -63 23.5 -106.5t67 -66.5t101.5 -23q41 0 85 11.5t82 43.5
l28 -52q-38 -33 -91 -48t-104 -15zM152 636v56h314v-56h-314z" />
    <glyph glyph-name="Ebreve" unicode="&#x114;" horiz-adv-x="646" 
d="M113 0v705h451v-64h-381v-252h361v-64h-361v-261h381v-64h-451zM346 760q-70 0 -116 45.5t-52 124.5l51 7q5 -56 35 -89t82 -33q54 0 83.5 34t33.5 88l52 -7q-6 -79 -53 -124.5t-116 -45.5z" />
    <glyph glyph-name="ebreve" unicode="&#x115;" horiz-adv-x="598" 
d="M328 -8q-79 0 -138 30t-91 87.5t-32 138.5q0 74 28.5 131.5t83 90.5t129.5 33t124.5 -32t74.5 -88.5t25 -132.5v-22h-416v55h375l-22 -22q0 87 -42 135.5t-119 48.5q-50 0 -89 -23t-61 -64.5t-22 -100.5v-9q0 -63 23.5 -106.5t67 -66.5t101.5 -23q41 0 85 11.5t82 43.5
l28 -52q-38 -33 -91 -48t-104 -15zM309 556q-46 0 -79.5 23.5t-52 67t-21.5 101.5l51 6q4 -69 29 -105.5t73 -36.5q47 0 72.5 36.5t29.5 105.5l51 -6q-2 -58 -21.5 -101.5t-52.5 -67t-79 -23.5z" />
    <glyph glyph-name="Edotaccent" unicode="&#x116;" horiz-adv-x="646" 
d="M113 0v705h451v-64h-381v-252h361v-64h-361v-261h381v-64h-451zM301 809v87h89v-87h-89z" />
    <glyph glyph-name="edotaccent" unicode="&#x117;" horiz-adv-x="598" 
d="M328 -8q-79 0 -138 30t-91 87.5t-32 138.5q0 74 28.5 131.5t83 90.5t129.5 33t124.5 -32t74.5 -88.5t25 -132.5v-22h-416v55h375l-22 -22q0 87 -42 135.5t-119 48.5q-50 0 -89 -23t-61 -64.5t-22 -100.5v-9q0 -63 23.5 -106.5t67 -66.5t101.5 -23q41 0 85 11.5t82 43.5
l28 -52q-38 -33 -91 -48t-104 -15zM267 622v83h84v-83h-84z" />
    <glyph glyph-name="Eogonek" unicode="&#x118;" horiz-adv-x="646" 
d="M113 0v705h451v-64h-381v-252h361v-64h-361v-261h381v-64h-451zM500 -194q-46 0 -76 26t-30 69q0 39 27 75t71 59l28 -35q-15 -7 -31 -19.5t-26.5 -30.5t-10.5 -39q0 -29 16.5 -41t39.5 -12q12 0 25.5 3t26.5 9l17 -47q-13 -7 -32.5 -12t-44.5 -5z" />
    <glyph glyph-name="eogonek" unicode="&#x119;" horiz-adv-x="598" 
d="M328 -8q-79 0 -138 30t-91 87.5t-32 138.5q0 74 28.5 131.5t83 90.5t129.5 33t124.5 -32t74.5 -88.5t25 -132.5v-22h-416v55h375l-22 -22q0 87 -42 135.5t-119 48.5q-50 0 -89 -23t-61 -64.5t-22 -100.5v-9q0 -63 23.5 -106.5t67 -66.5t101.5 -23q41 0 85 11.5t82 43.5
l28 -52q-38 -33 -91 -48t-104 -15zM359 -194q-46 0 -76 26t-30 69q0 39 27 75t71 59l28 -35q-15 -7 -31 -19.5t-26.5 -30.5t-10.5 -39q0 -29 16.5 -41t39.5 -12q12 0 25.5 3t26.5 9l17 -47q-13 -7 -32.5 -12t-44.5 -5z" />
    <glyph glyph-name="Ecaron" unicode="&#x11a;" horiz-adv-x="646" 
d="M113 0v705h451v-64h-381v-252h361v-64h-361v-261h381v-64h-451zM311 765l-125 171h58l102 -122l103 122h57l-125 -171h-70z" />
    <glyph glyph-name="ecaron" unicode="&#x11b;" horiz-adv-x="598" 
d="M328 -8q-79 0 -138 30t-91 87.5t-32 138.5q0 74 28.5 131.5t83 90.5t129.5 33t124.5 -32t74.5 -88.5t25 -132.5v-22h-416v55h375l-22 -22q0 87 -42 135.5t-119 48.5q-50 0 -89 -23t-61 -64.5t-22 -100.5v-9q0 -63 23.5 -106.5t67 -66.5t101.5 -23q41 0 85 11.5t82 43.5
l28 -52q-38 -33 -91 -48t-104 -15zM273 559l-111 194h55l92 -143l93 143h54l-111 -194h-72z" />
    <glyph glyph-name="Gcircumflex" unicode="&#x11c;" horiz-adv-x="779" 
d="M427 -8q-109 0 -186 42t-118 123t-41 196q0 113 39.5 193.5t114 123.5t177.5 43q53 0 100.5 -10.5t87.5 -30.5t68 -50l-30 -54q-46 42 -102 61t-125 19q-122 0 -189.5 -75t-67.5 -220q0 -150 70.5 -223.5t202.5 -73.5q60 0 112.5 9.5t93.5 27.5l-23 -49v258h-186v63h251
v-325q-27 -13 -68.5 -24t-88.5 -17.5t-92 -6.5zM254 765l125 171h70l125 -171h-58l-102 122l-103 -122h-57z" />
    <glyph glyph-name="gcircumflex" unicode="&#x11d;" horiz-adv-x="643" 
d="M307 -188q-58 0 -116.5 18t-98.5 49l25 56q28 -19 59.5 -32.5t65 -21t64.5 -7.5q81 0 127.5 43t46.5 116v94h-5q-18 -51 -65.5 -83t-109.5 -32q-71 0 -123.5 30.5t-81 86t-28.5 129.5q0 73 28.5 128.5t81 86t123.5 30.5q62 0 110 -32.5t67 -87.5h3v111h66v-454
q0 -69 -29.5 -120.5t-83 -79.5t-126.5 -28zM308 73q78 0 124 51t46 134t-46 133.5t-124 50.5q-79 0 -125 -50.5t-46 -133.5t46 -134t125 -51zM161 566l111 187h72l111 -187h-54l-93 136l-92 -136h-55z" />
    <glyph glyph-name="Gbreve" unicode="&#x11e;" horiz-adv-x="779" 
d="M427 -8q-109 0 -186 42t-118 123t-41 196q0 113 39.5 193.5t114 123.5t177.5 43q53 0 100.5 -10.5t87.5 -30.5t68 -50l-30 -54q-46 42 -102 61t-125 19q-122 0 -189.5 -75t-67.5 -220q0 -150 70.5 -223.5t202.5 -73.5q60 0 112.5 9.5t93.5 27.5l-23 -49v258h-186v63h251
v-325q-27 -13 -68.5 -24t-88.5 -17.5t-92 -6.5zM414 760q-70 0 -116 45.5t-52 124.5l51 7q5 -56 35 -89t82 -33q54 0 83.5 34t33.5 88l52 -7q-6 -79 -53 -124.5t-116 -45.5z" />
    <glyph glyph-name="gbreve" unicode="&#x11f;" horiz-adv-x="643" 
d="M307 -188q-58 0 -116.5 18t-98.5 49l25 56q28 -19 59.5 -32.5t65 -21t64.5 -7.5q81 0 127.5 43t46.5 116v94h-5q-18 -51 -65.5 -83t-109.5 -32q-71 0 -123.5 30.5t-81 86t-28.5 129.5q0 73 28.5 128.5t81 86t123.5 30.5q62 0 110 -32.5t67 -87.5h3v111h66v-454
q0 -69 -29.5 -120.5t-83 -79.5t-126.5 -28zM308 73q78 0 124 51t46 134t-46 133.5t-124 50.5q-79 0 -125 -50.5t-46 -133.5t46 -134t125 -51zM308 556q-46 0 -79.5 23.5t-52 67t-21.5 101.5l51 6q4 -69 29 -105.5t73 -36.5q47 0 72.5 36.5t29.5 105.5l51 -6
q-2 -58 -21.5 -101.5t-52.5 -67t-79 -23.5z" />
    <glyph glyph-name="Gdotaccent" unicode="&#x120;" horiz-adv-x="779" 
d="M427 -8q-109 0 -186 42t-118 123t-41 196q0 113 39.5 193.5t114 123.5t177.5 43q53 0 100.5 -10.5t87.5 -30.5t68 -50l-30 -54q-46 42 -102 61t-125 19q-122 0 -189.5 -75t-67.5 -220q0 -150 70.5 -223.5t202.5 -73.5q60 0 112.5 9.5t93.5 27.5l-23 -49v258h-186v63h251
v-325q-27 -13 -68.5 -24t-88.5 -17.5t-92 -6.5zM369 809v87h89v-87h-89z" />
    <glyph glyph-name="gdotaccent" unicode="&#x121;" horiz-adv-x="643" 
d="M307 -188q-58 0 -116.5 18t-98.5 49l25 56q28 -19 59.5 -32.5t65 -21t64.5 -7.5q81 0 127.5 43t46.5 116v94h-5q-18 -51 -65.5 -83t-109.5 -32q-71 0 -123.5 30.5t-81 86t-28.5 129.5q0 73 28.5 128.5t81 86t123.5 30.5q62 0 110 -32.5t67 -87.5h3v111h66v-454
q0 -69 -29.5 -120.5t-83 -79.5t-126.5 -28zM308 73q78 0 124 51t46 134t-46 133.5t-124 50.5q-79 0 -125 -50.5t-46 -133.5t46 -134t125 -51zM266 622v83h84v-83h-84z" />
    <glyph glyph-name="uni0122" unicode="&#x122;" horiz-adv-x="779" 
d="M427 -8q-109 0 -186 42t-118 123t-41 196q0 113 39.5 193.5t114 123.5t177.5 43q53 0 100.5 -10.5t87.5 -30.5t68 -50l-30 -54q-46 42 -102 61t-125 19q-122 0 -189.5 -75t-67.5 -220q0 -150 70.5 -223.5t202.5 -73.5q60 0 112.5 9.5t93.5 27.5l-23 -49v258h-186v63h251
v-325q-27 -13 -68.5 -24t-88.5 -17.5t-92 -6.5zM414 -284l-35 27q24 23 32.5 48t8.5 52l13 -10h-59v85h92v-66q0 -40 -12.5 -74t-39.5 -62z" />
    <glyph glyph-name="uni0123" unicode="&#x123;" horiz-adv-x="643" 
d="M307 -188q-58 0 -116.5 18t-98.5 49l25 56q28 -19 59.5 -32.5t65 -21t64.5 -7.5q81 0 127.5 43t46.5 116v94h-5q-18 -51 -65.5 -83t-109.5 -32q-71 0 -123.5 30.5t-81 86t-28.5 129.5q0 73 28.5 128.5t81 86t123.5 30.5q62 0 110 -32.5t67 -87.5h3v111h66v-454
q0 -69 -29.5 -120.5t-83 -79.5t-126.5 -28zM308 73q78 0 124 51t46 134t-46 133.5t-124 50.5q-79 0 -125 -50.5t-46 -133.5t46 -134t125 -51zM262 578v66q0 40 12.5 74t39.5 62l35 -27q-24 -23 -32.5 -48t-8.5 -52l-13 10h59v-85h-92z" />
    <glyph glyph-name="Hcircumflex" unicode="&#x124;" horiz-adv-x="803" 
d="M113 0v705h70v-315h437v315h70v-705h-70v326h-437v-326h-70zM241 765l125 171h70l125 -171h-58l-102 122l-103 -122h-57z" />
    <glyph glyph-name="hcircumflex" unicode="&#x125;" horiz-adv-x="628" 
d="M98 0v705h68v-318h2q23 53 70.5 84.5t108.5 31.5q62 0 103 -21.5t61.5 -64.5t20.5 -108v-309h-70v305q0 40 -12 70.5t-39.5 47.5t-73.5 17q-49 0 -87 -22t-60 -58.5t-22 -78.5v-281h-70zM144 765l125 171h70l125 -171h-58l-102 122l-103 -122h-57z" />
    <glyph glyph-name="Hbar" unicode="&#x126;" horiz-adv-x="816" 
d="M120 0v517h-104v61h104v127h70v-128h436v128h70v-127h104v-61h-104v-517h-70v323h-436v-323h-70zM190 387h436v131h-436v-131z" />
    <glyph glyph-name="hbar" unicode="&#x127;" horiz-adv-x="637" 
d="M106 0v557h-90v54h90v94h68v-94h196v-54h-196v-180h3q22 54 69.5 85t108.5 31q93 0 139.5 -48.5t46.5 -144.5v-300h-70v296q0 40 -12 70.5t-39.5 47.5t-73.5 17q-49 0 -87.5 -22.5t-60.5 -58.5t-22 -78v-272h-70z" />
    <glyph glyph-name="Itilde" unicode="&#x128;" horiz-adv-x="296" 
d="M113 0v705h70v-705h-70zM-9 783l-50 3q6 64 37 98.5t80 34.5q28 0 54 -13t51 -30q22 -14 40.5 -24t35.5 -10q29 0 45 20t23 59l49 -2q-6 -64 -37 -98.5t-80 -34.5q-28 0 -54 13.5t-51 29.5q-22 15 -41 24.5t-36 9.5q-28 0 -44 -20t-22 -60z" />
    <glyph glyph-name="itilde" unicode="&#x129;" horiz-adv-x="265" 
d="M98 0v494h70v-494h-70zM1 599l-46 3q5 62 32.5 96.5t70.5 34.5q26 0 46.5 -13.5t39.5 -30.5q16 -14 30 -24t29 -10q26 0 40 20.5t20 59.5l46 -3q-5 -62 -32.5 -96.5t-69.5 -34.5q-27 0 -47.5 14t-39.5 30q-16 15 -30 24t-29 9q-26 0 -40 -20t-20 -59z" />
    <glyph glyph-name="Imacron" unicode="&#x12a;" horiz-adv-x="296" 
d="M113 0v705h70v-705h-70zM-15 816v57h326v-57h-326z" />
    <glyph glyph-name="imacron" unicode="&#x12b;" horiz-adv-x="265" 
d="M98 0v494h70v-494h-70zM-25 636v56h314v-56h-314z" />
    <glyph glyph-name="Ibreve" unicode="&#x12c;" horiz-adv-x="296" 
d="M113 0v705h70v-705h-70zM148 760q-70 0 -116 45.5t-52 124.5l51 7q5 -56 35 -89t82 -33q54 0 83.5 34t33.5 88l52 -7q-6 -79 -53 -124.5t-116 -45.5z" />
    <glyph glyph-name="ibreve" unicode="&#x12d;" horiz-adv-x="265" 
d="M98 0v494h70v-494h-70zM132 556q-46 0 -79.5 23.5t-52 67t-21.5 101.5l51 6q4 -69 29 -105.5t73 -36.5q47 0 72.5 36.5t29.5 105.5l51 -6q-2 -58 -21.5 -101.5t-52.5 -67t-79 -23.5z" />
    <glyph glyph-name="Iogonek" unicode="&#x12e;" horiz-adv-x="296" 
d="M113 0v705h70v-705h-70zM158 -194q-46 0 -76 26t-30 69q0 39 27 75t71 59l28 -35q-15 -7 -31 -19.5t-26.5 -30.5t-10.5 -39q0 -29 16.5 -41t39.5 -12q12 0 25.5 3t26.5 9l17 -47q-13 -7 -32.5 -12t-44.5 -5z" />
    <glyph glyph-name="iogonek" unicode="&#x12f;" horiz-adv-x="265" 
d="M98 0v494h70v-494h-70zM87 621v84h90v-84h-90zM142 -194q-46 0 -76 26t-30 69q0 39 27 75t71 59l28 -35q-15 -7 -31 -19.5t-26.5 -30.5t-10.5 -39q0 -29 16.5 -41t39.5 -12q12 0 25.5 3t26.5 9l17 -47q-13 -7 -32.5 -12t-44.5 -5z" />
    <glyph glyph-name="Idotaccent" unicode="&#x130;" horiz-adv-x="296" 
d="M113 0v705h70v-705h-70zM103 809v87h89v-87h-89z" />
    <glyph glyph-name="dotlessi" unicode="&#x131;" horiz-adv-x="265" 
d="M98 0v494h70v-494h-70z" />
    <glyph glyph-name="IJ" unicode="&#x132;" horiz-adv-x="690" 
d="M113 0v705h70v-705h-70zM308 -7l-5 64l79 4q36 2 64 18.5t44.5 46t16.5 67.5v512h70v-516q0 -53 -24.5 -95.5t-67 -67.5t-96.5 -29z" />
    <glyph glyph-name="ij" unicode="&#x133;" horiz-adv-x="508" 
d="M88 621v84h89v-84h-89zM98 0v494h70v-494h-70zM343 621v84h89v-84h-89zM209 -193l-5 61l49 6q48 5 74 30.5t26 80.5v509h70v-507q0 -41 -10.5 -71.5t-30.5 -52t-50 -34t-71 -17.5z" />
    <glyph glyph-name="Jcircumflex" unicode="&#x134;" horiz-adv-x="394" 
d="M12 -7l-5 64l79 4q36 2 64 18.5t44.5 46t16.5 67.5v512h70v-516q0 -53 -24.5 -95.5t-67 -67.5t-96.5 -29zM86 765l125 171h70l125 -171h-58l-102 122l-103 -122h-57z" />
    <glyph glyph-name="jcircumflex" unicode="&#x135;" horiz-adv-x="243" 
d="M-56 -193l-5 61l49 6q48 5 74 30.5t26 80.5v509h70v-507q0 -41 -10.5 -71.5t-30.5 -52t-50 -34t-71 -17.5zM-24 566l111 187h72l111 -187h-54l-93 136l-92 -136h-55z" />
    <glyph glyph-name="uni0136" unicode="&#x136;" horiz-adv-x="659" 
d="M113 0v705h70v-323h4l348 323h92l-396 -367l5 42l416 -380h-98l-367 335h-4v-335h-70zM336 -284l-35 27q24 23 32.5 48t8.5 52l13 -10h-59v85h92v-66q0 -40 -12.5 -74t-39.5 -62z" />
    <glyph glyph-name="uni0137" unicode="&#x137;" horiz-adv-x="532" 
d="M98 0v705h70v-434h4l236 223h90l-276 -257l2 35l303 -272h-93l-262 233h-4v-233h-70zM260 -284l-35 27q24 23 32.5 48t8.5 52l13 -10h-59v85h92v-66q0 -40 -12.5 -74t-39.5 -62z" />
    <glyph glyph-name="kgreenlandic" unicode="&#x138;" horiz-adv-x="532" 
d="M98 0v494h70v-223h4l236 223h90l-276 -257l2 35l303 -272h-93l-262 233h-4v-233h-70z" />
    <glyph glyph-name="Lacute" unicode="&#x139;" horiz-adv-x="582" 
d="M113 0v705h70v-641h366v-64h-436zM119 765l118 171h89l-146 -171h-61z" />
    <glyph glyph-name="lacute" unicode="&#x13a;" horiz-adv-x="319" 
d="M236 -8q-64 0 -101 39.5t-37 109.5v564h70v-555q0 -30 9.5 -52.5t27 -34t41.5 -11.5q15 0 29.5 2t29.5 6l1 -59q-16 -4 -32.5 -6.5t-37.5 -2.5zM103 765l118 171h89l-146 -171h-61z" />
    <glyph glyph-name="uni013B" unicode="&#x13b;" horiz-adv-x="582" 
d="M113 0v705h70v-641h366v-64h-436zM330 -284l-35 27q24 23 32.5 48t8.5 52l13 -10h-59v85h92v-66q0 -40 -12.5 -74t-39.5 -62z" />
    <glyph glyph-name="uni013C" unicode="&#x13c;" horiz-adv-x="319" 
d="M236 -8q-64 0 -101 39.5t-37 109.5v564h70v-555q0 -30 9.5 -52.5t27 -34t41.5 -11.5q15 0 29.5 2t29.5 6l1 -59q-16 -4 -32.5 -6.5t-37.5 -2.5zM195 -283l-35 27q24 23 32.5 48t8.5 52l13 -10h-59v85h92v-66q0 -40 -12.5 -74t-39.5 -62z" />
    <glyph glyph-name="Lcaron" unicode="&#x13d;" horiz-adv-x="582" 
d="M113 0v705h70v-641h366v-64h-436zM301 481v224h71l-20 -224h-51z" />
    <glyph glyph-name="lcaron" unicode="&#x13e;" horiz-adv-x="319" 
d="M236 -8q-64 0 -101 39.5t-37 109.5v564h70v-555q0 -30 9.5 -52.5t27 -34t41.5 -11.5q15 0 29.5 2t29.5 6l1 -59q-16 -4 -32.5 -6.5t-37.5 -2.5zM217 515v190h65l-23 -190h-42z" />
    <glyph glyph-name="Ldot" unicode="&#x13f;" horiz-adv-x="582" 
d="M113 0v705h70v-641h366v-64h-436zM371 347v83h93v-83h-93z" />
    <glyph glyph-name="ldot" unicode="&#x140;" horiz-adv-x="337" 
d="M236 -8q-64 0 -101 39.5t-37 109.5v564h70v-555q0 -30 9.5 -52.5t27 -34t41.5 -11.5q15 0 29.5 2t29.5 6l1 -59q-16 -4 -32.5 -6.5t-37.5 -2.5zM254 316v83h93v-83h-93z" />
    <glyph glyph-name="Lslash" unicode="&#x141;" horiz-adv-x="582" 
d="M113 0v705h70v-641h366v-64h-436zM32 257l-31 54l359 205l30 -54z" />
    <glyph glyph-name="lslash" unicode="&#x142;" horiz-adv-x="319" 
d="M236 -8q-64 0 -101 39.5t-37 109.5v564h70v-555q0 -30 9.5 -52.5t27 -34t41.5 -11.5q15 0 29.5 2t29.5 6l1 -59q-16 -4 -32.5 -6.5t-37.5 -2.5zM29 257l-30 52l256 149l30 -53z" />
    <glyph glyph-name="Nacute" unicode="&#x143;" horiz-adv-x="812" 
d="M113 0v705h66l452 -599v0v599h68v-705h-67l-452 597v0v-597h-67zM380 765l118 171h89l-146 -171h-61z" />
    <glyph glyph-name="nacute" unicode="&#x144;" horiz-adv-x="628" 
d="M98 0v494h65v-109h2q25 54 73 86t109 32q62 0 103 -21.5t61.5 -64.5t20.5 -108v-309h-70v305q0 40 -12 70.5t-39 47.5t-74 17q-49 0 -87.5 -22t-60 -58.5t-21.5 -78.5v-281h-70zM297 559l104 194h81l-129 -194h-56z" />
    <glyph glyph-name="uni0145" unicode="&#x145;" horiz-adv-x="812" 
d="M113 0v705h66l452 -599v0v599h68v-705h-67l-452 597v0v-597h-67zM403 -284l-35 27q24 23 32.5 48t8.5 52l13 -10h-59v85h92v-66q0 -40 -12.5 -74t-39.5 -62z" />
    <glyph glyph-name="uni0146" unicode="&#x146;" horiz-adv-x="628" 
d="M98 0v494h65v-109h2q25 54 73 86t109 32q62 0 103 -21.5t61.5 -64.5t20.5 -108v-309h-70v305q0 40 -12 70.5t-39 47.5t-74 17q-49 0 -87.5 -22t-60 -58.5t-21.5 -78.5v-281h-70zM304 -284l-35 27q24 23 32.5 48t8.5 52l13 -10h-59v85h92v-66q0 -40 -12.5 -74t-39.5 -62z
" />
    <glyph glyph-name="Ncaron" unicode="&#x147;" horiz-adv-x="812" 
d="M113 0v705h66l452 -599v0v599h68v-705h-67l-452 597v0v-597h-67zM375 765l-125 171h58l102 -122l103 122h57l-125 -171h-70z" />
    <glyph glyph-name="ncaron" unicode="&#x148;" horiz-adv-x="628" 
d="M98 0v494h65v-109h2q25 54 73 86t109 32q62 0 103 -21.5t61.5 -64.5t20.5 -108v-309h-70v305q0 40 -12 70.5t-39 47.5t-74 17q-49 0 -87.5 -22t-60 -58.5t-21.5 -78.5v-281h-70zM290 559l-111 194h55l92 -143l93 143h54l-111 -194h-72z" />
    <glyph glyph-name="napostrophe" unicode="&#x149;" horiz-adv-x="653" 
d="M44 549l-35 27q24 23 32 48t8 51l13 -10h-59v85h94v-65q0 -40 -12.5 -74t-40.5 -62zM123 0v494h65v-109h2q25 54 73 86t109 32q62 0 103 -21.5t61.5 -64.5t20.5 -108v-309h-70v305q0 40 -12 70.5t-39 47.5t-74 17q-49 0 -87.5 -22t-60 -58.5t-21.5 -78.5v-281h-70z" />
    <glyph glyph-name="Eng" unicode="&#x14a;" horiz-adv-x="812" 
d="M494 -192l-5 60l42 5q48 5 75 29t27 79v64l7 -55l-460 607v0v-597h-67v705h65l453 -599v0v599h68v-719q0 -30 -6.5 -55.5t-19 -46t-31.5 -35.5t-45.5 -24.5t-59.5 -12.5z" />
    <glyph glyph-name="eng" unicode="&#x14b;" horiz-adv-x="628" 
d="M319 -193l-5 61l49 6q48 5 73.5 30.5t25.5 80.5v320q0 40 -12 70.5t-39 47.5t-75 17q-49 0 -87 -22t-59.5 -58.5t-21.5 -78.5v-281h-70v494h65v-109h2q25 54 72 86t108 32q62 0 104 -21.5t62.5 -64.5t20.5 -108v-322q0 -41 -10 -71.5t-30 -52t-50.5 -34t-70.5 -17.5z" />
    <glyph glyph-name="Omacron" unicode="&#x14c;" horiz-adv-x="807" 
d="M403 -8q-74 0 -133.5 24.5t-101.5 71.5t-64 113.5t-22 150.5q0 85 22 152t63.5 113.5t101 71t134.5 24.5q76 0 135.5 -24.5t101.5 -71t63.5 -113t21.5 -151.5q0 -84 -22 -151t-63.5 -114t-101 -71.5t-135.5 -24.5zM403 57q79 0 134.5 33.5t85 99.5t29.5 163t-29 162.5
t-85 99t-135 33.5q-78 0 -133.5 -33.5t-85 -99t-29.5 -162.5q0 -96 29.5 -162t85 -100t133.5 -34zM240 816v57h326v-57h-326z" />
    <glyph glyph-name="omacron" unicode="&#x14d;" horiz-adv-x="613" 
d="M307 -8q-74 0 -128 31.5t-83 89.5t-29 135t29.5 134t83 89t127.5 32t127.5 -32t83 -89t29.5 -134t-29.5 -135t-83 -89.5t-127.5 -31.5zM306 54q79 0 125 53t46 141t-45.5 140t-124.5 52t-124.5 -52t-45.5 -140t45.5 -141t123.5 -53zM150 636v56h314v-56h-314z" />
    <glyph glyph-name="Obreve" unicode="&#x14e;" horiz-adv-x="807" 
d="M403 -8q-74 0 -133.5 24.5t-101.5 71.5t-64 113.5t-22 150.5q0 85 22 152t63.5 113.5t101 71t134.5 24.5q76 0 135.5 -24.5t101.5 -71t63.5 -113t21.5 -151.5q0 -84 -22 -151t-63.5 -114t-101 -71.5t-135.5 -24.5zM403 57q79 0 134.5 33.5t85 99.5t29.5 163t-29 162.5
t-85 99t-135 33.5q-78 0 -133.5 -33.5t-85 -99t-29.5 -162.5q0 -96 29.5 -162t85 -100t133.5 -34zM403 760q-70 0 -116 45.5t-52 124.5l51 7q5 -56 35 -89t82 -33q54 0 83.5 34t33.5 88l52 -7q-6 -79 -53 -124.5t-116 -45.5z" />
    <glyph glyph-name="obreve" unicode="&#x14f;" horiz-adv-x="613" 
d="M307 -8q-74 0 -128 31.5t-83 89.5t-29 135t29.5 134t83 89t127.5 32t127.5 -32t83 -89t29.5 -134t-29.5 -135t-83 -89.5t-127.5 -31.5zM306 54q79 0 125 53t46 141t-45.5 140t-124.5 52t-124.5 -52t-45.5 -140t45.5 -141t123.5 -53zM307 556q-46 0 -79.5 23.5t-52 67
t-21.5 101.5l51 6q4 -69 29 -105.5t73 -36.5q47 0 72.5 36.5t29.5 105.5l51 -6q-2 -58 -21.5 -101.5t-52.5 -67t-79 -23.5z" />
    <glyph glyph-name="Ohungarumlaut" unicode="&#x150;" horiz-adv-x="807" 
d="M403 -8q-74 0 -133.5 24.5t-101.5 71.5t-64 113.5t-22 150.5q0 85 22 152t63.5 113.5t101 71t134.5 24.5q76 0 135.5 -24.5t101.5 -71t63.5 -113t21.5 -151.5q0 -84 -22 -151t-63.5 -114t-101 -71.5t-135.5 -24.5zM403 57q79 0 134.5 33.5t85 99.5t29.5 163t-29 162.5
t-85 99t-135 33.5q-78 0 -133.5 -33.5t-85 -99t-29.5 -162.5q0 -96 29.5 -162t85 -100t133.5 -34zM317 765l85 171h80l-118 -171h-47zM442 765l90 171h79l-122 -171h-47z" />
    <glyph glyph-name="ohungarumlaut" unicode="&#x151;" horiz-adv-x="613" 
d="M307 -8q-74 0 -128 31.5t-83 89.5t-29 135t29.5 134t83 89t127.5 32t127.5 -32t83 -89t29.5 -134t-29.5 -135t-83 -89.5t-127.5 -31.5zM306 54q79 0 125 53t46 141t-45.5 140t-124.5 52t-124.5 -52t-45.5 -140t45.5 -141t123.5 -53zM348 560l54 193h70l-82 -193h-42z
M223 560l55 193h70l-82 -193h-43z" />
    <glyph glyph-name="OE" unicode="&#x152;" horiz-adv-x="1125" 
d="M432 0q-85 0 -150.5 23.5t-109.5 69t-67 110.5t-23 149t23 149.5t67.5 111t110 69t149.5 23.5h611v-64h-382v-252h362v-64h-362v-261h382v-64h-611zM435 64h156v577h-156q-138 0 -209 -71t-71 -218t71 -217.5t209 -70.5z" />
    <glyph glyph-name="oe" unicode="&#x153;" horiz-adv-x="1007" 
d="M306 -8q-73 0 -126.5 32t-83 89.5t-29.5 134.5q0 76 29.5 133.5t83 89.5t126.5 32q71 0 127.5 -39t77.5 -109v0q21 69 76.5 108.5t133.5 39.5q69 0 118 -31.5t75.5 -85.5t26.5 -122v-36h-415v55h374l-21 -21q0 52 -17.5 93t-52.5 65.5t-89 24.5q-52 0 -91 -23t-61 -64.5
t-22 -100.5v-10q0 -67 24.5 -110t67 -64t96.5 -21q48 0 90 11.5t81 43.5l27 -52q-37 -33 -89 -48t-110 -15q-54 0 -98.5 15t-76 47.5t-48.5 84.5v0q-12 -41 -40.5 -74t-70.5 -53t-93 -20zM306 54q52 0 90 24t59.5 67.5t21.5 102.5t-21.5 102t-59.5 66.5t-89 23.5
q-52 0 -90 -23.5t-59 -66.5t-21 -102t21 -102.5t59.5 -67.5t88.5 -24z" />
    <glyph glyph-name="Racute" unicode="&#x154;" horiz-adv-x="722" 
d="M113 0v705h281q112 0 173 -50.5t61 -148.5q0 -55 -21 -95.5t-59 -65t-90 -32.5l2 -2l6 -2q22 -6 39 -21.5t35 -49.5l126 -238h-77l-118 223q-16 31 -34.5 47.5t-44 22.5t-61.5 6h-148v-299h-70zM183 361h211q85 0 123.5 35.5t38.5 108.5t-40.5 105t-127.5 32h-205v-281z
M332 765l118 171h89l-146 -171h-61z" />
    <glyph glyph-name="racute" unicode="&#x155;" horiz-adv-x="420" 
d="M98 0v494h64v-109h3q19 52 66 82t112 34l44 2l7 -65l-69 -6q-73 -6 -115 -48t-42 -102v-282h-70zM206 559l104 194h81l-129 -194h-56z" />
    <glyph glyph-name="uni0156" unicode="&#x156;" horiz-adv-x="722" 
d="M113 0v705h281q112 0 173 -50.5t61 -148.5q0 -55 -21 -95.5t-59 -65t-90 -32.5l2 -2l6 -2q22 -6 39 -21.5t35 -49.5l126 -238h-77l-118 223q-16 31 -34.5 47.5t-44 22.5t-61.5 6h-148v-299h-70zM183 361h211q85 0 123.5 35.5t38.5 108.5t-40.5 105t-127.5 32h-205v-281z
M356 -284l-35 27q24 23 32.5 48t8.5 52l13 -10h-59v85h92v-66q0 -40 -12.5 -74t-39.5 -62z" />
    <glyph glyph-name="uni0157" unicode="&#x157;" horiz-adv-x="420" 
d="M98 0v494h64v-109h3q19 52 66 82t112 34l44 2l7 -65l-69 -6q-73 -6 -115 -48t-42 -102v-282h-70zM127 -284l-35 27q24 23 32.5 48t8.5 52l13 -10h-59v85h92v-66q0 -40 -12.5 -74t-39.5 -62z" />
    <glyph glyph-name="Rcaron" unicode="&#x158;" horiz-adv-x="722" 
d="M113 0v705h281q112 0 173 -50.5t61 -148.5q0 -55 -21 -95.5t-59 -65t-90 -32.5l2 -2l6 -2q22 -6 39 -21.5t35 -49.5l126 -238h-77l-118 223q-16 31 -34.5 47.5t-44 22.5t-61.5 6h-148v-299h-70zM183 361h211q85 0 123.5 35.5t38.5 108.5t-40.5 105t-127.5 32h-205v-281z
M327 765l-125 171h58l102 -122l103 122h57l-125 -171h-70z" />
    <glyph glyph-name="rcaron" unicode="&#x159;" horiz-adv-x="420" 
d="M98 0v494h64v-109h3q19 52 66 82t112 34l44 2l7 -65l-69 -6q-73 -6 -115 -48t-42 -102v-282h-70zM199 559l-111 194h55l92 -143l93 143h54l-111 -194h-72z" />
    <glyph glyph-name="Sacute" unicode="&#x15a;" horiz-adv-x="657" 
d="M344 -8q-59 0 -111 8.5t-95 27.5t-74 47l28 59q36 -30 74.5 -47t83 -23.5t94.5 -6.5q85 0 133 36t48 100q0 33 -15.5 55t-48.5 36t-85 24l-117 24q-96 19 -137.5 65.5t-41.5 117.5q0 60 34.5 104.5t95 69t137.5 24.5q50 0 93 -9.5t78.5 -29t64.5 -48.5l-29 -59
q-44 45 -94.5 63t-113.5 18q-55 0 -99.5 -15.5t-70.5 -45t-26 -74.5q0 -47 29.5 -75t100.5 -42l116 -22q103 -21 151 -65t48 -114q0 -58 -31 -104.5t-87.5 -72.5t-132.5 -26zM314 765l118 171h89l-146 -171h-61z" />
    <glyph glyph-name="sacute" unicode="&#x15b;" horiz-adv-x="551" 
d="M277 -8q-40 0 -79.5 7.5t-73 21.5t-56.5 35l26 52q26 -21 57 -33.5t64 -17.5t63 -5q65 0 103 21t38 57q0 33 -22 50.5t-72 26.5l-103 19q-69 12 -104.5 45t-35.5 89q0 43 24.5 75t69 50t105.5 18q35 0 72.5 -7.5t70 -21.5t51.5 -35l-27 -51q-21 20 -49.5 32t-59 17.5
t-59.5 5.5q-60 0 -95.5 -22t-35.5 -59q0 -32 20.5 -49.5t66.5 -26.5l101 -19q75 -14 111.5 -46t36.5 -88q0 -43 -25.5 -75t-72.5 -49t-110 -17zM250 559l104 194h81l-129 -194h-56z" />
    <glyph glyph-name="Scircumflex" unicode="&#x15c;" horiz-adv-x="657" 
d="M344 -8q-59 0 -111 8.5t-95 27.5t-74 47l28 59q36 -30 74.5 -47t83 -23.5t94.5 -6.5q85 0 133 36t48 100q0 33 -15.5 55t-48.5 36t-85 24l-117 24q-96 19 -137.5 65.5t-41.5 117.5q0 60 34.5 104.5t95 69t137.5 24.5q50 0 93 -9.5t78.5 -29t64.5 -48.5l-29 -59
q-44 45 -94.5 63t-113.5 18q-55 0 -99.5 -15.5t-70.5 -45t-26 -74.5q0 -47 29.5 -75t100.5 -42l116 -22q103 -21 151 -65t48 -114q0 -58 -31 -104.5t-87.5 -72.5t-132.5 -26zM184 765l125 171h70l125 -171h-58l-102 122l-103 -122h-57z" />
    <glyph glyph-name="scircumflex" unicode="&#x15d;" horiz-adv-x="551" 
d="M277 -8q-40 0 -79.5 7.5t-73 21.5t-56.5 35l26 52q26 -21 57 -33.5t64 -17.5t63 -5q65 0 103 21t38 57q0 33 -22 50.5t-72 26.5l-103 19q-69 12 -104.5 45t-35.5 89q0 43 24.5 75t69 50t105.5 18q35 0 72.5 -7.5t70 -21.5t51.5 -35l-27 -51q-21 20 -49.5 32t-59 17.5
t-59.5 5.5q-60 0 -95.5 -22t-35.5 -59q0 -32 20.5 -49.5t66.5 -26.5l101 -19q75 -14 111.5 -46t36.5 -88q0 -43 -25.5 -75t-72.5 -49t-110 -17zM132 566l111 187h72l111 -187h-54l-93 136l-92 -136h-55z" />
    <glyph glyph-name="Scedilla" unicode="&#x15e;" horiz-adv-x="657" 
d="M344 -8q-59 0 -111 8.5t-95 27.5t-74 47l28 59q36 -30 74.5 -47t83 -23.5t94.5 -6.5q85 0 133 36t48 100q0 33 -15.5 55t-48.5 36t-85 24l-117 24q-96 19 -137.5 65.5t-41.5 117.5q0 60 34.5 104.5t95 69t137.5 24.5q50 0 93 -9.5t78.5 -29t64.5 -48.5l-29 -59
q-44 45 -94.5 63t-113.5 18q-55 0 -99.5 -15.5t-70.5 -45t-26 -74.5q0 -47 29.5 -75t100.5 -42l116 -22q103 -21 151 -65t48 -114q0 -58 -31 -104.5t-87.5 -72.5t-132.5 -26zM332 -193q-24 0 -48.5 5t-39.5 14l12 43q19 -9 35.5 -13t41.5 -4q27 0 43.5 9t16.5 28
q0 15 -10.5 22.5t-29.5 7.5q-9 0 -21.5 -2t-28.5 -7l-17 15l15 95h48l-13 -77l-22 8q11 3 25 5t26 2q23 0 41.5 -7.5t30.5 -23t12 -38.5q0 -25 -15.5 -43.5t-41.5 -28.5t-60 -10z" />
    <glyph glyph-name="scedilla" unicode="&#x15f;" horiz-adv-x="551" 
d="M277 -8q-40 0 -79.5 7.5t-73 21.5t-56.5 35l26 52q26 -21 57 -33.5t64 -17.5t63 -5q65 0 103 21t38 57q0 33 -22 50.5t-72 26.5l-103 19q-69 12 -104.5 45t-35.5 89q0 43 24.5 75t69 50t105.5 18q35 0 72.5 -7.5t70 -21.5t51.5 -35l-27 -51q-21 20 -49.5 32t-59 17.5
t-59.5 5.5q-60 0 -95.5 -22t-35.5 -59q0 -32 20.5 -49.5t66.5 -26.5l101 -19q75 -14 111.5 -46t36.5 -88q0 -43 -25.5 -75t-72.5 -49t-110 -17zM280 -193q-24 0 -48.5 5t-39.5 14l12 43q19 -9 35.5 -13t41.5 -4q27 0 43.5 9t16.5 28q0 15 -10.5 22.5t-29.5 7.5
q-9 0 -21.5 -2t-28.5 -7l-17 15l15 95h48l-13 -77l-22 8q11 3 25 5t26 2q23 0 41.5 -7.5t30.5 -23t12 -38.5q0 -25 -15.5 -43.5t-41.5 -28.5t-60 -10z" />
    <glyph glyph-name="Scaron" unicode="&#x160;" horiz-adv-x="657" 
d="M344 -8q-59 0 -111 8.5t-95 27.5t-74 47l28 59q36 -30 74.5 -47t83 -23.5t94.5 -6.5q85 0 133 36t48 100q0 33 -15.5 55t-48.5 36t-85 24l-117 24q-96 19 -137.5 65.5t-41.5 117.5q0 60 34.5 104.5t95 69t137.5 24.5q50 0 93 -9.5t78.5 -29t64.5 -48.5l-29 -59
q-44 45 -94.5 63t-113.5 18q-55 0 -99.5 -15.5t-70.5 -45t-26 -74.5q0 -47 29.5 -75t100.5 -42l116 -22q103 -21 151 -65t48 -114q0 -58 -31 -104.5t-87.5 -72.5t-132.5 -26zM309 765l-125 171h58l102 -122l103 122h57l-125 -171h-70z" />
    <glyph glyph-name="scaron" unicode="&#x161;" horiz-adv-x="551" 
d="M277 -8q-40 0 -79.5 7.5t-73 21.5t-56.5 35l26 52q26 -21 57 -33.5t64 -17.5t63 -5q65 0 103 21t38 57q0 33 -22 50.5t-72 26.5l-103 19q-69 12 -104.5 45t-35.5 89q0 43 24.5 75t69 50t105.5 18q35 0 72.5 -7.5t70 -21.5t51.5 -35l-27 -51q-21 20 -49.5 32t-59 17.5
t-59.5 5.5q-60 0 -95.5 -22t-35.5 -59q0 -32 20.5 -49.5t66.5 -26.5l101 -19q75 -14 111.5 -46t36.5 -88q0 -43 -25.5 -75t-72.5 -49t-110 -17zM243 559l-111 194h55l92 -143l93 143h54l-111 -194h-72z" />
    <glyph glyph-name="uni0162" unicode="&#x162;" horiz-adv-x="640" 
d="M285 0v641h-259v64h588v-64h-259v-641h-70zM324 -193q-24 0 -48.5 5t-39.5 14l12 43q19 -9 35.5 -13t41.5 -4q27 0 43.5 9t16.5 28q0 15 -10.5 22.5t-29.5 7.5q-9 0 -21.5 -2t-28.5 -7l-17 15l15 95h48l-13 -77l-22 8q11 3 25 5t26 2q23 0 41.5 -7.5t30.5 -23t12 -38.5
q0 -25 -15.5 -43.5t-41.5 -28.5t-60 -10z" />
    <glyph glyph-name="uni0163" unicode="&#x163;" horiz-adv-x="422" 
d="M296 -8q-83 0 -127 45t-44 127v270h-102v60h104v149h68v-149h186v-60h-186v-261q0 -61 27 -90t82 -29q23 0 44 4.5t40 13.5l12 -57q-19 -12 -47.5 -17.5t-56.5 -5.5zM257 -201q-24 0 -48.5 5t-39.5 14l12 43q19 -9 35.5 -13t41.5 -4q27 0 43.5 9t16.5 28q0 15 -10.5 22.5
t-29.5 7.5q-9 0 -21.5 -2t-28.5 -7l-17 15l15 95h48l-13 -77l-22 8q11 3 25 5t26 2q23 0 41.5 -7.5t30.5 -23t12 -38.5q0 -25 -15.5 -43.5t-41.5 -28.5t-60 -10z" />
    <glyph glyph-name="Tcaron" unicode="&#x164;" horiz-adv-x="640" 
d="M285 0v641h-259v64h588v-64h-259v-641h-70zM285 765l-125 171h58l102 -122l103 122h57l-125 -171h-70z" />
    <glyph glyph-name="tcaron" unicode="&#x165;" horiz-adv-x="422" 
d="M296 -8q-83 0 -127 45t-44 127v270h-102v60h104v149h68v-149h186v-60h-186v-261q0 -61 27 -90t82 -29q23 0 44 4.5t40 13.5l12 -57q-19 -12 -47.5 -17.5t-56.5 -5.5zM250 545v160h65l-22 -160h-43z" />
    <glyph glyph-name="Tbar" unicode="&#x166;" horiz-adv-x="640" 
d="M285 0v641h-259v64h588v-64h-259v-641h-70zM136 321v61h368v-61h-368z" />
    <glyph glyph-name="tbar" unicode="&#x167;" horiz-adv-x="422" 
d="M296 -8q-83 0 -127 45t-44 127v270h-102v60h104v149h68v-149h186v-60h-186v-261q0 -61 27 -90t82 -29q23 0 44 4.5t40 13.5l12 -57q-19 -12 -47.5 -17.5t-56.5 -5.5zM44 253v54h273v-54h-273z" />
    <glyph glyph-name="Utilde" unicode="&#x168;" horiz-adv-x="756" 
d="M378 -8q-135 0 -205 70.5t-70 207.5v435h70v-437q0 -109 52.5 -159t152.5 -50t152 50t52 159v437h71v-435q0 -137 -70.5 -207.5t-204.5 -70.5zM221 783l-50 3q6 64 37 98.5t80 34.5q28 0 54 -13t51 -30q22 -14 40.5 -24t35.5 -10q29 0 45 20t23 59l49 -2
q-6 -64 -37 -98.5t-80 -34.5q-28 0 -54 13.5t-51 29.5q-22 15 -41 24.5t-36 9.5q-28 0 -44 -20t-22 -60z" />
    <glyph glyph-name="utilde" unicode="&#x169;" horiz-adv-x="624" 
d="M283 -8q-61 0 -103 21.5t-63 64.5t-21 106v310h70v-306q0 -38 12 -69t40 -48t74 -17q47 0 84.5 22.5t58.5 58.5t21 78v281h70v-494h-65v110h-2q-27 -55 -70 -86.5t-106 -31.5zM180 599l-46 3q5 62 32.5 96.5t70.5 34.5q26 0 46.5 -13.5t39.5 -30.5q16 -14 30 -24t29 -10
q26 0 40 20.5t20 59.5l46 -3q-5 -62 -32.5 -96.5t-69.5 -34.5q-27 0 -47.5 14t-39.5 30q-16 15 -30 24t-29 9q-26 0 -40 -20t-20 -59z" />
    <glyph glyph-name="Umacron" unicode="&#x16a;" horiz-adv-x="756" 
d="M378 -8q-135 0 -205 70.5t-70 207.5v435h70v-437q0 -109 52.5 -159t152.5 -50t152 50t52 159v437h71v-435q0 -137 -70.5 -207.5t-204.5 -70.5zM215 816v57h326v-57h-326z" />
    <glyph glyph-name="umacron" unicode="&#x16b;" horiz-adv-x="624" 
d="M283 -8q-61 0 -103 21.5t-63 64.5t-21 106v310h70v-306q0 -38 12 -69t40 -48t74 -17q47 0 84.5 22.5t58.5 58.5t21 78v281h70v-494h-65v110h-2q-27 -55 -70 -86.5t-106 -31.5zM154 636v56h314v-56h-314z" />
    <glyph glyph-name="Ubreve" unicode="&#x16c;" horiz-adv-x="756" 
d="M378 -8q-135 0 -205 70.5t-70 207.5v435h70v-437q0 -109 52.5 -159t152.5 -50t152 50t52 159v437h71v-435q0 -137 -70.5 -207.5t-204.5 -70.5zM378 760q-70 0 -116 45.5t-52 124.5l51 7q5 -56 35 -89t82 -33q54 0 83.5 34t33.5 88l52 -7q-6 -79 -53 -124.5t-116 -45.5z
" />
    <glyph glyph-name="ubreve" unicode="&#x16d;" horiz-adv-x="624" 
d="M283 -8q-61 0 -103 21.5t-63 64.5t-21 106v310h70v-306q0 -38 12 -69t40 -48t74 -17q47 0 84.5 22.5t58.5 58.5t21 78v281h70v-494h-65v110h-2q-27 -55 -70 -86.5t-106 -31.5zM311 556q-46 0 -79.5 23.5t-52 67t-21.5 101.5l51 6q4 -69 29 -105.5t73 -36.5
q47 0 72.5 36.5t29.5 105.5l51 -6q-2 -58 -21.5 -101.5t-52.5 -67t-79 -23.5z" />
    <glyph glyph-name="Uring" unicode="&#x16e;" horiz-adv-x="756" 
d="M378 -8q-135 0 -205 70.5t-70 207.5v435h70v-437q0 -109 52.5 -159t152.5 -50t152 50t52 159v437h71v-435q0 -137 -70.5 -207.5t-204.5 -70.5zM378 758q-34 0 -61 15.5t-42.5 41t-15.5 57.5t15.5 58t42.5 41t61 15t61 -15t42.5 -41t15.5 -58t-15.5 -57.5t-42.5 -41
t-61 -15.5zM378 800q32 0 52.5 20.5t20.5 52.5q0 31 -20.5 51t-52.5 20q-31 0 -52 -20t-21 -51q0 -32 20.5 -52.5t52.5 -20.5z" />
    <glyph glyph-name="uring" unicode="&#x16f;" horiz-adv-x="624" 
d="M283 -8q-61 0 -103 21.5t-63 64.5t-21 106v310h70v-306q0 -38 12 -69t40 -48t74 -17q47 0 84.5 22.5t58.5 58.5t21 78v281h70v-494h-65v110h-2q-27 -55 -70 -86.5t-106 -31.5zM311 555q-35 0 -62 15.5t-43 42t-16 58.5q0 33 16 59t43 41.5t62 15.5t62 -15.5t43 -41.5
t16 -59q0 -32 -16 -58.5t-43 -42t-62 -15.5zM311 598q32 0 53 21t21 52q0 32 -21 53t-53 21t-53 -21t-21 -53q0 -31 21 -52t53 -21z" />
    <glyph glyph-name="Uhungarumlaut" unicode="&#x170;" horiz-adv-x="756" 
d="M378 -8q-135 0 -205 70.5t-70 207.5v435h70v-437q0 -109 52.5 -159t152.5 -50t152 50t52 159v437h71v-435q0 -137 -70.5 -207.5t-204.5 -70.5zM292 765l85 171h80l-118 -171h-47zM417 765l90 171h79l-122 -171h-47z" />
    <glyph glyph-name="uhungarumlaut" unicode="&#x171;" horiz-adv-x="624" 
d="M283 -8q-61 0 -103 21.5t-63 64.5t-21 106v310h70v-306q0 -38 12 -69t40 -48t74 -17q47 0 84.5 22.5t58.5 58.5t21 78v281h70v-494h-65v110h-2q-27 -55 -70 -86.5t-106 -31.5zM352 560l54 193h70l-82 -193h-42zM227 560l55 193h70l-82 -193h-43z" />
    <glyph glyph-name="Uogonek" unicode="&#x172;" horiz-adv-x="756" 
d="M378 -8q-135 0 -205 70.5t-70 207.5v435h70v-437q0 -109 52.5 -159t152.5 -50t152 50t52 159v437h71v-435q0 -137 -70.5 -207.5t-204.5 -70.5zM415 -194q-46 0 -76 26t-30 69q0 39 27 75t71 59l28 -35q-15 -7 -31 -19.5t-26.5 -30.5t-10.5 -39q0 -29 16.5 -41t39.5 -12
q12 0 25.5 3t26.5 9l17 -47q-13 -7 -32.5 -12t-44.5 -5z" />
    <glyph glyph-name="uogonek" unicode="&#x173;" horiz-adv-x="624" 
d="M283 -8q-61 0 -103 21.5t-63 64.5t-21 106v310h70v-306q0 -38 12 -69t40 -48t74 -17q47 0 84.5 22.5t58.5 58.5t21 78v281h70v-494h-65v110h-2q-27 -55 -70 -86.5t-106 -31.5zM498 -194q-46 0 -76 26t-30 69q0 39 27 75t71 59l28 -35q-15 -7 -31 -19.5t-26.5 -30.5
t-10.5 -39q0 -29 16.5 -41t39.5 -12q12 0 25.5 3t26.5 9l17 -47q-13 -7 -32.5 -12t-44.5 -5z" />
    <glyph glyph-name="Wcircumflex" unicode="&#x174;" horiz-adv-x="1101" 
d="M272 0l-220 705h73l186 -614h-2l211 614h61l211 -615h-1l187 615h71l-220 -705h-71l-207 604v0l-210 -604h-69zM390 765l125 171h70l125 -171h-58l-102 122l-103 -122h-57z" />
    <glyph glyph-name="wcircumflex" unicode="&#x175;" horiz-adv-x="864" 
d="M205 0l-167 494h71l137 -417h-1l154 417h67l152 -417h-1l139 417h71l-170 -494h-71l-155 421h2l-156 -421h-72zM286 566l111 187h72l111 -187h-54l-93 136l-92 -136h-55z" />
    <glyph glyph-name="Ycircumflex" unicode="&#x176;" horiz-adv-x="616" 
d="M273 0v367l13 -59l-278 397h81l219 -314h1l219 314h79l-277 -397l13 59v-367h-70zM148 765l125 171h70l125 -171h-58l-102 122l-103 -122h-57z" />
    <glyph glyph-name="ycircumflex" unicode="&#x177;" horiz-adv-x="550" 
d="M163 -180l88 205v-53l-219 522h76l168 -420v0l169 420h74l-282 -674h-74zM127 566l111 187h72l111 -187h-54l-93 136l-92 -136h-55z" />
    <glyph glyph-name="Ydieresis" unicode="&#x178;" horiz-adv-x="616" 
d="M273 0v367l13 -59l-278 397h81l219 -314h1l219 314h79l-277 -397l13 59v-367h-70zM362 809v80h82v-80h-82zM172 809v80h82v-80h-82z" />
    <glyph glyph-name="Zacute" unicode="&#x179;" horiz-adv-x="603" 
d="M51 0v46l432 632l10 -37h-442v64h499v-45l-431 -633l-10 37h452v-64h-510zM273 765l118 171h89l-146 -171h-61z" />
    <glyph glyph-name="zacute" unicode="&#x17a;" horiz-adv-x="528" 
d="M62 0v43l329 415l7 -25h-325v61h390v-45l-330 -417l-7 29h349v-61h-413zM242 559l104 194h81l-129 -194h-56z" />
    <glyph glyph-name="Zdotaccent" unicode="&#x17b;" horiz-adv-x="603" 
d="M51 0v46l432 632l10 -37h-442v64h499v-45l-431 -633l-10 37h452v-64h-510zM258 809v87h89v-87h-89z" />
    <glyph glyph-name="zdotaccent" unicode="&#x17c;" horiz-adv-x="528" 
d="M62 0v43l329 415l7 -25h-325v61h390v-45l-330 -417l-7 29h349v-61h-413zM229 622v83h84v-83h-84z" />
    <glyph glyph-name="Zcaron" unicode="&#x17d;" horiz-adv-x="603" 
d="M51 0v46l432 632l10 -37h-442v64h499v-45l-431 -633l-10 37h452v-64h-510zM268 765l-125 171h58l102 -122l103 122h57l-125 -171h-70z" />
    <glyph glyph-name="zcaron" unicode="&#x17e;" horiz-adv-x="528" 
d="M62 0v43l329 415l7 -25h-325v61h390v-45l-330 -417l-7 29h349v-61h-413zM235 559l-111 194h55l92 -143l93 143h54l-111 -194h-72z" />
    <glyph glyph-name="uni0181" unicode="&#x181;" horiz-adv-x="845" 
d="M230 0v646h-42q-58 0 -82 -24t-24 -81v-43h-63v46q0 80 43 120.5t129 40.5h326q109 0 168 -47t59 -138q0 -66 -34.5 -106t-83.5 -51v-2q34 -5 64.5 -25.5t50 -56.5t19.5 -86q0 -63 -27.5 -106t-79.5 -65t-127 -22h-296zM300 62h224q85 0 125 33t40 96q0 69 -42 102
t-123 33h-224v-264zM300 388h208q82 0 123.5 33t41.5 100q0 60 -40 91t-125 31h-208v-255z" />
    <glyph glyph-name="uni018A" unicode="&#x18a;" horiz-adv-x="899" 
d="M230 0v646h-42q-58 0 -82 -24t-24 -81v-43h-63v46q0 80 42.5 120.5t127.5 40.5h279q112 0 189.5 -41t118 -119.5t40.5 -191.5t-40.5 -192t-118.5 -120t-189 -41h-238zM301 64h163q137 0 208 70.5t71 218.5t-71 218t-208 70h-163v-577z" />
    <glyph glyph-name="uni018F" unicode="&#x18f;" horiz-adv-x="807" 
d="M405 -8q-96 0 -168.5 43t-113.5 123.5t-41 190.5v37h608v-61h-561l26 28q0 -148 66.5 -222t182.5 -74q114 0 181.5 76t67.5 220q0 143 -66.5 219.5t-197.5 76.5q-46 0 -91 -9.5t-86.5 -28t-73.5 -47.5l-26 59q30 29 76 49t99 30.5t103 10.5q104 0 179 -40.5t115.5 -120.5
t40.5 -199q0 -84 -23.5 -151t-66 -113.5t-101.5 -71.5t-129 -25z" />
    <glyph glyph-name="florin" unicode="&#x192;" horiz-adv-x="600" 
d="M43 -188v62h43q46 0 76 22t42 82l98 462l13 -12h-156v55h164l-15 -15l18 83q16 78 60.5 120t123.5 42h45v-62h-41q-48 0 -77 -21.5t-42 -83.5l-16 -78l-12 15h166v-55h-180l20 13l-100 -468q-17 -77 -61.5 -119t-122.5 -42h-46z" />
    <glyph glyph-name="Ohorn" unicode="&#x1a0;" horiz-adv-x="807" 
d="M403 -8q-74 0 -133.5 24.5t-101.5 71.5t-64 113.5t-22 150.5q0 85 22 152t63.5 113.5t101 71t134.5 24.5q76 0 135.5 -24.5t101.5 -71t63.5 -113t21.5 -151.5q0 -84 -22 -151t-63.5 -114t-101 -71.5t-135.5 -24.5zM403 57q79 0 134.5 33.5t85 99.5t29.5 163t-29 162.5
t-85 99t-135 33.5q-78 0 -133.5 -33.5t-85 -99t-29.5 -162.5q0 -96 29.5 -162t85 -100t133.5 -34zM511 655l-49 54q27 -2 46.5 -3t36.5 -1q47 0 70.5 14t31.5 40t8 59v17h72v-28q0 -45 -18 -79t-50 -53.5t-76 -19.5h-72z" />
    <glyph glyph-name="ohorn" unicode="&#x1a1;" horiz-adv-x="613" 
d="M307 -8q-74 0 -128 31.5t-83 89.5t-29 135t29.5 134t83 89t127.5 32t127.5 -32t83 -89t29.5 -134t-29.5 -135t-83 -89.5t-127.5 -31.5zM306 54q79 0 125 53t46 141t-45.5 140t-124.5 52t-124.5 -52t-45.5 -140t45.5 -141t123.5 -53zM394 446l-35 25v23q46 1 70 14
t33 38.5t9 62.5v14h65v-25q0 -45 -16.5 -78t-48 -52t-77.5 -22z" />
    <glyph glyph-name="Uhorn" unicode="&#x1af;" horiz-adv-x="756" 
d="M378 -8q-135 0 -205 70.5t-70 207.5v435h70v-437q0 -109 52.5 -159t152.5 -50t152 50t52 159v437h71v-435q0 -137 -70.5 -207.5t-204.5 -70.5zM629 655l-40 28v22q43 1 66.5 13t33.5 37.5t10 62.5v17h71v-28q0 -43 -16 -76.5t-47.5 -53t-77.5 -22.5z" />
    <glyph glyph-name="uhorn" unicode="&#x1b0;" horiz-adv-x="624" 
d="M283 -8q-61 0 -103 21.5t-63 64.5t-21 106v310h70v-306q0 -38 12 -69t40 -48t74 -17q47 0 84.5 22.5t58.5 58.5t21 78v281h70v-494h-65v110h-2q-27 -55 -70 -86.5t-106 -31.5zM501 446l-35 25v23q46 1 70 14t33 38.5t9 62.5v14h65v-25q0 -45 -16.5 -78t-48 -52t-77.5 -22
z" />
    <glyph glyph-name="uni01B3" unicode="&#x1b3;" horiz-adv-x="644" 
d="M273 0v367l13 -59l-278 397h81l219 -314h1l172 246q27 41 60.5 58.5t72.5 17.5q17 0 28 -1.5t24 -7.5v-59q-10 4 -20.5 6t-25.5 2q-26 0 -46 -11.5t-37 -36.5l-207 -297l13 59v-367h-70z" />
    <glyph glyph-name="uni01B4" unicode="&#x1b4;" horiz-adv-x="581" 
d="M409 403q14 35 33 56.5t45 32.5t59 11q18 0 30.5 -2t25.5 -6l-12 -59q-9 3 -19 4.5t-19 1.5q-21 0 -36 -7t-27 -22.5t-24 -44.5l-228 -548h-74l88 205v-53l-219 522h76l168 -420v0z" />
    <glyph glyph-name="uni01C4" unicode="&#x1c4;" horiz-adv-x="1369" 
d="M113 0v705h237q112 0 190 -41t118.5 -119.5t40.5 -191.5t-41 -192t-119 -120t-189 -41h-237zM183 64h164q136 0 207.5 70.5t71.5 218.5t-71 218t-208 70h-164v-577zM817 0v46l432 632l10 -37h-442v64h499v-45l-431 -633l-10 37h452v-64h-510zM1034 765l-125 171h58
l102 -122l103 122h57l-125 -171h-70z" />
    <glyph glyph-name="uni01C5" unicode="&#x1c5;" horiz-adv-x="1309" 
d="M113 0v705h237q112 0 190 -41t118.5 -119.5t40.5 -191.5t-41 -192t-119 -120t-189 -41h-237zM183 64h164q136 0 207.5 70.5t71.5 218.5t-71 218t-208 70h-164v-577zM843 0v43l329 415l7 -25h-325v61h390v-45l-330 -417l-7 29h349v-61h-413zM1016 559l-111 194h55l92 -143
l93 143h54l-111 -194h-72z" />
    <glyph glyph-name="uni01C6" unicode="&#x1c6;" horiz-adv-x="1172" 
d="M296 -8q-69 0 -120.5 32t-80 89.5t-28.5 133.5q0 77 28.5 134t80 89.5t119.5 32.5q65 0 111.5 -30.5t67.5 -84.5h3v317h70v-705h-65v110h-3q-23 -56 -70.5 -87t-112.5 -31zM307 52q80 0 125 53t45 142t-45 142t-124 53t-125 -53t-46 -142t45.5 -142t124.5 -53zM706 0v43
l329 415l7 -25h-325v61h390v-45l-330 -417l-7 29h349v-61h-413zM879 559l-111 194h55l92 -143l93 143h54l-111 -194h-72z" />
    <glyph glyph-name="uni01C7" unicode="&#x1c7;" horiz-adv-x="1016" 
d="M113 0v705h70v-641h366v-64h-436zM634 -7l-5 64l79 4q36 2 64 18.5t44.5 46t16.5 67.5v512h70v-516q0 -53 -24.5 -95.5t-67 -67.5t-96.5 -29z" />
    <glyph glyph-name="uni01C8" unicode="&#x1c8;" horiz-adv-x="825" 
d="M113 0v705h70v-641h366v-64h-436zM660 621v84h89v-84h-89zM526 -193l-5 61l49 6q48 5 74 30.5t26 80.5v509h70v-507q0 -41 -10.5 -71.5t-30.5 -52t-50 -34t-71 -17.5z" />
    <glyph glyph-name="uni01C9" unicode="&#x1c9;" horiz-adv-x="561" 
d="M236 -8q-64 0 -101 39.5t-37 109.5v564h70v-555q0 -30 9.5 -52.5t27 -34t41.5 -11.5q15 0 29.5 2t29.5 6l1 -59q-16 -4 -32.5 -6.5t-37.5 -2.5zM397 621v84h89v-84h-89zM263 -193l-5 61l49 6q48 5 74 30.5t26 80.5v509h70v-507q0 -41 -10.5 -71.5t-30.5 -52t-50 -34
t-71 -17.5z" />
    <glyph glyph-name="uni01CA" unicode="&#x1ca;" horiz-adv-x="1206" 
d="M113 0v705h66l452 -599v0v599h68v-705h-67l-452 597v0v-597h-67zM824 -7l-5 64l79 4q36 2 64 18.5t44.5 46t16.5 67.5v512h70v-516q0 -53 -24.5 -95.5t-67 -67.5t-96.5 -29z" />
    <glyph glyph-name="uni01CB" unicode="&#x1cb;" horiz-adv-x="1054" 
d="M113 0v705h66l452 -599v0v599h68v-705h-67l-452 597v0v-597h-67zM890 621v84h89v-84h-89zM756 -193l-5 61l49 6q48 5 74 30.5t26 80.5v509h70v-507q0 -41 -10.5 -71.5t-30.5 -52t-50 -34t-71 -17.5z" />
    <glyph glyph-name="uni01CC" unicode="&#x1cc;" horiz-adv-x="871" 
d="M98 0v494h65v-109h2q25 54 73 86t109 32q62 0 103 -21.5t61.5 -64.5t20.5 -108v-309h-70v305q0 40 -12 70.5t-39 47.5t-74 17q-49 0 -87.5 -22t-60 -58.5t-21.5 -78.5v-281h-70zM706 621v84h89v-84h-89zM572 -193l-5 61l49 6q48 5 74 30.5t26 80.5v509h70v-507
q0 -41 -10.5 -71.5t-30.5 -52t-50 -34t-71 -17.5z" />
    <glyph glyph-name="uni01CD" unicode="&#x1cd;" horiz-adv-x="764" 
d="M43 0l307 705h65l306 -705h-74l-87 202l39 -21h-433l38 21l-87 -202h-74zM380 619l-166 -390l-25 15h387l-27 -15l-165 390h-4zM348 765l-125 171h58l102 -122l103 122h57l-125 -171h-70z" />
    <glyph glyph-name="uni01CE" unicode="&#x1ce;" horiz-adv-x="611" 
d="M261 -8q-52 0 -94 19t-66 52t-24 74q0 58 33.5 90.5t100.5 45.5t168 13h80v-54h-76q-62 0 -106.5 -4t-73 -14t-42 -27.5t-13.5 -45.5q0 -44 35.5 -67t87.5 -23q47 0 86.5 21.5t64 56.5t24.5 77v116q0 61 -36.5 90.5t-106.5 29.5q-46 0 -89.5 -12t-90.5 -41l-25 55
q30 19 65 32t72 20t73 7q62 0 108.5 -19.5t72.5 -60.5t26 -105v-318h-63v110h-3q-14 -30 -40 -57.5t-63 -44t-85 -16.5zM273 559l-111 194h55l92 -143l93 143h54l-111 -194h-72z" />
    <glyph glyph-name="uni01D4" unicode="&#x1d4;" horiz-adv-x="624" 
d="M283 -8q-61 0 -103 21.5t-63 64.5t-21 106v310h70v-306q0 -38 12 -69t40 -48t74 -17q47 0 84.5 22.5t58.5 58.5t21 78v281h70v-494h-65v110h-2q-27 -55 -70 -86.5t-106 -31.5zM275 559l-111 194h55l92 -143l93 143h54l-111 -194h-72z" />
    <glyph glyph-name="uni01E5" unicode="&#x1e5;" horiz-adv-x="643" 
d="M306 -188q-58 0 -116 14.5t-99 45.5l24 53q28 -19 60 -31t65.5 -17t65.5 -5q53 0 92 19t60 55l5 -12h-169v48h189l-13 -9q4 13 6.5 27.5t2.5 29.5v116h-5q-18 -51 -65 -81.5t-110 -30.5q-70 0 -122.5 29.5t-81 82.5t-28.5 122t28.5 122t81 83t122.5 30q63 0 111 -32.5
t67 -86.5h3v110h66v-454q0 -19 -2.5 -36.5t-6.5 -33.5l-8 12h97v-48h-110l12 10q-24 -64 -82 -98t-140 -34zM308 92q52 0 90 22t59 60t21 86q0 83 -46 132.5t-124 49.5q-52 0 -90.5 -22t-59.5 -61.5t-21 -91.5q0 -51 21 -90.5t59.5 -62t90.5 -22.5z" />
    <glyph glyph-name="Gcaron" unicode="&#x1e6;" horiz-adv-x="779" 
d="M427 -8q-109 0 -186 42t-118 123t-41 196q0 113 39.5 193.5t114 123.5t177.5 43q53 0 100.5 -10.5t87.5 -30.5t68 -50l-30 -54q-46 42 -102 61t-125 19q-122 0 -189.5 -75t-67.5 -220q0 -150 70.5 -223.5t202.5 -73.5q60 0 112.5 9.5t93.5 27.5l-23 -49v258h-186v63h251
v-325q-27 -13 -68.5 -24t-88.5 -17.5t-92 -6.5zM379 765l-125 171h58l102 -122l103 122h57l-125 -171h-70z" />
    <glyph glyph-name="gcaron" unicode="&#x1e7;" horiz-adv-x="643" 
d="M307 -188q-58 0 -116.5 18t-98.5 49l25 56q28 -19 59.5 -32.5t65 -21t64.5 -7.5q81 0 127.5 43t46.5 116v94h-5q-18 -51 -65.5 -83t-109.5 -32q-71 0 -123.5 30.5t-81 86t-28.5 129.5q0 73 28.5 128.5t81 86t123.5 30.5q62 0 110 -32.5t67 -87.5h3v111h66v-454
q0 -69 -29.5 -120.5t-83 -79.5t-126.5 -28zM308 73q78 0 124 51t46 134t-46 133.5t-124 50.5q-79 0 -125 -50.5t-46 -133.5t46 -134t125 -51zM272 559l-111 194h55l92 -143l93 143h54l-111 -194h-72z" />
    <glyph glyph-name="uni01E9" unicode="&#x1e9;" horiz-adv-x="532" 
d="M98 0v705h70v-434h4l236 223h90l-276 -257l2 35l303 -272h-93l-262 233h-4v-233h-70zM269 765l-125 171h58l102 -122l103 122h57l-125 -171h-70z" />
    <glyph glyph-name="uni01EA" unicode="&#x1ea;" horiz-adv-x="807" 
d="M403 -8q-74 0 -133.5 24.5t-101.5 71.5t-64 113.5t-22 150.5q0 85 22 152t63.5 113.5t101 71t134.5 24.5q76 0 135.5 -24.5t101.5 -71t63.5 -113t21.5 -151.5q0 -84 -22 -151t-63.5 -114t-101 -71.5t-135.5 -24.5zM403 57q79 0 134.5 33.5t85 99.5t29.5 163t-29 162.5
t-85 99t-135 33.5q-78 0 -133.5 -33.5t-85 -99t-29.5 -162.5q0 -96 29.5 -162t85 -100t133.5 -34zM450 -194q-46 0 -76 26t-30 69q0 39 27 75t71 59l28 -35q-15 -7 -31 -19.5t-26.5 -30.5t-10.5 -39q0 -29 16.5 -41t39.5 -12q12 0 25.5 3t26.5 9l17 -47q-13 -7 -32.5 -12
t-44.5 -5z" />
    <glyph glyph-name="uni01EB" unicode="&#x1eb;" horiz-adv-x="613" 
d="M307 -8q-74 0 -128 31.5t-83 89.5t-29 135t29.5 134t83 89t127.5 32t127.5 -32t83 -89t29.5 -134t-29.5 -135t-83 -89.5t-127.5 -31.5zM306 54q79 0 125 53t46 141t-45.5 140t-124.5 52t-124.5 -52t-45.5 -140t45.5 -141t123.5 -53zM350 -194q-46 0 -76 26t-30 69
q0 39 27 75t71 59l28 -35q-15 -7 -31 -19.5t-26.5 -30.5t-10.5 -39q0 -29 16.5 -41t39.5 -12q12 0 25.5 3t26.5 9l17 -47q-13 -7 -32.5 -12t-44.5 -5z" />
    <glyph glyph-name="uni01EF" unicode="&#x1ef;" horiz-adv-x="557" 
d="M258 -191q-70 0 -127.5 16t-95.5 46l27 56q37 -28 83.5 -42.5t107.5 -14.5q93 0 138.5 37t45.5 113q0 67 -45.5 99.5t-129.5 32.5h-109l-3 45l255 260l2 -23h-354v60h421v-48l-245 -249l-10 14h57q111 0 171.5 -49t60.5 -140q0 -66 -30 -114t-85.5 -73.5t-134.5 -25.5z
M227 559l-111 194h55l92 -143l93 143h54l-111 -194h-72z" />
    <glyph glyph-name="Aringacute" unicode="&#x1fa;" horiz-adv-x="764" 
d="M43 0l307 705h65l306 -705h-74l-87 202l39 -21h-433l38 21l-87 -202h-74zM380 619l-166 -390l-25 15h387l-27 -15l-165 390h-4zM383 760q-35 0 -62 15.5t-43 41.5t-16 59q0 32 16 58t43 42t62 16q22 0 40 -6.5t33 -17.5l66 62h79l-112 -97q7 -12 11 -26.5t4 -30.5
q0 -33 -16 -59t-43 -41.5t-62 -15.5zM383 803q32 0 53 20.5t21 52.5t-21 52.5t-53 20.5t-53 -20.5t-21 -52.5t21 -52.5t53 -20.5z" />
    <glyph glyph-name="aringacute" unicode="&#x1fb;" horiz-adv-x="611" 
d="M261 -8q-52 0 -94 19t-66 52t-24 74q0 58 33.5 90.5t100.5 45.5t168 13h80v-54h-76q-62 0 -106.5 -4t-73 -14t-42 -27.5t-13.5 -45.5q0 -44 35.5 -67t87.5 -23q47 0 86.5 21.5t64 56.5t24.5 77v116q0 61 -36.5 90.5t-106.5 29.5q-46 0 -89.5 -12t-90.5 -41l-25 55
q30 19 65 32t72 20t73 7q62 0 108.5 -19.5t72.5 -60.5t26 -105v-318h-63v110h-3q-14 -30 -40 -57.5t-63 -44t-85 -16.5zM309 555q-35 0 -62 15.5t-43 41.5t-16 59q0 32 16 58t43 41.5t62 15.5q22 0 40 -6t33 -17l66 62h79l-112 -97q7 -13 11 -27t4 -30q0 -33 -16 -59
t-43 -41.5t-62 -15.5zM309 598q32 0 53 20.5t21 52.5t-21 52.5t-53 20.5t-53 -20.5t-21 -52.5t21 -52.5t53 -20.5z" />
    <glyph glyph-name="AEacute" unicode="&#x1fc;" horiz-adv-x="1034" 
d="M3 0l415 705h534v-64h-464l24 37l64 -310l-41 21h397v-64h-386l35 21l67 -316l-38 34h342v-64h-367l-43 205l27 -24h-401l34 24l-121 -205h-78zM447 634l-234 -407l-23 17h359l-11 -18l-86 408h-5zM476 765l118 171h89l-146 -171h-61z" />
    <glyph glyph-name="aeacute" unicode="&#x1fd;" horiz-adv-x="974" 
d="M257 -8q-51 0 -92 19t-64.5 52t-23.5 74q0 58 34 90.5t101.5 45.5t170.5 13h86v-54h-82q-86 0 -138.5 -7.5t-76.5 -27t-24 -56.5q0 -43 34.5 -66.5t84.5 -23.5q51 0 91.5 21.5t64 57t23.5 77.5v115q0 61 -36.5 90.5t-103.5 29.5q-48 0 -92.5 -12t-90.5 -41l-25 55
q30 19 65 32t72.5 20t73.5 7q73 0 120.5 -30.5t65.5 -78.5v0q28 54 77.5 81.5t115.5 27.5q72 0 121 -31.5t74.5 -88t25.5 -133.5v-21h-414v54h373l-22 -21q0 53 -18 94.5t-53 65t-87 23.5q-80 0 -127.5 -51t-47.5 -138v-10q0 -88 49.5 -141t142.5 -53q50 0 88.5 12.5
t78.5 41.5l27 -51q-35 -32 -87 -47.5t-107 -15.5q-61 0 -106 16.5t-75 48t-44 74.5h-1q-16 -38 -46.5 -70t-74 -50.5t-101.5 -18.5zM463 559l104 194h81l-129 -194h-56z" />
    <glyph glyph-name="Oslashacute" unicode="&#x1fe;" horiz-adv-x="807" 
d="M403 -8q-74 0 -133.5 24.5t-101.5 71.5t-64 113.5t-22 150.5q0 85 22 152t63.5 113.5t101 71t134.5 24.5q76 0 135.5 -24.5t101.5 -71t63.5 -113t21.5 -151.5q0 -84 -22 -151t-63.5 -114t-101 -71.5t-135.5 -24.5zM403 57q79 0 134.5 33.5t85 99.5t29.5 163t-29 162.5
t-85 99t-135 33.5q-78 0 -133.5 -33.5t-85 -99t-29.5 -162.5q0 -96 29.5 -162t85 -100t133.5 -34zM216 -42l-56 32l54 92l26 37l297 508l15 36l55 92l55 -32l-54 -92l-26 -37l-296 -508l-16 -36zM373 765l118 171h89l-146 -171h-61z" />
    <glyph glyph-name="oslashacute" unicode="&#x1ff;" horiz-adv-x="613" 
d="M307 -8q-74 0 -127.5 32t-83 89.5t-29.5 134.5t29.5 134t83 89t127.5 32t127.5 -32t83 -89t29.5 -134t-29.5 -134.5t-83 -89.5t-127.5 -32zM306 51q80 0 126 54t46 143t-45.5 142t-125.5 53q-81 0 -126.5 -53t-45.5 -142t46 -143t125 -54zM167 -43l-46 26l326 554l45 -26
zM278 559l104 194h81l-129 -194h-56z" />
    <glyph glyph-name="uni0200" unicode="&#x200;" horiz-adv-x="764" 
d="M43 0l307 705h65l306 -705h-74l-87 202l39 -21h-433l38 21l-87 -202h-74zM380 619l-166 -390l-25 15h387l-27 -15l-165 390h-4zM422 765l-118 171h80l85 -171h-47zM296 765l-121 171h79l89 -171h-47z" />
    <glyph glyph-name="uni0201" unicode="&#x201;" horiz-adv-x="611" 
d="M261 -8q-52 0 -94 19t-66 52t-24 74q0 58 33.5 90.5t100.5 45.5t168 13h80v-54h-76q-62 0 -106.5 -4t-73 -14t-42 -27.5t-13.5 -45.5q0 -44 35.5 -67t87.5 -23q47 0 86.5 21.5t64 56.5t24.5 77v116q0 61 -36.5 90.5t-106.5 29.5q-46 0 -89.5 -12t-90.5 -41l-25 55
q30 19 65 32t72 20t73 7q62 0 108.5 -19.5t72.5 -60.5t26 -105v-318h-63v110h-3q-14 -30 -40 -57.5t-63 -44t-85 -16.5zM350 559l-82 194h70l55 -194h-43zM226 559l-82 194h70l54 -194h-42z" />
    <glyph glyph-name="uni0202" unicode="&#x202;" horiz-adv-x="764" 
d="M43 0l307 705h65l306 -705h-74l-87 202l39 -21h-433l38 21l-87 -202h-74zM380 619l-166 -390l-25 15h387l-27 -15l-165 390h-4zM267 760l-52 7q6 79 52 124.5t116 45.5q71 0 117 -46.5t52 -123.5l-52 -7q-4 54 -33.5 87.5t-83.5 33.5q-51 0 -81.5 -32t-34.5 -89z" />
    <glyph glyph-name="uni0203" unicode="&#x203;" horiz-adv-x="611" 
d="M261 -8q-52 0 -94 19t-66 52t-24 74q0 58 33.5 90.5t100.5 45.5t168 13h80v-54h-76q-62 0 -106.5 -4t-73 -14t-42 -27.5t-13.5 -45.5q0 -44 35.5 -67t87.5 -23q47 0 86.5 21.5t64 56.5t24.5 77v116q0 61 -36.5 90.5t-106.5 29.5q-46 0 -89.5 -12t-90.5 -41l-25 55
q30 19 65 32t72 20t73 7q62 0 108.5 -19.5t72.5 -60.5t26 -105v-318h-63v110h-3q-14 -30 -40 -57.5t-63 -44t-85 -16.5zM207 556l-51 6q3 59 21.5 102t52.5 66.5t79 23.5q46 0 79.5 -23.5t52.5 -66.5t21 -102l-51 -6q-4 69 -29 105.5t-73 36.5q-47 0 -72.5 -36.5
t-29.5 -105.5z" />
    <glyph glyph-name="uni0204" unicode="&#x204;" horiz-adv-x="646" 
d="M113 0v705h451v-64h-381v-252h361v-64h-361v-261h381v-64h-451zM385 765l-118 171h80l85 -171h-47zM259 765l-121 171h79l89 -171h-47z" />
    <glyph glyph-name="uni0205" unicode="&#x205;" horiz-adv-x="598" 
d="M328 -8q-79 0 -138 30t-91 87.5t-32 138.5q0 74 28.5 131.5t83 90.5t129.5 33t124.5 -32t74.5 -88.5t25 -132.5v-22h-416v55h375l-22 -22q0 87 -42 135.5t-119 48.5q-50 0 -89 -23t-61 -64.5t-22 -100.5v-9q0 -63 23.5 -106.5t67 -66.5t101.5 -23q41 0 85 11.5t82 43.5
l28 -52q-38 -33 -91 -48t-104 -15zM350 559l-82 194h70l55 -194h-43zM226 559l-82 194h70l54 -194h-42z" />
    <glyph glyph-name="uni0206" unicode="&#x206;" horiz-adv-x="646" 
d="M113 0v705h451v-64h-381v-252h361v-64h-361v-261h381v-64h-451zM230 760l-52 7q6 79 52 124.5t116 45.5q71 0 117 -46.5t52 -123.5l-52 -7q-4 54 -33.5 87.5t-83.5 33.5q-51 0 -81.5 -32t-34.5 -89z" />
    <glyph glyph-name="uni0207" unicode="&#x207;" horiz-adv-x="598" 
d="M328 -8q-79 0 -138 30t-91 87.5t-32 138.5q0 74 28.5 131.5t83 90.5t129.5 33t124.5 -32t74.5 -88.5t25 -132.5v-22h-416v55h375l-22 -22q0 87 -42 135.5t-119 48.5q-50 0 -89 -23t-61 -64.5t-22 -100.5v-9q0 -63 23.5 -106.5t67 -66.5t101.5 -23q41 0 85 11.5t82 43.5
l28 -52q-38 -33 -91 -48t-104 -15zM207 556l-51 6q3 59 21.5 102t52.5 66.5t79 23.5q46 0 79.5 -23.5t52.5 -66.5t21 -102l-51 -6q-4 69 -29 105.5t-73 36.5q-47 0 -72.5 -36.5t-29.5 -105.5z" />
    <glyph glyph-name="uni0208" unicode="&#x208;" horiz-adv-x="296" 
d="M113 0v705h70v-705h-70zM187 765l-118 171h80l85 -171h-47zM61 765l-121 171h79l89 -171h-47z" />
    <glyph glyph-name="uni0209" unicode="&#x209;" horiz-adv-x="265" 
d="M98 0v494h70v-494h-70zM173 559l-82 194h70l55 -194h-43zM49 559l-82 194h70l54 -194h-42z" />
    <glyph glyph-name="uni020A" unicode="&#x20a;" horiz-adv-x="296" 
d="M113 0v705h70v-705h-70zM32 760l-52 7q6 79 52 124.5t116 45.5q71 0 117 -46.5t52 -123.5l-52 -7q-4 54 -33.5 87.5t-83.5 33.5q-51 0 -81.5 -32t-34.5 -89z" />
    <glyph glyph-name="uni020B" unicode="&#x20b;" horiz-adv-x="265" 
d="M98 0v494h70v-494h-70zM30 556l-51 6q3 59 21.5 102t52.5 66.5t79 23.5q46 0 79.5 -23.5t52.5 -66.5t21 -102l-51 -6q-4 69 -29 105.5t-73 36.5q-47 0 -72.5 -36.5t-29.5 -105.5z" />
    <glyph glyph-name="uni020C" unicode="&#x20c;" horiz-adv-x="807" 
d="M403 -8q-74 0 -133.5 24.5t-101.5 71.5t-64 113.5t-22 150.5q0 85 22 152t63.5 113.5t101 71t134.5 24.5q76 0 135.5 -24.5t101.5 -71t63.5 -113t21.5 -151.5q0 -84 -22 -151t-63.5 -114t-101 -71.5t-135.5 -24.5zM403 57q79 0 134.5 33.5t85 99.5t29.5 163t-29 162.5
t-85 99t-135 33.5q-78 0 -133.5 -33.5t-85 -99t-29.5 -162.5q0 -96 29.5 -162t85 -100t133.5 -34zM442 765l-118 171h80l85 -171h-47zM316 765l-121 171h79l89 -171h-47z" />
    <glyph glyph-name="uni020D" unicode="&#x20d;" horiz-adv-x="613" 
d="M307 -8q-74 0 -128 31.5t-83 89.5t-29 135t29.5 134t83 89t127.5 32t127.5 -32t83 -89t29.5 -134t-29.5 -135t-83 -89.5t-127.5 -31.5zM306 54q79 0 125 53t46 141t-45.5 140t-124.5 52t-124.5 -52t-45.5 -140t45.5 -141t123.5 -53zM348 559l-82 194h70l55 -194h-43z
M224 559l-82 194h70l54 -194h-42z" />
    <glyph glyph-name="uni020E" unicode="&#x20e;" horiz-adv-x="807" 
d="M403 -8q-74 0 -133.5 24.5t-101.5 71.5t-64 113.5t-22 150.5q0 85 22 152t63.5 113.5t101 71t134.5 24.5q76 0 135.5 -24.5t101.5 -71t63.5 -113t21.5 -151.5q0 -84 -22 -151t-63.5 -114t-101 -71.5t-135.5 -24.5zM403 57q79 0 134.5 33.5t85 99.5t29.5 163t-29 162.5
t-85 99t-135 33.5q-78 0 -133.5 -33.5t-85 -99t-29.5 -162.5q0 -96 29.5 -162t85 -100t133.5 -34zM287 760l-52 7q6 79 52 124.5t116 45.5q71 0 117 -46.5t52 -123.5l-52 -7q-4 54 -33.5 87.5t-83.5 33.5q-51 0 -81.5 -32t-34.5 -89z" />
    <glyph glyph-name="uni020F" unicode="&#x20f;" horiz-adv-x="613" 
d="M307 -8q-74 0 -128 31.5t-83 89.5t-29 135t29.5 134t83 89t127.5 32t127.5 -32t83 -89t29.5 -134t-29.5 -135t-83 -89.5t-127.5 -31.5zM306 54q79 0 125 53t46 141t-45.5 140t-124.5 52t-124.5 -52t-45.5 -140t45.5 -141t123.5 -53zM205 556l-51 6q3 59 21.5 102
t52.5 66.5t79 23.5q46 0 79.5 -23.5t52.5 -66.5t21 -102l-51 -6q-4 69 -29 105.5t-73 36.5q-47 0 -72.5 -36.5t-29.5 -105.5z" />
    <glyph glyph-name="uni0210" unicode="&#x210;" horiz-adv-x="722" 
d="M113 0v705h281q112 0 173 -50.5t61 -148.5q0 -55 -21 -95.5t-59 -65t-90 -32.5l2 -2l6 -2q22 -6 39 -21.5t35 -49.5l126 -238h-77l-118 223q-16 31 -34.5 47.5t-44 22.5t-61.5 6h-148v-299h-70zM183 361h211q85 0 123.5 35.5t38.5 108.5t-40.5 105t-127.5 32h-205v-281z
M401 765l-118 171h80l85 -171h-47zM275 765l-121 171h79l89 -171h-47z" />
    <glyph glyph-name="uni0211" unicode="&#x211;" horiz-adv-x="420" 
d="M98 0v494h64v-109h3q19 52 66 82t112 34l44 2l7 -65l-69 -6q-73 -6 -115 -48t-42 -102v-282h-70zM276 559l-82 194h70l55 -194h-43zM152 559l-82 194h70l54 -194h-42z" />
    <glyph glyph-name="uni0212" unicode="&#x212;" horiz-adv-x="722" 
d="M113 0v705h281q112 0 173 -50.5t61 -148.5q0 -55 -21 -95.5t-59 -65t-90 -32.5l2 -2l6 -2q22 -6 39 -21.5t35 -49.5l126 -238h-77l-118 223q-16 31 -34.5 47.5t-44 22.5t-61.5 6h-148v-299h-70zM183 361h211q85 0 123.5 35.5t38.5 108.5t-40.5 105t-127.5 32h-205v-281z
M246 760l-52 7q6 79 52 124.5t116 45.5q71 0 117 -46.5t52 -123.5l-52 -7q-4 54 -33.5 87.5t-83.5 33.5q-51 0 -81.5 -32t-34.5 -89z" />
    <glyph glyph-name="uni0213" unicode="&#x213;" horiz-adv-x="420" 
d="M98 0v494h64v-109h3q19 52 66 82t112 34l44 2l7 -65l-69 -6q-73 -6 -115 -48t-42 -102v-282h-70zM133 556l-51 6q3 59 21.5 102t52.5 66.5t79 23.5q46 0 79.5 -23.5t52.5 -66.5t21 -102l-51 -6q-4 69 -29 105.5t-73 36.5q-47 0 -72.5 -36.5t-29.5 -105.5z" />
    <glyph glyph-name="uni0214" unicode="&#x214;" horiz-adv-x="756" 
d="M378 -8q-135 0 -205 70.5t-70 207.5v435h70v-437q0 -109 52.5 -159t152.5 -50t152 50t52 159v437h71v-435q0 -137 -70.5 -207.5t-204.5 -70.5zM417 765l-118 171h80l85 -171h-47zM291 765l-121 171h79l89 -171h-47z" />
    <glyph glyph-name="uni0215" unicode="&#x215;" horiz-adv-x="624" 
d="M283 -8q-61 0 -103 21.5t-63 64.5t-21 106v310h70v-306q0 -38 12 -69t40 -48t74 -17q47 0 84.5 22.5t58.5 58.5t21 78v281h70v-494h-65v110h-2q-27 -55 -70 -86.5t-106 -31.5zM352 559l-82 194h70l55 -194h-43zM228 559l-82 194h70l54 -194h-42z" />
    <glyph glyph-name="uni0216" unicode="&#x216;" horiz-adv-x="756" 
d="M378 -8q-135 0 -205 70.5t-70 207.5v435h70v-437q0 -109 52.5 -159t152.5 -50t152 50t52 159v437h71v-435q0 -137 -70.5 -207.5t-204.5 -70.5zM262 760l-52 7q6 79 52 124.5t116 45.5q71 0 117 -46.5t52 -123.5l-52 -7q-4 54 -33.5 87.5t-83.5 33.5q-51 0 -81.5 -32
t-34.5 -89z" />
    <glyph glyph-name="uni0217" unicode="&#x217;" horiz-adv-x="624" 
d="M283 -8q-61 0 -103 21.5t-63 64.5t-21 106v310h70v-306q0 -38 12 -69t40 -48t74 -17q47 0 84.5 22.5t58.5 58.5t21 78v281h70v-494h-65v110h-2q-27 -55 -70 -86.5t-106 -31.5zM209 556l-51 6q3 59 21.5 102t52.5 66.5t79 23.5q46 0 79.5 -23.5t52.5 -66.5t21 -102l-51 -6
q-4 69 -29 105.5t-73 36.5q-47 0 -72.5 -36.5t-29.5 -105.5z" />
    <glyph glyph-name="uni0218" unicode="&#x218;" horiz-adv-x="657" 
d="M344 -8q-59 0 -111 8.5t-95 27.5t-74 47l28 59q36 -30 74.5 -47t83 -23.5t94.5 -6.5q85 0 133 36t48 100q0 33 -15.5 55t-48.5 36t-85 24l-117 24q-96 19 -137.5 65.5t-41.5 117.5q0 60 34.5 104.5t95 69t137.5 24.5q50 0 93 -9.5t78.5 -29t64.5 -48.5l-29 -59
q-44 45 -94.5 63t-113.5 18q-55 0 -99.5 -15.5t-70.5 -45t-26 -74.5q0 -47 29.5 -75t100.5 -42l116 -22q103 -21 151 -65t48 -114q0 -58 -31 -104.5t-87.5 -72.5t-132.5 -26zM322 -284l-35 27q24 23 32.5 48t8.5 52l13 -10h-59v85h92v-66q0 -40 -12.5 -74t-39.5 -62z" />
    <glyph glyph-name="uni0219" unicode="&#x219;" horiz-adv-x="551" 
d="M277 -8q-40 0 -79.5 7.5t-73 21.5t-56.5 35l26 52q26 -21 57 -33.5t64 -17.5t63 -5q65 0 103 21t38 57q0 33 -22 50.5t-72 26.5l-103 19q-69 12 -104.5 45t-35.5 89q0 43 24.5 75t69 50t105.5 18q35 0 72.5 -7.5t70 -21.5t51.5 -35l-27 -51q-21 20 -49.5 32t-59 17.5
t-59.5 5.5q-60 0 -95.5 -22t-35.5 -59q0 -32 20.5 -49.5t66.5 -26.5l101 -19q75 -14 111.5 -46t36.5 -88q0 -43 -25.5 -75t-72.5 -49t-110 -17zM270 -284l-35 27q24 23 32.5 48t8.5 52l13 -10h-59v85h92v-66q0 -40 -12.5 -74t-39.5 -62z" />
    <glyph glyph-name="uni021A" unicode="&#x21a;" horiz-adv-x="640" 
d="M285 0v641h-259v64h588v-64h-259v-641h-70zM314 -284l-35 27q24 23 32.5 48t8.5 52l13 -10h-59v85h92v-66q0 -40 -12.5 -74t-39.5 -62z" />
    <glyph glyph-name="uni021B" unicode="&#x21b;" horiz-adv-x="422" 
d="M296 -8q-83 0 -127 45t-44 127v270h-102v60h104v149h68v-149h186v-60h-186v-261q0 -61 27 -90t82 -29q23 0 44 4.5t40 13.5l12 -57q-19 -12 -47.5 -17.5t-56.5 -5.5zM247 -292l-35 27q24 23 32.5 48t8.5 52l13 -10h-59v85h92v-66q0 -40 -12.5 -74t-39.5 -62z" />
    <glyph glyph-name="uni021F" unicode="&#x21f;" horiz-adv-x="628" 
d="M98 0v705h68v-318h2q23 53 70.5 84.5t108.5 31.5q62 0 103 -21.5t61.5 -64.5t20.5 -108v-309h-70v305q0 40 -12 70.5t-39.5 47.5t-73.5 17q-49 0 -87 -22t-60 -58.5t-22 -78.5v-281h-70zM269 765l-125 171h58l102 -122l103 122h57l-125 -171h-70z" />
    <glyph glyph-name="uni0226" unicode="&#x226;" horiz-adv-x="764" 
d="M43 0l307 705h65l306 -705h-74l-87 202l39 -21h-433l38 21l-87 -202h-74zM380 619l-166 -390l-25 15h387l-27 -15l-165 390h-4zM338 809v87h89v-87h-89z" />
    <glyph glyph-name="uni0227" unicode="&#x227;" horiz-adv-x="611" 
d="M261 -8q-52 0 -94 19t-66 52t-24 74q0 58 33.5 90.5t100.5 45.5t168 13h80v-54h-76q-62 0 -106.5 -4t-73 -14t-42 -27.5t-13.5 -45.5q0 -44 35.5 -67t87.5 -23q47 0 86.5 21.5t64 56.5t24.5 77v116q0 61 -36.5 90.5t-106.5 29.5q-46 0 -89.5 -12t-90.5 -41l-25 55
q30 19 65 32t72 20t73 7q62 0 108.5 -19.5t72.5 -60.5t26 -105v-318h-63v110h-3q-14 -30 -40 -57.5t-63 -44t-85 -16.5zM267 622v83h84v-83h-84z" />
    <glyph glyph-name="uni0228" unicode="&#x228;" horiz-adv-x="646" 
d="M113 0v705h451v-64h-381v-252h361v-64h-361v-261h381v-64h-451zM350 -193q-24 0 -48.5 5t-39.5 14l12 43q19 -9 35.5 -13t41.5 -4q27 0 43.5 9t16.5 28q0 15 -10.5 22.5t-29.5 7.5q-9 0 -21.5 -2t-28.5 -7l-17 15l15 95h48l-13 -77l-22 8q11 3 25 5t26 2q23 0 41.5 -7.5
t30.5 -23t12 -38.5q0 -25 -15.5 -43.5t-41.5 -28.5t-60 -10z" />
    <glyph glyph-name="uni022A" unicode="&#x22a;" horiz-adv-x="807" 
d="M403 -8q-74 0 -133.5 24.5t-101.5 71.5t-64 113.5t-22 150.5q0 85 22 152t63.5 113.5t101 71t134.5 24.5q76 0 135.5 -24.5t101.5 -71t63.5 -113t21.5 -151.5q0 -84 -22 -151t-63.5 -114t-101 -71.5t-135.5 -24.5zM403 57q79 0 134.5 33.5t85 99.5t29.5 163t-29 162.5
t-85 99t-135 33.5q-78 0 -133.5 -33.5t-85 -99t-29.5 -162.5q0 -96 29.5 -162t85 -100t133.5 -34zM246 928v55h314v-55h-314zM268 798v75h83v-75h-83zM455 798v75h83v-75h-83z" />
    <glyph glyph-name="uni022B" unicode="&#x22b;" horiz-adv-x="613" 
d="M307 -8q-74 0 -128 31.5t-83 89.5t-29 135t29.5 134t83 89t127.5 32t127.5 -32t83 -89t29.5 -134t-29.5 -135t-83 -89.5t-127.5 -31.5zM306 54q79 0 125 53t46 141t-45.5 140t-124.5 52t-124.5 -52t-45.5 -140t45.5 -141t123.5 -53zM150 720v55h314v-55h-314zM172 590v75
h83v-75h-83zM359 590v75h83v-75h-83z" />
    <glyph glyph-name="uni022C" unicode="&#x22c;" horiz-adv-x="807" 
d="M403 -8q-74 0 -133.5 24.5t-101.5 71.5t-64 113.5t-22 150.5q0 85 22 152t63.5 113.5t101 71t134.5 24.5q76 0 135.5 -24.5t101.5 -71t63.5 -113t21.5 -151.5q0 -84 -22 -151t-63.5 -114t-101 -71.5t-135.5 -24.5zM403 57q79 0 134.5 33.5t85 99.5t29.5 163t-29 162.5
t-85 99t-135 33.5q-78 0 -133.5 -33.5t-85 -99t-29.5 -162.5q0 -96 29.5 -162t85 -100t133.5 -34zM246 929v54h314v-54h-314zM469 768q-22 0 -40 9t-36 21q-14 11 -27.5 17.5t-26.5 6.5q-22 0 -33 -13.5t-16 -42.5l-46 2q3 35 14.5 57.5t31.5 34.5t47 12q23 0 41 -9.5
t35 -21.5q16 -10 29 -17t25 -7q23 0 34 14t15 42l47 -2q-4 -51 -29 -77t-65 -26z" />
    <glyph glyph-name="uni022D" unicode="&#x22d;" horiz-adv-x="613" 
d="M307 -8q-74 0 -128 31.5t-83 89.5t-29 135t29.5 134t83 89t127.5 32t127.5 -32t83 -89t29.5 -134t-29.5 -135t-83 -89.5t-127.5 -31.5zM306 54q79 0 125 53t46 141t-45.5 140t-124.5 52t-124.5 -52t-45.5 -140t45.5 -141t123.5 -53zM150 717v54h314v-54h-314zM194 554
l-46 2q3 34 14.5 57.5t31.5 35t47 11.5q23 0 41 -9.5t36 -21.5q15 -10 28 -17t25 -7q23 0 34 14t15 42l47 -2q-4 -51 -29 -77t-65 -26q-22 0 -40 9t-36 21q-14 10 -27 17t-27 7q-22 0 -33 -14t-16 -42z" />
    <glyph glyph-name="uni0230" unicode="&#x230;" horiz-adv-x="807" 
d="M403 -8q-74 0 -133.5 24.5t-101.5 71.5t-64 113.5t-22 150.5q0 85 22 152t63.5 113.5t101 71t134.5 24.5q76 0 135.5 -24.5t101.5 -71t63.5 -113t21.5 -151.5q0 -84 -22 -151t-63.5 -114t-101 -71.5t-135.5 -24.5zM403 57q79 0 134.5 33.5t85 99.5t29.5 163t-29 162.5
t-85 99t-135 33.5q-78 0 -133.5 -33.5t-85 -99t-29.5 -162.5q0 -96 29.5 -162t85 -100t133.5 -34zM255 929v55h296v-55h-296zM361 799v74h85v-74h-85z" />
    <glyph glyph-name="uni0231" unicode="&#x231;" horiz-adv-x="613" 
d="M307 -8q-74 0 -128 31.5t-83 89.5t-29 135t29.5 134t83 89t127.5 32t127.5 -32t83 -89t29.5 -134t-29.5 -135t-83 -89.5t-127.5 -31.5zM306 54q79 0 125 53t46 141t-45.5 140t-124.5 52t-124.5 -52t-45.5 -140t45.5 -141t123.5 -53zM158 723v53h298v-53h-298zM266 590v75
h83v-75h-83z" />
    <glyph glyph-name="uni0232" unicode="&#x232;" horiz-adv-x="616" 
d="M273 0v367l13 -59l-278 397h81l219 -314h1l219 314h79l-277 -397l13 59v-367h-70zM145 816v57h326v-57h-326z" />
    <glyph glyph-name="uni0233" unicode="&#x233;" horiz-adv-x="550" 
d="M163 -180l88 205v-53l-219 522h76l168 -420v0l169 420h74l-282 -674h-74zM117 636v56h314v-56h-314z" />
    <glyph glyph-name="uni0237" unicode="&#x237;" horiz-adv-x="243" 
d="M-56 -193l-5 61l49 6q48 5 74 30.5t26 80.5v509h70v-507q0 -41 -10.5 -71.5t-30.5 -52t-50 -34t-71 -17.5z" />
    <glyph glyph-name="uni0253" unicode="&#x253;" horiz-adv-x="644" 
d="M347 -8q-64 0 -112 31t-71 87h-2v-110h-64v546q0 52 17 89t51.5 57.5t86.5 20.5q20 0 40.5 -2.5t33.5 -7.5l-8 -58q-11 5 -28 7t-33 2q-48 0 -69 -27.5t-21 -79.5l-1 -159h2q23 54 69 84.5t110 30.5q69 0 120.5 -32.5t80.5 -89.5t29 -134q0 -76 -29 -133.5t-80.5 -89.5
t-121.5 -32zM337 52q79 0 124.5 53t45.5 142t-46 142t-125 53t-124.5 -53t-45.5 -142t45.5 -142t125.5 -53z" />
    <glyph glyph-name="uni0257" unicode="&#x257;" horiz-adv-x="644" 
d="M296 -8q-69 0 -120.5 32t-80 89.5t-28.5 133.5q0 77 28.5 134t79.5 89.5t120 32.5q64 0 111 -30.5t68 -84.5h3v158q0 52 17 89t51.5 57.5t86.5 20.5q20 0 40.5 -2.5t32.5 -7.5l-7 -58q-11 5 -28 7t-33 2q-48 0 -69 -27.5t-21 -79.5v-547h-65v110h-3q-23 -56 -70.5 -87
t-112.5 -31zM307 52q79 0 124.5 53t45.5 142t-45.5 142t-123.5 53q-79 0 -125 -53t-46 -142t45.5 -142t124.5 -53z" />
    <glyph glyph-name="uni0259" unicode="&#x259;" horiz-adv-x="598" 
d="M291 -8q-74 0 -124.5 31.5t-75.5 88t-25 133.5v21h415v-54h-374l22 22q0 -88 42.5 -136t119.5 -48q49 0 88 22t61 64t22 101v9q0 63 -23.5 107t-66.5 66.5t-102 22.5q-41 0 -84.5 -11t-83.5 -43l-27 51q38 34 91.5 49t103.5 15q80 0 138.5 -30t90.5 -87t32 -139
q0 -74 -28.5 -131.5t-82 -90.5t-129.5 -33z" />
    <glyph glyph-name="uni0292" unicode="&#x292;" horiz-adv-x="557" 
d="M258 -191q-70 0 -127.5 16t-95.5 46l27 56q37 -28 83.5 -42.5t107.5 -14.5q93 0 138.5 37t45.5 113q0 67 -45.5 99.5t-129.5 32.5h-109l-3 45l255 260l2 -23h-354v60h421v-48l-245 -249l-10 14h57q111 0 171.5 -49t60.5 -140q0 -66 -30 -114t-85.5 -73.5t-134.5 -25.5z
" />
    <glyph glyph-name="uni02B9" unicode="&#x2b9;" horiz-adv-x="212" 
d="M84 432l-19 273h82l-17 -273h-46z" />
    <glyph glyph-name="uni02BA" unicode="&#x2ba;" horiz-adv-x="384" 
d="M91 434l-18 271h81l-17 -271h-46zM249 434l-18 271h81l-17 -271h-46z" />
    <glyph glyph-name="uni02BB" unicode="&#x2bb;" horiz-adv-x="500" 
d="M204 571v66q0 40 12.5 73.5t39.5 62.5l35 -27q-24 -24 -32 -48.5t-8 -50.5l-14 10h59v-86h-92z" />
    <glyph glyph-name="uni02BC" unicode="&#x2bc;" horiz-adv-x="314" 
d="M151 549l-35 27q24 23 32 48t8 51l13 -10h-59v85h94v-65q0 -40 -12.5 -74t-40.5 -62z" />
    <glyph glyph-name="uni02BE" unicode="&#x2be;" horiz-adv-x="500" 
d="M244 560v46q25 0 40 15t15 39q0 25 -15 39.5t-40 14.5v46q31 0 55 -12.5t37.5 -35t13.5 -52.5q0 -29 -13.5 -52t-37.5 -35.5t-55 -12.5z" />
    <glyph glyph-name="uni02BF" unicode="&#x2bf;" horiz-adv-x="500" 
d="M244 560q-31 0 -55 12.5t-37.5 35.5t-13.5 52q0 30 13.5 52.5t37.5 35t55 12.5v-46q-24 0 -39.5 -14.5t-15.5 -39.5q0 -24 15.5 -39t39.5 -15v-46z" />
    <glyph glyph-name="circumflex" unicode="&#x2c6;" horiz-adv-x="500" 
d="M103 566l111 187h72l111 -187h-54l-93 136l-92 -136h-55z" />
    <glyph glyph-name="caron" unicode="&#x2c7;" horiz-adv-x="500" 
d="M214 559l-111 194h55l92 -143l93 143h54l-111 -194h-72z" />
    <glyph glyph-name="uni02C8" unicode="&#x2c8;" horiz-adv-x="500" 
d="M222 560v235h56v-235h-56z" />
    <glyph glyph-name="uni02C9" unicode="&#x2c9;" horiz-adv-x="500" 
d="M95 637v53h310v-53h-310z" />
    <glyph glyph-name="uni02CA" unicode="&#x2ca;" horiz-adv-x="500" 
d="M223 560l104 193h79l-129 -193h-54z" />
    <glyph glyph-name="fourthtofinechinese" unicode="&#x2cb;" horiz-adv-x="500" 
d="M223 560l-129 193h79l104 -193h-54z" />
    <glyph glyph-name="uni02CC" unicode="&#x2cc;" horiz-adv-x="500" 
d="M222 -270v200h56v-200h-56z" />
    <glyph glyph-name="breve" unicode="&#x2d8;" horiz-adv-x="500" 
d="M250 556q-46 0 -79.5 23.5t-52 67t-21.5 101.5l51 6q4 -69 29 -105.5t73 -36.5q47 0 72.5 36.5t29.5 105.5l51 -6q-2 -58 -21.5 -101.5t-52.5 -67t-79 -23.5z" />
    <glyph glyph-name="dotaccent" unicode="&#x2d9;" horiz-adv-x="500" 
d="M208 622v83h84v-83h-84z" />
    <glyph glyph-name="ring" unicode="&#x2da;" horiz-adv-x="500" 
d="M250 555q-35 0 -62 15.5t-43 42t-16 58.5q0 33 16 59t43 41.5t62 15.5t62 -15.5t43 -41.5t16 -59q0 -32 -16 -58.5t-43 -42t-62 -15.5zM250 598q32 0 53 21t21 52q0 32 -21 53t-53 21t-53 -21t-21 -53q0 -31 21 -52t53 -21z" />
    <glyph glyph-name="ogonek" unicode="&#x2db;" horiz-adv-x="500" 
d="M230 -194q-46 0 -76 26t-30 69q0 39 27 75t71 59l28 -35q-15 -7 -31 -19.5t-26.5 -30.5t-10.5 -39q0 -29 16.5 -41t39.5 -12q12 0 25.5 3t26.5 9l17 -47q-13 -7 -32.5 -12t-44.5 -5z" />
    <glyph glyph-name="tilde" unicode="&#x2dc;" horiz-adv-x="500" 
d="M119 599l-46 3q5 62 32.5 96.5t70.5 34.5q26 0 46.5 -13.5t39.5 -30.5q16 -14 30 -24t29 -10q26 0 40 20.5t20 59.5l46 -3q-5 -62 -32.5 -96.5t-69.5 -34.5q-27 0 -47.5 14t-39.5 30q-16 15 -30 24t-29 9q-26 0 -40 -20t-20 -59z" />
    <glyph glyph-name="hungarumlaut" unicode="&#x2dd;" horiz-adv-x="500" 
d="M291 560l54 193h70l-82 -193h-42zM166 560l55 193h70l-82 -193h-43z" />
    <glyph glyph-name="gravecomb" unicode="&#x300;" 
d="M-27 560l-129 193h82l103 -193h-56z" />
    <glyph glyph-name="acutecomb" unicode="&#x301;" 
d="M-29 559l104 194h81l-129 -194h-56z" />
    <glyph glyph-name="uni0302" unicode="&#x302;" 
d="M-147 566l111 187h72l111 -187h-54l-93 136l-92 -136h-55z" />
    <glyph glyph-name="tildecomb" unicode="&#x303;" 
d="M-131 599l-46 3q5 62 32.5 96.5t70.5 34.5q26 0 46.5 -13.5t39.5 -30.5q16 -14 30 -24t29 -10q26 0 40 20.5t20 59.5l46 -3q-5 -62 -32.5 -96.5t-69.5 -34.5q-27 0 -47.5 14t-39.5 30q-16 15 -30 24t-29 9q-26 0 -40 -20t-20 -59z" />
    <glyph glyph-name="uni0304" unicode="&#x304;" 
d="M-157 636v56h314v-56h-314z" />
    <glyph glyph-name="uni0306" unicode="&#x306;" 
d="M0 556q-46 0 -79.5 23.5t-52 67t-21.5 101.5l51 6q4 -69 29 -105.5t73 -36.5q47 0 72.5 36.5t29.5 105.5l51 -6q-2 -58 -21.5 -101.5t-52.5 -67t-79 -23.5z" />
    <glyph glyph-name="uni0307" unicode="&#x307;" 
d="M-42 622v83h84v-83h-84z" />
    <glyph glyph-name="uni0308" unicode="&#x308;" 
d="M54 621v82h82v-82h-82zM-136 621v82h82v-82h-82z" />
    <glyph glyph-name="hookabovecomb" unicode="&#x309;" 
d="M-27 560v20q0 24 9.5 39t22.5 25.5t23 21.5t10 26q0 14 -12 21.5t-37 7.5q-15 0 -30.5 -4t-33.5 -12l-13 43q18 11 41 16t51 5q46 0 72 -17.5t26 -50.5q0 -25 -11 -40.5t-26 -26t-26.5 -24t-11.5 -35.5v-15h-54z" />
    <glyph glyph-name="uni030A" unicode="&#x30a;" 
d="M0 555q-35 0 -62 15.5t-43 42t-16 58.5q0 33 16 59t43 41.5t62 15.5t62 -15.5t43 -41.5t16 -59q0 -32 -16 -58.5t-43 -42t-62 -15.5zM0 598q32 0 53 21t21 52q0 32 -21 53t-53 21t-53 -21t-21 -53q0 -31 21 -52t53 -21z" />
    <glyph glyph-name="uni030B" unicode="&#x30b;" 
d="M41 560l54 193h70l-82 -193h-42zM-84 560l55 193h70l-82 -193h-43z" />
    <glyph glyph-name="uni030C" unicode="&#x30c;" 
d="M-36 559l-111 194h55l92 -143l93 143h54l-111 -194h-72z" />
    <glyph glyph-name="uni030F" unicode="&#x30f;" 
d="M41 559l-82 194h70l55 -194h-43zM-83 559l-82 194h70l54 -194h-42z" />
    <glyph glyph-name="uni0311" unicode="&#x311;" 
d="M-102 556l-51 6q3 59 21.5 102t52.5 66.5t79 23.5q46 0 79.5 -23.5t52.5 -66.5t21 -102l-51 -6q-4 69 -29 105.5t-73 36.5q-47 0 -72.5 -36.5t-29.5 -105.5z" />
    <glyph glyph-name="uni0312" unicode="&#x312;" 
d="M-46 578v66q0 40 12.5 74t39.5 62l35 -27q-24 -23 -32.5 -48t-8.5 -52l-13 10h59v-85h-92z" />
    <glyph glyph-name="uni031B" unicode="&#x31b;" 
d="M35 446l-35 25v23q46 1 70 14t33 38.5t9 62.5v14h65v-25q0 -45 -16.5 -78t-48 -52t-77.5 -22z" />
    <glyph glyph-name="dotbelowcomb" unicode="&#x323;" 
d="M-42 -184v83h84v-83h-84z" />
    <glyph glyph-name="uni0324" unicode="&#x324;" 
d="M52 -179v80h81v-80h-81zM-133 -179v80h81v-80h-81z" />
    <glyph glyph-name="uni0326" unicode="&#x326;" 
d="M-6 -284l-35 27q24 23 32.5 48t8.5 52l13 -10h-59v85h92v-66q0 -40 -12.5 -74t-39.5 -62z" />
    <glyph glyph-name="uni0327" unicode="&#x327;" 
d="M4 -193q-24 0 -48.5 5t-39.5 14l12 43q19 -9 35.5 -13t41.5 -4q27 0 43.5 9t16.5 28q0 15 -10.5 22.5t-29.5 7.5q-9 0 -21.5 -2t-28.5 -7l-17 15l15 95h48l-13 -77l-22 8q11 3 25 5t26 2q23 0 41.5 -7.5t30.5 -23t12 -38.5q0 -25 -15.5 -43.5t-41.5 -28.5t-60 -10z" />
    <glyph glyph-name="uni0328" unicode="&#x328;" 
d="M-20 -194q-46 0 -76 26t-30 69q0 39 27 75t71 59l28 -35q-15 -7 -31 -19.5t-26.5 -30.5t-10.5 -39q0 -29 16.5 -41t39.5 -12q12 0 25.5 3t26.5 9l17 -47q-13 -7 -32.5 -12t-44.5 -5z" />
    <glyph glyph-name="uni032E" unicode="&#x32e;" 
d="M0 -215q-66 0 -108 39t-47 111l50 5q4 -49 30.5 -75.5t74.5 -26.5q47 0 74 26.5t31 75.5l50 -5q-5 -71 -46.5 -110.5t-108.5 -39.5z" />
    <glyph glyph-name="uni0331" unicode="&#x331;" 
d="M-157 -158v57h314v-57h-314z" />
    <glyph glyph-name="uni0335" unicode="&#x335;" 
d="M-174 526v57h349v-57h-349z" />
    <glyph glyph-name="uni0337" unicode="&#x337;" 
d="M-113 257l-30 52l256 149l30 -53z" />
    <glyph glyph-name="uni0338" unicode="&#x338;" 
d="M-140 -45l-45 27l325 553l45 -26z" />
    <glyph glyph-name="uni0394" unicode="&#x394;" horiz-adv-x="637" 
d="M41 0v50l246 655h64l245 -655v-50h-555zM316 610l-213 -580l-1 33h434l-2 -33l-214 580h-4z" />
    <glyph glyph-name="Sigma" unicode="&#x3a3;" horiz-adv-x="602" 
d="M53 -180v50l282 407v-28l-282 406v50h496v-63h-427l3 25l263 -379v-50l-266 -384l-2 29h429v-63h-496z" />
    <glyph glyph-name="uni03A9" unicode="&#x3a9;" horiz-adv-x="785" 
d="M48 0v62h212v-6q-75 58 -118 116.5t-60.5 116.5t-17.5 116q0 96 40.5 164.5t114.5 106t173 37.5t173 -37t114.5 -106t40.5 -165q0 -58 -18 -116t-60 -116.5t-118 -116.5v6h211v-62h-285v58q75 61 118 118.5t61.5 112.5t18.5 109q0 120 -68 185.5t-188 65.5
q-119 0 -187.5 -65.5t-68.5 -185.5q0 -54 18.5 -109t62 -112.5t116.5 -118.5v-58h-285z" />
    <glyph glyph-name="uni03BC" unicode="&#x3bc;" horiz-adv-x="624" 
d="M96 -180v674h70v-306q0 -38 12 -69t40 -48t74 -17q47 0 84.5 22.5t58.5 58.5t21 78v281h70v-494h-67v110h-3q-24 -54 -65 -86t-101 -32q-50 0 -80.5 18t-45.5 49h-2l3 -239h-69z" />
    <glyph glyph-name="pi" unicode="&#x3c0;" horiz-adv-x="604" 
d="M516 -5q-84 0 -120.5 48t-36.5 131v262h-178q-1 -88 -8.5 -165t-22 -144.5t-35.5 -126.5h-74q24 65 39 135t23 145t9 156h-101v58h540v-58h-123v-259q0 -27 5 -50t16.5 -39t31 -24t48.5 -8q11 0 22.5 1t26.5 4l-3 -60q-19 -3 -32.5 -4.5t-26.5 -1.5z" />
    <glyph glyph-name="uni0400" unicode="&#x400;" horiz-adv-x="646" 
d="M113 0v705h451v-64h-381v-252h361v-64h-361v-261h381v-64h-451zM318 765l-146 171h87l118 -171h-59z" />
    <glyph glyph-name="uni0401" unicode="&#x401;" horiz-adv-x="646" 
d="M113 0v705h451v-64h-381v-252h361v-64h-361v-261h381v-64h-451zM400 809v80h82v-80h-82zM210 809v80h82v-80h-82z" />
    <glyph glyph-name="uni0402" unicode="&#x402;" horiz-adv-x="884" 
d="M615 -188q-35 0 -65 5.5t-51 15.5l15 59q20 -7 42.5 -12t51.5 -5q65 0 104.5 42.5t39.5 129.5v90q0 108 -55.5 168.5t-168.5 60.5q-33 0 -65 -5t-59.5 -14t-48.5 -23v-324h-70v641h-259v64h587v-64h-258v-249q19 12 48 20.5t63.5 13t67.5 4.5q135 0 211.5 -72t76.5 -215
v-95q0 -76 -25.5 -129t-72 -80t-109.5 -27z" />
    <glyph glyph-name="uni0403" unicode="&#x403;" horiz-adv-x="594" 
d="M113 0v705h448v-64h-378v-641h-70zM271 765l118 171h89l-146 -171h-61z" />
    <glyph glyph-name="uni0404" unicode="&#x404;" horiz-adv-x="713" 
d="M406 -8q-100 0 -173 43.5t-112 124.5t-39 193t39 193t111.5 124t173.5 43q73 0 132.5 -22.5t106.5 -67.5l-29 -55q-48 42 -98 61t-113 19q-117 0 -182 -72.5t-67 -209.5l-25 23h405v-63h-406l25 23q1 -143 66.5 -217.5t183.5 -74.5q63 0 113 18.5t98 61.5l29 -55
q-47 -45 -106.5 -67.5t-132.5 -22.5z" />
    <glyph glyph-name="uni0405" unicode="&#x405;" horiz-adv-x="657" 
d="M344 -8q-59 0 -111 8.5t-95 27.5t-74 47l28 59q36 -30 74.5 -47t83 -23.5t94.5 -6.5q85 0 133 36t48 100q0 33 -15.5 55t-48.5 36t-85 24l-117 24q-96 19 -137.5 65.5t-41.5 117.5q0 60 34.5 104.5t95 69t137.5 24.5q50 0 93 -9.5t78.5 -29t64.5 -48.5l-29 -59
q-44 45 -94.5 63t-113.5 18q-55 0 -99.5 -15.5t-70.5 -45t-26 -74.5q0 -47 29.5 -75t100.5 -42l116 -22q103 -21 151 -65t48 -114q0 -58 -31 -104.5t-87.5 -72.5t-132.5 -26z" />
    <glyph glyph-name="uni0406" unicode="&#x406;" horiz-adv-x="296" 
d="M113 0v705h70v-705h-70z" />
    <glyph glyph-name="uni0407" unicode="&#x407;" horiz-adv-x="296" 
d="M113 0v705h70v-705h-70zM202 809v80h82v-80h-82zM12 809v80h82v-80h-82z" />
    <glyph glyph-name="uni0408" unicode="&#x408;" horiz-adv-x="394" 
d="M12 -7l-5 64l79 4q36 2 64 18.5t44.5 46t16.5 67.5v512h70v-516q0 -53 -24.5 -95.5t-67 -67.5t-96.5 -29z" />
    <glyph glyph-name="uni0409" unicode="&#x409;" horiz-adv-x="1158" 
d="M52 -14l-32 56q42 22 74 55t53.5 84t32 127t10.5 185v212h452v-314h219q73 0 125.5 -21.5t80 -65t27.5 -107.5q0 -65 -27.5 -108.5t-80 -66t-125.5 -22.5h-289v641h-315v-165q0 -107 -12.5 -187.5t-37.5 -138.5t-63.5 -98t-91.5 -66zM642 63h212q86 0 127.5 32t41.5 100
q0 70 -42.5 101.5t-126.5 31.5h-212v-265z" />
    <glyph glyph-name="uni040A" unicode="&#x40a;" horiz-adv-x="1191" 
d="M113 0v705h70v-313h422v313h71v-312h218q74 0 126 -22t79.5 -65t27.5 -108t-27.5 -109t-79.5 -66.5t-126 -22.5h-289v328h-422v-328h-70zM676 63h211q87 0 128 32.5t41 101.5t-42.5 101t-125.5 32h-212v-267z" />
    <glyph glyph-name="uni040B" unicode="&#x40b;" horiz-adv-x="891" 
d="M285 0v641h-259v64h588v-64h-259v-249q22 12 54 20.5t67 13t67 4.5q88 0 152.5 -32t99.5 -96t35 -158v-144h-71v138q0 117 -60 172.5t-161 55.5q-46 0 -95.5 -10.5t-87.5 -31.5v-324h-70z" />
    <glyph glyph-name="uni040C" unicode="&#x40c;" horiz-adv-x="680" 
d="M113 0v705h70v-315h159l-23 -17l222 332h81l-232 -343l-27 25q40 -4 72 -22t58.5 -48.5t47.5 -73.5l119 -243h-79l-99 208q-29 60 -67 89t-97 29h-135v-326h-70zM317 765l118 171h89l-146 -171h-61z" />
    <glyph glyph-name="uni040D" unicode="&#x40d;" horiz-adv-x="812" 
d="M113 0v705h67v-600h1l451 600h67v-705h-68v600v0l-452 -600h-66zM379 765l-146 171h87l118 -171h-59z" />
    <glyph glyph-name="uni040E" unicode="&#x40e;" horiz-adv-x="640" 
d="M203 0l117 227l-1 -30l-317 508h78l266 -427h1l219 427h75l-362 -705h-76zM319 767q-43 0 -80.5 15t-65.5 45t-42 76l50 15q20 -52 55 -74t82 -22q51 0 84.5 21t61.5 74l48 -14q-28 -74 -79 -105t-114 -31z" />
    <glyph glyph-name="uni040F" unicode="&#x40f;" horiz-adv-x="799" 
d="M367 -155v155h-254v705h70v-641h433v641h70v-705h-253v-155h-66z" />
    <glyph glyph-name="uni0410" unicode="&#x410;" horiz-adv-x="764" 
d="M43 0l307 705h65l306 -705h-74l-87 202l39 -21h-433l38 21l-87 -202h-74zM380 619l-166 -390l-25 15h387l-27 -15l-165 390h-4z" />
    <glyph glyph-name="uni0411" unicode="&#x411;" horiz-adv-x="704" 
d="M113 0v705h463v-64h-393v-251h226q74 0 126 -21.5t80 -65t28 -107.5q0 -65 -28 -108.5t-80 -65.5t-126 -22h-296zM183 62h220q86 0 127 32t41 100q0 69 -42 101t-126 32h-220v-265z" />
    <glyph glyph-name="uni0412" unicode="&#x412;" horiz-adv-x="727" 
d="M113 0v705h285q109 0 168.5 -47t59.5 -138q0 -66 -34 -106t-84 -51v-2q35 -5 65.5 -25.5t50 -56.5t19.5 -86q0 -63 -27.5 -106t-80 -65t-126.5 -22h-296zM183 63h223q35 0 61.5 5t46 15.5t32.5 26.5t19.5 36t6.5 45q0 28 -7 49.5t-21 37.5t-33.5 26.5t-46 15.5t-58.5 5
h-223v-262zM183 388h208q82 0 123 33t41 99q0 61 -39.5 91.5t-124.5 30.5h-208v-254z" />
    <glyph glyph-name="uni0413" unicode="&#x413;" horiz-adv-x="594" 
d="M113 0v705h448v-64h-378v-641h-70z" />
    <glyph glyph-name="uni0414" unicode="&#x414;" horiz-adv-x="804" 
d="M28 -155v219h70q38 48 61 115t33.5 152.5t10.5 189.5v184h469v-641h99v-219h-66v155h-611v-155h-66zM173 64h429v577h-333v-123q0 -109 -9.5 -192t-31 -147.5t-55.5 -114.5z" />
    <glyph glyph-name="uni0415" unicode="&#x415;" horiz-adv-x="646" 
d="M113 0v705h451v-64h-381v-252h361v-64h-361v-261h381v-64h-451z" />
    <glyph glyph-name="uni0416" unicode="&#x416;" horiz-adv-x="991" 
d="M20 0l118 242q21 43 47.5 74t60 49t72.5 22l-28 -24l-232 342h81l223 -332l-22 17h121v315h70v-315h122l-23 -17l222 332h81l-232 -342l-26 24q39 -4 71.5 -22t59 -48.5t46.5 -73.5l119 -243h-78l-100 208q-29 60 -67 89t-97 29h-98v-326h-70v326h-98q-57 0 -97 -27.5
t-70 -90.5l-98 -208h-78z" />
    <glyph glyph-name="uni0417" unicode="&#x417;" horiz-adv-x="680" 
d="M324 -8q-61 0 -114.5 10t-96 29.5t-70.5 47.5l28 58q48 -44 110.5 -62.5t139.5 -18.5q106 0 154.5 34.5t48.5 104.5q0 68 -42.5 99.5t-132.5 31.5h-182v63h166q88 0 131.5 32t43.5 94q0 64 -46.5 99t-140.5 35q-63 0 -124.5 -19t-109.5 -62l-28 59q33 29 76.5 48
t92.5 28.5t98 9.5q85 0 141 -23.5t84 -67t28 -102.5q0 -56 -29 -97.5t-86 -60.5v-1q62 -15 96.5 -58.5t34.5 -109.5q0 -63 -29 -108t-88.5 -69t-153.5 -24z" />
    <glyph glyph-name="uni0418" unicode="&#x418;" horiz-adv-x="812" 
d="M113 0v705h67v-600h1l451 600h67v-705h-68v600v0l-452 -600h-66z" />
    <glyph glyph-name="uni0419" unicode="&#x419;" horiz-adv-x="812" 
d="M113 0v705h67v-600h1l451 600h67v-705h-68v600v0l-452 -600h-66zM405 767q-43 0 -80.5 15t-65.5 45t-42 76l50 15q20 -52 55 -74t82 -22q51 0 84.5 21t61.5 74l48 -14q-28 -74 -79 -105t-114 -31z" />
    <glyph glyph-name="uni041A" unicode="&#x41a;" horiz-adv-x="680" 
d="M113 0v705h70v-315h159l-23 -17l222 332h81l-232 -343l-27 25q40 -4 72 -22t58.5 -48.5t47.5 -73.5l119 -243h-79l-99 208q-29 60 -67 89t-97 29h-135v-326h-70z" />
    <glyph glyph-name="uni041B" unicode="&#x41b;" horiz-adv-x="773" 
d="M52 -14l-32 56q42 22 74 55t53.5 84t32 127t10.5 185v212h470v-705h-70v641h-333v-165q0 -107 -12.5 -187.5t-37.5 -138.5t-63.5 -98t-91.5 -66z" />
    <glyph glyph-name="uni041C" unicode="&#x41c;" horiz-adv-x="914" 
d="M115 0v705h86l258 -517h-1l256 517h85v-705h-67v608v0l-247 -497h-54l-249 497v0v-608h-67z" />
    <glyph glyph-name="uni041D" unicode="&#x41d;" horiz-adv-x="803" 
d="M113 0v705h70v-315h437v315h70v-705h-70v326h-437v-326h-70z" />
    <glyph glyph-name="uni041E" unicode="&#x41e;" horiz-adv-x="807" 
d="M403 -8q-74 0 -133.5 24.5t-101.5 71.5t-64 113.5t-22 150.5q0 85 22 152t63.5 113.5t101 71t134.5 24.5q76 0 135.5 -24.5t101.5 -71t63.5 -113t21.5 -151.5q0 -84 -22 -151t-63.5 -114t-101 -71.5t-135.5 -24.5zM403 57q79 0 134.5 33.5t85 99.5t29.5 163t-29 162.5
t-85 99t-135 33.5q-78 0 -133.5 -33.5t-85 -99t-29.5 -162.5q0 -96 29.5 -162t85 -100t133.5 -34z" />
    <glyph glyph-name="uni041F" unicode="&#x41f;" horiz-adv-x="800" 
d="M113 0v705h574v-705h-70v641h-434v-641h-70z" />
    <glyph glyph-name="uni0420" unicode="&#x420;" horiz-adv-x="692" 
d="M113 0v705h280q75 0 127.5 -25t80.5 -71.5t28 -112.5q0 -65 -28 -112.5t-81 -72.5t-127 -25h-210v-286h-70zM183 348h201q86 0 130 37t44 111q0 75 -44 110.5t-130 35.5h-201v-294z" />
    <glyph glyph-name="uni0421" unicode="&#x421;" horiz-adv-x="711" 
d="M404 -9q-99 0 -171.5 43.5t-111.5 125t-39 193.5t39 193t111 124t172 43q74 0 134.5 -23t104.5 -68l-30 -55q-47 43 -96.5 62t-112.5 19q-117 0 -183 -75t-66 -220q0 -144 66 -220t183 -76q63 0 112.5 19t96.5 62l30 -55q-44 -45 -104.5 -68.5t-134.5 -23.5z" />
    <glyph glyph-name="uni0422" unicode="&#x422;" horiz-adv-x="640" 
d="M285 0v641h-259v64h588v-64h-259v-641h-70z" />
    <glyph glyph-name="uni0423" unicode="&#x423;" horiz-adv-x="640" 
d="M203 0l117 227l-1 -30l-317 508h78l266 -427h1l219 427h75l-362 -705h-76z" />
    <glyph glyph-name="uni0424" unicode="&#x424;" horiz-adv-x="923" 
d="M426 -23v121l20 -17h-25q-98 0 -174.5 30.5t-120.5 92.5t-44 154q0 94 43 155t120 91.5t176 30.5h25l-20 -17v115h71v-115l-20 17h24q101 0 177 -30.5t119.5 -91.5t43.5 -155q0 -92 -44.5 -154t-120.5 -92.5t-175 -30.5h-24l20 17v-121h-71zM426 122v472l19 -23h-35
q-70 0 -128.5 -21t-93 -67.5t-34.5 -124.5q0 -56 20.5 -97t56 -67t82 -38t97.5 -12h35zM496 122l-18 22h34q52 0 98.5 12t82 38t56 67t20.5 97q0 78 -35 124.5t-93 67.5t-129 21h-34l18 23v-472z" />
    <glyph glyph-name="uni0425" unicode="&#x425;" horiz-adv-x="671" 
d="M32 0l258 374l1 -23l-244 354h81l207 -301h1l208 301h81l-246 -354v24l260 -375h-82l-223 323v0l-221 -323h-81z" />
    <glyph glyph-name="uni0426" unicode="&#x426;" horiz-adv-x="821" 
d="M722 -155v155h-609v705h70v-641h433v641h71v-644h101v-216h-66z" />
    <glyph glyph-name="uni0427" unicode="&#x427;" horiz-adv-x="726" 
d="M543 0v304q-21 -12 -52.5 -20.5t-66.5 -13t-69 -4.5q-132 0 -206.5 72.5t-74.5 215.5v151h71v-145q0 -118 57 -173.5t159 -55.5q45 0 93.5 9t88.5 33v332h70v-705h-70z" />
    <glyph glyph-name="uni0428" unicode="&#x428;" horiz-adv-x="1097" 
d="M113 0v705h70v-641h330v641h70v-641h331v641h70v-705h-871z" />
    <glyph glyph-name="uni0429" unicode="&#x429;" horiz-adv-x="1116" 
d="M1017 -155v155h-904v705h70v-641h330v641h70v-641h331v641h70v-645h99v-215h-66z" />
    <glyph glyph-name="uni042A" unicode="&#x42a;" horiz-adv-x="845" 
d="M258 0v641h-232v64h303v-314h219q74 0 126 -21.5t79.5 -64.5t27.5 -108q0 -64 -27.5 -108t-79.5 -66.5t-126 -22.5h-290zM329 63h212q85 0 127 32t42 101q0 70 -42.5 101t-126.5 31h-212v-265z" />
    <glyph glyph-name="uni042B" unicode="&#x42b;" horiz-adv-x="912" 
d="M113 0v705h70v-314h211q73 0 125.5 -21.5t80 -65t27.5 -107.5q0 -65 -27.5 -108.5t-80 -66t-125.5 -22.5h-281zM183 63h204q86 0 127 32t41 100q0 70 -42 101.5t-126 31.5h-204v-265zM729 0v705h70v-705h-70z" />
    <glyph glyph-name="uni042C" unicode="&#x42c;" horiz-adv-x="707" 
d="M113 0v705h70v-314h226q74 0 126 -21.5t80 -65t28 -107.5q0 -65 -28 -108.5t-80 -66t-126 -22.5h-296zM183 63h220q86 0 127 32t41 100q0 70 -42 101.5t-126 31.5h-220v-265z" />
    <glyph glyph-name="uni042D" unicode="&#x42d;" horiz-adv-x="713" 
d="M307 -8q-72 0 -132 22.5t-108 67.5l30 55q48 -42 98.5 -61t112.5 -19q117 0 183 74.5t66 216.5l25 -22h-405v63h405l-25 -25q-2 141 -66 212.5t-181 71.5q-63 0 -114 -20t-99 -60l-30 54q48 44 108.5 67.5t133.5 23.5q101 0 173 -42.5t110.5 -123t38.5 -194.5
q0 -113 -39.5 -194t-111.5 -124t-173 -43z" />
    <glyph glyph-name="uni042E" unicode="&#x42e;" horiz-adv-x="1053" 
d="M658 -8q-90 0 -158 40.5t-107.5 115.5t-44.5 179h-164v-327h-71v705h71v-316h164q8 101 47 173.5t106 111.5t158 39q96 0 166 -43.5t108 -124t38 -192.5q0 -84 -22 -150.5t-63 -113.5t-98 -72t-130 -25zM659 56q76 0 129 35.5t81 101.5t28 160q0 141 -62 218.5t-176 77.5
q-75 0 -128.5 -35t-81.5 -101t-28 -160q0 -141 62.5 -219t175.5 -78z" />
    <glyph glyph-name="uni042F" unicode="&#x42f;" horiz-adv-x="726" 
d="M68 0l126 238q19 34 34 50t34 21l8 2l-1 2q-52 6 -90.5 30.5t-59.5 66t-21 96.5q0 98 61 148.5t172 50.5h282v-705h-70v299h-145q-36 0 -60 -6t-41 -22.5t-33 -47.5l-118 -223h-78zM333 361h210v281h-205q-87 0 -128 -32t-41 -105t39 -108.5t125 -35.5z" />
    <glyph glyph-name="uni0430" unicode="&#x430;" horiz-adv-x="618" 
d="M265 -8q-52 0 -94 19t-66 52t-24 74q0 58 33.5 90.5t100.5 45.5t168 13h80v-54h-76q-62 0 -106.5 -4t-73 -14t-42 -27.5t-13.5 -45.5q0 -44 35.5 -67t87.5 -23q47 0 86.5 21.5t64 56.5t24.5 77v116q0 61 -36.5 90.5t-106.5 29.5q-46 0 -89.5 -12t-90.5 -41l-25 55
q30 19 65 32t72 20t73 7q62 0 108.5 -19.5t72.5 -60.5t26 -105v-318h-63v110h-3q-14 -30 -40 -57.5t-63 -44t-85 -16.5z" />
    <glyph glyph-name="uni0431" unicode="&#x431;" horiz-adv-x="623" 
d="M313 -8q-74 0 -128.5 32t-84 94t-29.5 151v77q0 42 4.5 83.5t18 79t39.5 70t69.5 58.5t107.5 43l183 49l24 -59l-203 -53q-91 -24 -134.5 -81t-43.5 -140v-20h2q16 40 42.5 66.5t63 40.5t80.5 14q51 0 93 -17.5t72 -50.5t46.5 -79.5t16.5 -103.5q0 -77 -29.5 -134
t-83 -88.5t-126.5 -31.5zM311 52q79 0 125 48.5t46 142.5q0 92 -46 142.5t-124 50.5q-79 0 -124.5 -49.5t-45.5 -134.5q0 -100 45 -150t124 -50z" />
    <glyph glyph-name="uni0432" unicode="&#x432;" horiz-adv-x="618" 
d="M102 0v494h258q59 0 97.5 -14.5t58 -43.5t19.5 -72q0 -39 -23 -67.5t-62 -41.5v-1q33 -7 55.5 -23.5t34.5 -40.5t12 -54q0 -63 -48.5 -99.5t-135.5 -36.5h-266zM171 54h196q55 0 85.5 20.5t30.5 63.5t-30.5 64t-85.5 21h-196v-169zM171 277h187q51 0 79.5 22t28.5 62
t-28.5 59.5t-79.5 19.5h-187v-163z" />
    <glyph glyph-name="uni0433" unicode="&#x433;" horiz-adv-x="481" 
d="M102 0v494h353v-60h-283v-434h-70z" />
    <glyph glyph-name="uni0434" unicode="&#x434;" horiz-adv-x="658" 
d="M42 -133v193h53q28 36 44 77.5t23 93.5t7 115v148h360v-434h81v-193h-63v133h-442v-133h-63zM169 60h292v375h-228v-97q-1 -84 -15 -154t-49 -124z" />
    <glyph glyph-name="uni0435" unicode="&#x435;" horiz-adv-x="606" 
d="M332 -8q-79 0 -138 30t-91 87.5t-32 138.5q0 74 28.5 131.5t83 90.5t129.5 33t124.5 -32t74.5 -88.5t25 -132.5v-22h-416v55h375l-22 -22q0 87 -42 135.5t-119 48.5q-50 0 -89 -23t-61 -64.5t-22 -100.5v-9q0 -63 23.5 -106.5t67 -66.5t101.5 -23q41 0 85 11.5t82 43.5
l28 -52q-38 -33 -91 -48t-104 -15z" />
    <glyph glyph-name="uni0436" unicode="&#x436;" horiz-adv-x="852" 
d="M18 0l106 166q22 36 41.5 59t43 36t57.5 16l-22 -18l-198 235h79l177 -209h89v209h70v-209h89l177 209h79l-198 -235l-22 18q32 -3 54 -14t42.5 -33.5t45.5 -63.5l106 -166h-76l-97 151q-17 28 -33 44.5t-37.5 24t-57.5 7.5h-72v-227h-70v227h-72q-35 0 -57 -7.5
t-37.5 -24t-33.5 -44.5l-97 -151h-76z" />
    <glyph glyph-name="uni0437" unicode="&#x437;" horiz-adv-x="556" 
d="M272 -8q-67 0 -128 17t-95 47l25 51q37 -30 89.5 -42.5t107.5 -12.5q80 0 115 21.5t35 65.5q0 43 -30 63.5t-85 20.5h-132v57h123q49 0 78 20t29 59q0 40 -31 62t-97 22q-53 0 -102.5 -13t-91.5 -43l-25 55q44 31 101.5 46t121.5 15q97 0 144.5 -37t47.5 -102
q0 -38 -23.5 -67t-66.5 -42v-2q36 -7 60 -23.5t36 -40t12 -53.5q0 -65 -54.5 -104.5t-163.5 -39.5z" />
    <glyph glyph-name="uni0438" unicode="&#x438;" horiz-adv-x="643" 
d="M102 0v494h67v-401v0l304 401h68v-494h-67v402v0l-304 -402h-68z" />
    <glyph glyph-name="uni0439" unicode="&#x439;" horiz-adv-x="643" 
d="M102 0v494h67v-401v0l304 401h68v-494h-67v402v0l-304 -402h-68zM320 564q-39 0 -73.5 15t-59.5 45t-38 75l50 16q16 -49 46 -72.5t76 -23.5q44 0 73.5 21.5t53.5 73.5l48 -15q-17 -48 -43.5 -77.5t-60 -43.5t-72.5 -14z" />
    <glyph glyph-name="uni043A" unicode="&#x43a;" horiz-adv-x="577" 
d="M102 0v494h70v-209h103l177 209h79l-200 -237l-16 19q32 -3 54 -15t41.5 -35t42.5 -60l106 -166h-77l-94 148q-17 27 -33 44.5t-37.5 26t-56.5 8.5h-89v-227h-70z" />
    <glyph glyph-name="uni043B" unicode="&#x43b;" horiz-adv-x="630" 
d="M66 -10l-28 54q39 17 64.5 44t39 66t19 93.5t5.5 129.5v117h362v-494h-70v434h-226v-59q0 -81 -7 -143.5t-25.5 -109.5t-50.5 -79.5t-83 -52.5z" />
    <glyph glyph-name="uni043C" unicode="&#x43c;" horiz-adv-x="735" 
d="M102 0v494h64l202 -339l201 339h64v-494h-64v385v0l-182 -306h-38l-183 306v0v-385h-64z" />
    <glyph glyph-name="uni043D" unicode="&#x43d;" horiz-adv-x="647" 
d="M102 0v494h70v-208h303v208h70v-494h-70v226h-303v-226h-70z" />
    <glyph glyph-name="uni043E" unicode="&#x43e;" horiz-adv-x="621" 
d="M311 -8q-74 0 -128 31.5t-83 89.5t-29 135t29.5 134t83 89t127.5 32t127.5 -32t83 -89t29.5 -134t-29.5 -135t-83 -89.5t-127.5 -31.5zM310 54q79 0 125 53t46 141t-45.5 140t-124.5 52t-124.5 -52t-45.5 -140t45.5 -141t123.5 -53z" />
    <glyph glyph-name="uni043F" unicode="&#x43f;" horiz-adv-x="642" 
d="M102 0v494h438v-494h-70v434h-298v-434h-70z" />
    <glyph glyph-name="uni0440" unicode="&#x440;" horiz-adv-x="652" 
d="M102 -180v674h64v-109h3q23 56 71 87t112 31q69 0 121 -32t80.5 -89.5t28.5 -134.5q0 -75 -28.5 -133t-80 -90t-120.5 -32q-64 0 -110.5 30.5t-68.5 83.5h-2v-286h-70zM341 52q79 0 124.5 53.5t45.5 142.5t-45.5 141.5t-124.5 52.5t-124.5 -52.5t-45.5 -141.5
t45.5 -142.5t124.5 -53.5z" />
    <glyph glyph-name="uni0441" unicode="&#x441;" horiz-adv-x="523" 
d="M319 -8q-76 0 -131.5 31t-86 88.5t-30.5 135.5q0 79 30.5 136.5t86.5 88.5t131 31q51 0 96.5 -18t75.5 -49l-28 -53q-30 28 -67 42.5t-72 14.5q-84 0 -133 -51t-49 -143q0 -91 49 -141.5t132 -50.5q36 0 72.5 14.5t64.5 39.5l28 -52q-29 -30 -73.5 -47t-95.5 -17z" />
    <glyph glyph-name="uni0442" unicode="&#x442;" horiz-adv-x="495" 
d="M213 0v434h-194v60h457v-60h-193v-434h-70z" />
    <glyph glyph-name="uni0443" unicode="&#x443;" horiz-adv-x="558" 
d="M167 -180l88 205v-53l-219 522h76l168 -420v0l169 420h74l-282 -674h-74z" />
    <glyph glyph-name="uni0444" unicode="&#x444;" horiz-adv-x="923" 
d="M427 -180l1 273h-2q-16 -43 -58 -72t-96 -29q-61 0 -106 31t-70 88.5t-25 135.5q0 79 25 136.5t70 88.5t106 31q54 0 96 -29t58 -73h2l-1 281h70l-1 -281h2q17 44 58 73t96 29q60 0 105 -31.5t70.5 -89t25.5 -135.5q0 -77 -25 -135t-70.5 -89t-105.5 -31q-55 0 -96 29
t-58 72h-2l1 -273h-70zM284 52q40 0 72.5 22t52 65.5t19.5 107.5q0 65 -19.5 108t-52 65t-72.5 22q-64 0 -103.5 -49t-39.5 -146q0 -96 39.5 -145.5t103.5 -49.5zM638 52q65 0 105 49.5t40 145.5q0 97 -40 146t-105 49q-39 0 -71 -22t-51.5 -65t-19.5 -108
q0 -64 19.5 -107.5t51.5 -65.5t71 -22z" />
    <glyph glyph-name="uni0445" unicode="&#x445;" horiz-adv-x="551" 
d="M39 0l203 273v-38l-193 259h81l145 -197v0l145 197h81l-192 -256l1 31l202 -269h-82l-155 209v0l-155 -209h-81z" />
    <glyph glyph-name="uni0446" unicode="&#x446;" horiz-adv-x="657" 
d="M545 -133v133h-443v494h70v-434h287v434h70v-435h80v-192h-64z" />
    <glyph glyph-name="uni0447" unicode="&#x447;" horiz-adv-x="609" 
d="M437 0v214q-30 -22 -66 -33t-77 -11q-77 0 -124 24t-68 69t-21 107v124h70v-120q0 -46 13.5 -77.5t46.5 -48t89 -16.5q41 0 74 9t63 30v223h70v-494h-70z" />
    <glyph glyph-name="uni0448" unicode="&#x448;" horiz-adv-x="870" 
d="M102 0v494h69v-434h230v434h69v-434h229v434h69v-494h-666z" />
    <glyph glyph-name="uni0449" unicode="&#x449;" horiz-adv-x="897" 
d="M785 -133v133h-683v494h69v-434h230v434h69v-434h229v434h69v-438h80v-189h-63z" />
    <glyph glyph-name="uni044A" unicode="&#x44a;" horiz-adv-x="698" 
d="M188 0v434h-169v60h239v-173h181q97 0 147.5 -42.5t50.5 -117.5q0 -49 -23 -85t-67.5 -56t-107.5 -20h-251zM258 57h176q62 0 97 24.5t35 79.5t-35 79t-97 24h-176v-207z" />
    <glyph glyph-name="uni044B" unicode="&#x44b;" horiz-adv-x="815" 
d="M102 0v494h70v-173h172q98 0 148.5 -42.5t50.5 -117.5q0 -49 -23.5 -85t-67.5 -56t-108 -20h-242zM172 57h166q64 0 99 24.5t35 79.5t-35 79t-99 24h-166v-207zM643 0v494h70v-494h-70z" />
    <glyph glyph-name="uni044C" unicode="&#x44c;" horiz-adv-x="613" 
d="M102 0v494h70v-173h180q98 0 148.5 -42.5t50.5 -117.5q0 -49 -23 -85t-67.5 -56t-108.5 -20h-250zM172 57h174q64 0 99.5 24.5t35.5 79.5t-35.5 79t-99.5 24h-174v-207z" />
    <glyph glyph-name="uni044D" unicode="&#x44d;" horiz-adv-x="554" 
d="M227 -8q-40 0 -76.5 7.5t-65.5 22t-47 34.5l26 50q31 -29 73 -41.5t88 -12.5q63 0 105 22t63.5 64.5t22.5 101.5l9 -15h-294v56h294l-9 -15q-1 50 -21.5 90t-62 63.5t-107.5 23.5q-42 0 -84.5 -13t-76.5 -43l-27 51q28 24 77.5 44.5t112.5 20.5q82 0 139 -30.5t87.5 -87
t30.5 -134.5q0 -79 -30.5 -137.5t-87.5 -90t-139 -31.5z" />
    <glyph glyph-name="uni044E" unicode="&#x44e;" horiz-adv-x="852" 
d="M542 -8q-70 0 -122.5 29t-82.5 82t-35 124h-130v-227h-70v494h70v-207h132q11 99 74 157.5t164 58.5q74 0 127.5 -32t82.5 -89t29 -134t-29 -134.5t-82.5 -89.5t-127.5 -32zM541 54q79 0 125 53t46 141t-45.5 140t-124.5 52t-125 -52t-46 -140t46 -141t124 -53z" />
    <glyph glyph-name="uni044F" unicode="&#x44f;" horiz-adv-x="610" 
d="M60 0l81 134q19 30 43 48.5t49 18.5h6v3q-42 1 -78 17t-57.5 47.5t-21.5 78.5q0 67 47 107t141 40h238v-494h-69v192h-98q-47 0 -78.5 -20.5t-50.5 -52.5l-72 -119h-80zM282 247h158v191h-158q-67 0 -99 -24t-32 -70t32 -71.5t99 -25.5z" />
    <glyph glyph-name="uni0450" unicode="&#x450;" horiz-adv-x="606" 
d="M332 -8q-79 0 -138 30t-91 87.5t-32 138.5q0 74 28.5 131.5t83 90.5t129.5 33t124.5 -32t74.5 -88.5t25 -132.5v-22h-416v55h375l-22 -22q0 87 -42 135.5t-119 48.5q-50 0 -89 -23t-61 -64.5t-22 -100.5v-9q0 -63 23.5 -106.5t67 -66.5t101.5 -23q41 0 85 11.5t82 43.5
l28 -52q-38 -33 -91 -48t-104 -15zM286 560l-129 193h82l103 -193h-56z" />
    <glyph glyph-name="uni0451" unicode="&#x451;" horiz-adv-x="606" 
d="M332 -8q-79 0 -138 30t-91 87.5t-32 138.5q0 74 28.5 131.5t83 90.5t129.5 33t124.5 -32t74.5 -88.5t25 -132.5v-22h-416v55h375l-22 -22q0 87 -42 135.5t-119 48.5q-50 0 -89 -23t-61 -64.5t-22 -100.5v-9q0 -63 23.5 -106.5t67 -66.5t101.5 -23q41 0 85 11.5t82 43.5
l28 -52q-38 -33 -91 -48t-104 -15zM367 621v82h82v-82h-82zM177 621v82h82v-82h-82z" />
    <glyph glyph-name="uni0452" unicode="&#x452;" horiz-adv-x="641" 
d="M380 -187l-16 60q37 5 61.5 19t37 40t12.5 67v297q0 40 -12 70.5t-39.5 47.5t-74.5 17q-49 0 -87 -22.5t-60 -58.5t-22 -78v-272h-70v557h-90v54h90v94h68v-94h196v-54h-196v-180h3q22 53 69.5 84.5t108.5 31.5q62 0 103.5 -21.5t62 -64t20.5 -107.5v-299q0 -56 -18 -95
t-54.5 -61.5t-92.5 -31.5z" />
    <glyph glyph-name="uni0453" unicode="&#x453;" horiz-adv-x="481" 
d="M102 0v494h353v-60h-283v-434h-70zM234 566l104 194h81l-129 -194h-56z" />
    <glyph glyph-name="uni0454" unicode="&#x454;" horiz-adv-x="554" 
d="M326 -8q-77 0 -134.5 31.5t-89 90t-31.5 137.5q0 78 31.5 134t90 87t136.5 31q69 0 115.5 -19t72.5 -46l-26 -51q-30 30 -71 43t-91 13q-62 0 -104 -23.5t-63.5 -63t-22.5 -90.5l-10 15h294v-56h-294l10 15q1 -59 23.5 -101.5t65 -64.5t101.5 -22q52 0 91.5 12.5
t69.5 41.5l26 -50q-17 -20 -45 -34.5t-64 -22t-81 -7.5z" />
    <glyph glyph-name="uni0455" unicode="&#x455;" horiz-adv-x="559" 
d="M281 -8q-40 0 -79.5 7.5t-73 21.5t-56.5 35l26 52q26 -21 57 -33.5t64 -17.5t63 -5q65 0 103 21t38 57q0 33 -22 50.5t-72 26.5l-103 19q-69 12 -104.5 45t-35.5 89q0 43 24.5 75t69 50t105.5 18q35 0 72.5 -7.5t70 -21.5t51.5 -35l-27 -51q-21 20 -49.5 32t-59 17.5
t-59.5 5.5q-60 0 -95.5 -22t-35.5 -59q0 -32 20.5 -49.5t66.5 -26.5l101 -19q75 -14 111.5 -46t36.5 -88q0 -43 -25.5 -75t-72.5 -49t-110 -17z" />
    <glyph glyph-name="uni0456" unicode="&#x456;" horiz-adv-x="273" 
d="M92 621v84h89v-84h-89zM102 0v494h70v-494h-70z" />
    <glyph glyph-name="uni0457" unicode="&#x457;" horiz-adv-x="273" 
d="M102 0v494h70v-494h-70zM190 621v82h82v-82h-82zM0 621v82h82v-82h-82z" />
    <glyph glyph-name="uni0458" unicode="&#x458;" horiz-adv-x="251" 
d="M82 621v84h89v-84h-89zM-52 -193l-5 61l49 6q48 5 74 30.5t26 80.5v509h70v-507q0 -41 -10.5 -71.5t-30.5 -52t-50 -34t-71 -17.5z" />
    <glyph glyph-name="uni0459" unicode="&#x459;" horiz-adv-x="968" 
d="M66 -10l-28 54q39 17 64.5 44t39 66t19 93.5t5.5 129.5v117h362v-173h181q97 0 147.5 -42.5t50.5 -117.5q0 -49 -23 -85t-67.5 -56t-107.5 -20h-251v434h-226v-59q0 -81 -7 -143.5t-25.5 -109.5t-50.5 -79.5t-83 -52.5zM528 57h176q62 0 97 25t35 79t-35 78.5t-97 24.5
h-176v-207z" />
    <glyph glyph-name="uni045A" unicode="&#x45a;" horiz-adv-x="985" 
d="M102 0v494h70v-208h303v208h70v-180h180q98 0 148.5 -40.5t50.5 -115.5q0 -49 -23 -84.5t-67 -54.5t-109 -19h-250v226h-303v-226h-70zM545 57h176q62 0 97.5 23.5t35.5 76.5q0 55 -35 78t-98 23h-176v-201z" />
    <glyph glyph-name="uni045B" unicode="&#x45b;" horiz-adv-x="644" 
d="M110 0v557h-90v54h90v94h68v-94h196v-54h-196v-180h3q22 54 69.5 85t108.5 31q93 0 139.5 -48.5t46.5 -144.5v-300h-70v296q0 40 -12 70.5t-39.5 47.5t-73.5 17q-49 0 -87.5 -22.5t-60.5 -58.5t-22 -78v-272h-70z" />
    <glyph glyph-name="uni045C" unicode="&#x45c;" horiz-adv-x="577" 
d="M102 0v494h70v-209h103l177 209h79l-200 -237l-16 19q32 -3 54 -15t41.5 -35t42.5 -60l106 -166h-77l-94 148q-17 27 -33 44.5t-37.5 26t-56.5 8.5h-89v-227h-70zM287 566l104 194h81l-129 -194h-56z" />
    <glyph glyph-name="uni045D" unicode="&#x45d;" horiz-adv-x="643" 
d="M102 0v494h67v-401v0l304 401h68v-494h-67v402v0l-304 -402h-68zM295 567l-129 193h82l103 -193h-56z" />
    <glyph glyph-name="uni045E" unicode="&#x45e;" horiz-adv-x="558" 
d="M167 -180l88 205v-53l-219 522h76l168 -420v0l169 420h74l-282 -674h-74zM276 557q-39 0 -73.5 15t-59.5 45t-38 75l50 16q16 -49 46 -72.5t76 -23.5q44 0 73.5 21.5t53.5 73.5l48 -15q-17 -48 -43.5 -77.5t-60 -43.5t-72.5 -14z" />
    <glyph glyph-name="uni045F" unicode="&#x45f;" horiz-adv-x="641" 
d="M289 -133v133h-187v494h70v-434h297v434h70v-494h-187v-133h-63z" />
    <glyph glyph-name="uni0462" unicode="&#x462;" horiz-adv-x="774" 
d="M180 0v535h-166v62h166v108h70v-108h257v-62h-257v-148h226q74 0 126 -21t80 -64t28 -108q0 -64 -27.5 -107t-80 -65t-126.5 -22h-296zM250 62h220q86 0 127 32t41 99q0 69 -42 100.5t-126 31.5h-220v-263z" />
    <glyph glyph-name="uni0463" unicode="&#x463;" horiz-adv-x="695" 
d="M184 0v441h-165v53h165v211h70v-211h172v-53h-172v-123h181q97 0 148 -41.5t51 -117.5q0 -48 -23.5 -84t-68 -55.5t-107.5 -19.5h-251zM254 55h175q63 0 98.5 25t35.5 80t-35.5 79t-98.5 24h-175v-208z" />
    <glyph glyph-name="uni046A" unicode="&#x46a;" horiz-adv-x="990" 
d="M20 0l118 243q24 48 55.5 80t76 48.5t102.5 16.5h70l-7 -28l-310 345h738l-309 -345l-8 28h72q59 0 103 -16.5t76 -48.5t55 -80l118 -243h-78l-99 208q-29 63 -68.5 90.5t-97.5 27.5h-97v-326h-70v326h-97q-58 0 -97 -27.5t-69 -90.5l-99 -208h-78zM493 385h3l265 296
l10 -38h-553l10 38z" />
    <glyph glyph-name="uni046B" unicode="&#x46b;" horiz-adv-x="852" 
d="M18 0l106 166q28 44 51.5 68.5t55 35.5t81.5 11h63l-8 -18l-229 231h576l-229 -231l-8 18h63q46 0 76 -8t55.5 -33t57.5 -74l105 -166h-76l-97 151q-17 28 -33 44t-37.5 23.5t-57.5 7.5h-72v-226h-70v226h-72q-35 0 -57 -7.5t-37.5 -23.5t-33.5 -44l-97 -151h-76z
M424 284h4l178 182l3 -27h-367l4 27z" />
    <glyph glyph-name="uni0472" unicode="&#x472;" horiz-adv-x="807" 
d="M133 333v58h564v-58h-564zM403 -8q-74 0 -133.5 24.5t-101.5 71.5t-64 113.5t-22 150.5q0 85 22 152t63.5 113.5t101 71t134.5 24.5q76 0 135.5 -24.5t101.5 -71t63.5 -113t21.5 -151.5q0 -84 -22 -151t-63.5 -114t-101 -71.5t-135.5 -24.5zM403 57q79 0 134.5 33.5
t85 99.5t29.5 163t-29 162.5t-85 99t-135 33.5q-78 0 -133.5 -33.5t-85 -99t-29.5 -162.5q0 -96 29.5 -162t85 -100t133.5 -34z" />
    <glyph glyph-name="uni0473" unicode="&#x473;" horiz-adv-x="621" 
d="M311 -8q-74 0 -128 31.5t-83 89.5t-29 135t29 134t83 89t128 32t127.5 -32t83 -89t29.5 -134t-29.5 -135t-83 -89.5t-127.5 -31.5zM310 51q80 0 126 54t46 143t-45.5 142t-125.5 53q-81 0 -126.5 -53t-45.5 -142t46 -143t125 -54zM107 220v54h407v-54h-407z" />
    <glyph glyph-name="uni0474" unicode="&#x474;" horiz-adv-x="758" 
d="M309 0l-302 705h76l259 -617h-1l182 439q21 48 42.5 83.5t49 58t63.5 33.5t85 11l6 -63q-45 0 -76 -11t-55 -41t-48 -88l-217 -510h-64z" />
    <glyph glyph-name="uni0475" unicode="&#x475;" horiz-adv-x="611" 
d="M248 0l-207 494h76l167 -419h1l125 309q13 30 27 52t34 37t47.5 22.5t67.5 7.5l7 -62q-37 -1 -59 -9t-36.5 -26t-29.5 -51l-148 -355h-72z" />
    <glyph glyph-name="uni048A" unicode="&#x48a;" horiz-adv-x="825" 
d="M665 -151l52 151h-86v600l-1 -1l-451 -599h-66v705h67v-599l1 1l451 598h67v-645h102l-70 -211h-66zM405 767q-43 0 -80.5 15t-65.5 45t-42 76l50 15q20 -52 55 -74t82 -22q51 0 84.5 21t61.5 74l48 -14q-28 -74 -79.5 -105t-113.5 -31z" />
    <glyph glyph-name="uni048B" unicode="&#x48b;" horiz-adv-x="661" 
d="M490 -128l47 128h-63v54h146l-65 -182h-65zM102 0v494h67v-401v0l304 401h68v-494h-67v402v0l-304 -402h-68zM321 565q-40 0 -74 14.5t-59.5 45t-38.5 75.5l50 16q17 -50 47 -73.5t75 -23.5q44 0 73.5 21.5t53.5 74.5l48 -15q-16 -48 -42.5 -78t-60 -43.5t-72.5 -13.5z
" />
    <glyph glyph-name="uni048C" unicode="&#x48c;" horiz-adv-x="773" 
d="M179 0v535h-158v62h158v108h70v-108h176v-62h-176v-148h227q74 0 126 -21t79.5 -64t27.5 -108q0 -64 -27.5 -107t-80 -65t-125.5 -22h-297zM249 62h220q86 0 127 32t41 99q0 69 -42 100.5t-126 31.5h-220v-263z" />
    <glyph glyph-name="uni048D" unicode="&#x48d;" horiz-adv-x="695" 
d="M184 0v441h-165v53h165v211h70v-211h172v-53h-172v-123h181q97 0 148 -41.5t51 -117.5q0 -48 -23.5 -84t-68 -55.5t-107.5 -19.5h-251zM254 55h175q63 0 98.5 25t35.5 80t-35.5 79t-98.5 24h-175v-208z" />
    <glyph glyph-name="uni048E" unicode="&#x48e;" horiz-adv-x="692" 
d="M113 0v705h280q75 0 127.5 -25t80.5 -71.5t28 -112.5q0 -68 -30.5 -116.5t-88.5 -72.5l3 15l71 -107l-48 -32l-81 124l23 -11q-19 -5 -40 -7.5t-45 -2.5h-210v-286h-70zM183 348h201q16 0 30.5 1.5t27.5 4.5l-7 -14l-62 93l49 31l68 -104l-15 3q83 32 83 133
q0 75 -44 110.5t-130 35.5h-201v-294z" />
    <glyph glyph-name="uni048F" unicode="&#x48f;" horiz-adv-x="653" 
d="M102 -180v674h65v-109h2q23 56 71 87t113 31q69 0 120.5 -32t80 -89.5t28.5 -134.5q0 -73 -26.5 -129t-73.5 -88l2 13l61 -82l-40 -31l-66 88l16 -4q-22 -11 -47.5 -16.5t-54.5 -5.5q-64 0 -110.5 30.5t-68.5 83.5h-2v-286h-70zM341 52q22 0 40.5 4.5t34.5 11.5l-6 -12
l-71 94l41 31l74 -98l-12 1q33 25 51 67t18 97q0 89 -45 141.5t-125 52.5q-79 0 -124.5 -52.5t-45.5 -141.5t46 -142.5t124 -53.5z" />
    <glyph glyph-name="uni0490" unicode="&#x490;" horiz-adv-x="595" 
d="M113 0v705h383v153h66v-217h-379v-641h-70z" />
    <glyph glyph-name="uni0491" unicode="&#x491;" horiz-adv-x="481" 
d="M102 0v494h289v119h64v-179h-283v-434h-70z" />
    <glyph glyph-name="uni0492" unicode="&#x492;" horiz-adv-x="603" 
d="M123 0v321h-106v61h106v323h447v-64h-377v-259h210v-62l-210 1v-321h-70z" />
    <glyph glyph-name="uni0493" unicode="&#x493;" horiz-adv-x="498" 
d="M120 0v214h-103v57h103v223h352v-60h-282v-163h156v-57h-156v-214h-70z" />
    <glyph glyph-name="uni0494" unicode="&#x494;" horiz-adv-x="712" 
d="M443 -188q-36 0 -65.5 5.5t-50.5 15.5l15 59q20 -8 43 -12.5t52 -4.5q65 0 104.5 42.5t39.5 129.5v90q0 108 -56 168.5t-169 60.5q-33 0 -65 -5t-59.5 -14t-48.5 -23v-324h-70v705h456v-64h-386v-249q19 12 48 20.5t63 13t68 4.5q135 0 211.5 -72t76.5 -215v-95
q0 -76 -25.5 -129t-72 -80t-109.5 -27z" />
    <glyph glyph-name="uni0495" unicode="&#x495;" horiz-adv-x="607" 
d="M348 -187l-19 59q45 7 77 26.5t49 53.5t17 82v88q0 71 -28 107t-103 36q-77 0 -123 -40.5t-46 -114.5v-110h-70v494h356v-59h-286v-212h1q24 44 67 73.5t113 29.5q68 0 109.5 -23.5t61 -68.5t19.5 -108v-91q0 -46 -12.5 -83.5t-37 -65.5t-61 -46.5t-84.5 -26.5z" />
    <glyph glyph-name="uni0496" unicode="&#x496;" horiz-adv-x="995" 
d="M956 -151v151h-43v60h108v-211h-65zM20 0l118 242q21 43 47.5 74t60 49t72.5 22l-28 -24l-232 342h81l223 -332l-22 17h121v315h70v-315h122l-23 -17l222 332h81l-232 -342l-26 24q39 -4 71.5 -22t59 -48.5t46.5 -73.5l119 -243h-78l-100 208q-29 60 -67 89t-97 29h-98
v-326h-70v326h-98q-57 0 -97 -27.5t-70 -90.5l-98 -208h-78z" />
    <glyph glyph-name="uni0497" unicode="&#x497;" horiz-adv-x="870" 
d="M803 -128v128h-35v56h99v-184h-64zM18 0l106 166q22 36 41.5 59t43 36t57.5 16l-22 -18l-198 235h79l177 -209h89v209h70v-209h89l177 209h79l-198 -235l-22 18q32 -3 54 -14t42.5 -33.5t45.5 -63.5l106 -166h-76l-97 151q-17 28 -33 44.5t-37.5 24t-57.5 7.5h-72v-227
h-70v227h-72q-35 0 -57 -7.5t-37.5 -24t-33.5 -44.5l-97 -151h-76z" />
    <glyph glyph-name="uni0498" unicode="&#x498;" horiz-adv-x="680" 
d="M291 -166v159q-81 3 -145.5 25.5t-102.5 60.5l28 58q48 -44 110.5 -62.5t139.5 -18.5q106 0 154.5 34.5t48.5 104.5q0 68 -42.5 99.5t-132.5 31.5h-182v63h166q88 0 131.5 32t43.5 94q0 64 -46.5 99t-140.5 35q-63 0 -124.5 -19t-109.5 -62l-28 59q33 29 76.5 48
t92.5 28.5t98 9.5q85 0 141 -23.5t84 -67t28 -102.5q0 -56 -28.5 -97t-84.5 -61v-2q61 -15 95 -58t34 -109q0 -88 -57.5 -141t-180.5 -60v-158h-66z" />
    <glyph glyph-name="uni0499" unicode="&#x499;" horiz-adv-x="556" 
d="M242 -134v126q-59 4 -111 20.5t-82 43.5l25 51q37 -30 89.5 -42.5t107.5 -12.5q80 0 115 21.5t35 65.5q0 43 -30 63.5t-85 20.5h-132v57h123q49 0 78 20t29 59q0 40 -31 62t-97 22q-53 0 -102.5 -13t-91.5 -43l-25 55q44 31 101.5 46t121.5 15q97 0 144.5 -37t47.5 -102
q0 -38 -22.5 -66.5t-64.5 -42.5v-2q52 -13 78.5 -43t26.5 -74q0 -61 -47 -99.5t-140 -44.5v-126h-61z" />
    <glyph glyph-name="uni049A" unicode="&#x49a;" horiz-adv-x="687" 
d="M644 -151v151h-43v60h108v-211h-65zM113 0v705h70v-315h159l-23 -17l222 332h81l-232 -343l-27 25q40 -4 72 -22t58.5 -48.5t47.5 -73.5l119 -243h-79l-99 208q-29 60 -67 89t-97 29h-135v-326h-70z" />
    <glyph glyph-name="uni049B" unicode="&#x49b;" horiz-adv-x="594" 
d="M527 -128v128h-34v56h98v-184h-64zM102 0v494h70v-209h103l177 209h79l-200 -237l-16 19q32 -3 54 -15t41.5 -35t42.5 -60l106 -166h-77l-94 148q-17 27 -33 44.5t-37.5 26t-56.5 8.5h-89v-227h-70z" />
    <glyph glyph-name="uni049C" unicode="&#x49c;" horiz-adv-x="709" 
d="M113 0v705h70v-316h86v167h59v-167h31l211 316h81l-231 -343l-22 20q38 -3 69.5 -20t56.5 -46.5t46 -72.5l119 -243h-79l-99 208q-29 59 -67 88.5t-97 29.5h-28l9 10v-178h-59v168h-86v-326h-70z" />
    <glyph glyph-name="uni049D" unicode="&#x49d;" horiz-adv-x="600" 
d="M102 0v494h69v-209h61v121h56v-121h19l168 209h79l-192 -237l-24 19q33 -3 55 -15t41 -35t43 -60l105 -166h-76l-95 149q-17 27 -32.5 44t-37 25.5t-56.5 8.5h-8l11 20v-150h-56v130h-61v-227h-69z" />
    <glyph glyph-name="uni049E" unicode="&#x49e;" horiz-adv-x="730" 
d="M165 0v538h-157v59h157v108h70v-108h151v-59h-152v-149h165l-28 -21l224 337h81l-234 -348l-17 26q34 -3 64 -20.5t56 -47t46 -72.5l119 -243h-79l-99 208q-30 64 -69 91t-96 27h-132v-326h-70z" />
    <glyph glyph-name="uni049F" unicode="&#x49f;" horiz-adv-x="585" 
d="M110 0v557h-90v54h90v94h70v-94h194v-54h-194v-272h103l175 208h79l-198 -236l-16 19q32 -3 54 -15.5t41.5 -35t42.5 -59.5l106 -166h-77l-95 149q-17 27 -32.5 44t-37 25.5t-56.5 8.5h-89v-227h-70z" />
    <glyph glyph-name="uni04A0" unicode="&#x4a0;" horiz-adv-x="777" 
d="M26 644v61h254v-61h-254zM210 0v705h70v-315h159l-23 -17l222 332h81l-232 -343l-27 25q39 -4 71.5 -22t59 -48.5t47.5 -73.5l119 -243h-79l-99 208q-29 60 -67 89t-97 29h-135v-326h-70z" />
    <glyph glyph-name="uni04A1" unicode="&#x4a1;" horiz-adv-x="662" 
d="M188 0v434h-169v60h239v-209h103l176 209h79l-200 -237l-15 19q32 -3 54 -15t41 -35t43 -60l106 -166h-77l-94 148q-17 27 -33 44.5t-37.5 26t-56.5 8.5h-89v-227h-70z" />
    <glyph glyph-name="uni04A2" unicode="&#x4a2;" horiz-adv-x="840" 
d="M721 -151v151h-101v60h167v-211h-66zM113 0v705h70v-315h437v315h70v-705h-70v326h-437v-326h-70z" />
    <glyph glyph-name="uni04A3" unicode="&#x4a3;" horiz-adv-x="663" 
d="M557 -128v128h-82v226h-303v-226h-70v494h70v-208h303v208h70v-437h75v-185h-63z" />
    <glyph glyph-name="uni04A4" unicode="&#x4a4;" horiz-adv-x="995" 
d="M113 0v705h70v-315h437v315h349v-64h-279v-641h-70v326h-437l1 -326h-71z" />
    <glyph glyph-name="uni04A5" unicode="&#x4a5;" horiz-adv-x="793" 
d="M102 0v494h70v-208h275v208h320v-60h-250v-434h-70v226h-275v-226h-70z" />
    <glyph glyph-name="uni04A8" unicode="&#x4a8;" horiz-adv-x="864" 
d="M418 -8q-98 0 -174 43.5t-119 124t-43 190.5q0 114 42 195t117 124.5t174 43.5q21 0 39.5 -2t28.5 -5l-9 -63q-18 3 -32.5 4t-25.5 1q-77 0 -136 -34.5t-92 -101t-33 -161.5q0 -96 34 -162.5t94.5 -100.5t139.5 -34q80 0 141 32.5t95 92.5t34 143q0 79 -35.5 122
t-92.5 43t-93 -43t-36 -122q0 -83 36 -143t98.5 -92.5t141.5 -32.5q24 0 47 3t44 9.5t39 16.5l19 -59q-27 -16 -64.5 -24t-83.5 -8q-56 0 -107.5 15t-95 44t-76 70t-50.5 92.5t-18 110.5q0 71 26 122t70.5 78t102.5 27q57 0 102 -27t70.5 -78t25.5 -122q0 -74 -26.5 -135.5
t-73.5 -105.5t-110 -67.5t-135 -23.5z" />
    <glyph glyph-name="uni04A9" unicode="&#x4a9;" horiz-adv-x="697" 
d="M341 -8q-82 0 -143 31t-94 89.5t-33 137.5q0 77 31 133.5t86.5 88t130.5 31.5q31 0 61.5 -6t49.5 -16l-18 -56q-14 9 -39 13.5t-51 4.5q-82 0 -132.5 -50t-50.5 -142q0 -67 25.5 -112t71 -68t106.5 -23t107 18.5t71 55t25 90.5q0 48 -24 73.5t-65 25.5t-65 -25.5
t-24 -73.5q0 -53 24.5 -90.5t69.5 -56.5t106 -19q31 0 59.5 6.5t53.5 18.5l18 -54q-27 -12 -58 -18.5t-69 -6.5q-55 0 -103.5 15.5t-84.5 44.5t-57 70t-21 92q0 48 19 82t53 52.5t79 18.5q46 0 79.5 -18.5t52.5 -52t19 -81.5q0 -51 -20.5 -92.5t-56.5 -70.5t-84.5 -44.5
t-104.5 -15.5z" />
    <glyph glyph-name="uni04AA" unicode="&#x4aa;" horiz-adv-x="711" 
d="M369 -166v190h66v-190h-66zM404 -9q-99 0 -171.5 43.5t-111.5 125t-39 193.5t39 193t111 124t172 43q74 0 134.5 -23t104.5 -68l-30 -55q-47 43 -96.5 62t-112.5 19q-117 0 -183 -75t-66 -220q0 -144 66 -220t183 -76q63 0 112.5 19t96.5 62l30 -55q-44 -45 -104.5 -68.5
t-134.5 -23.5z" />
    <glyph glyph-name="uni04AB" unicode="&#x4ab;" horiz-adv-x="523" 
d="M283 -134v165h60v-165h-60zM318 -8q-75 0 -130.5 31t-86 88.5t-30.5 135.5q0 79 30.5 136.5t86.5 88.5t131 31q51 0 96.5 -18t74.5 -49l-27 -53q-30 28 -67 42.5t-72 14.5q-84 0 -133 -51t-49 -143q0 -91 49 -141.5t132 -50.5q35 0 72 14.5t65 39.5l28 -52
q-29 -30 -73.5 -47t-96.5 -17z" />
    <glyph glyph-name="uni04AC" unicode="&#x4ac;" horiz-adv-x="637" 
d="M390 -155v155h-107v641h-257v64h585v-64h-258v-582h103v-214h-66z" />
    <glyph glyph-name="uni04AD" unicode="&#x4ad;" horiz-adv-x="495" 
d="M292 -128v128h-79v434h-194v60h457v-60h-193v-377h73v-185h-64z" />
    <glyph glyph-name="uni04AE" unicode="&#x4ae;" horiz-adv-x="616" 
d="M273 0v367l13 -59l-278 397h81l219 -314h1l219 314h79l-277 -397l13 59v-367h-70z" />
    <glyph glyph-name="uni04AF" unicode="&#x4af;" horiz-adv-x="551" 
d="M241 -180v178l-209 496h76l168 -419h1l168 419h74l-208 -496v-178h-70z" />
    <glyph glyph-name="uni04B0" unicode="&#x4b0;" horiz-adv-x="616" 
d="M273 0v367l13 -59l-278 397h81l219 -314h1l219 314h79l-277 -397l13 59v-367h-70zM92 292v54h432v-54h-432z" />
    <glyph glyph-name="uni04B1" unicode="&#x4b1;" horiz-adv-x="551" 
d="M241 -180v133h-137v57h147l-8 -15l-211 499h76l168 -419h1l168 419h74l-211 -499l-7 15h146v-57h-136v-133h-70z" />
    <glyph glyph-name="uni04B2" unicode="&#x4b2;" horiz-adv-x="678" 
d="M618 -151v151h-43v60h108v-211h-65zM32 0l258 374l1 -23l-244 354h81l207 -301h1l208 301h81l-246 -354v24l260 -375h-82l-223 323v0l-221 -323h-81z" />
    <glyph glyph-name="uni04B3" unicode="&#x4b3;" horiz-adv-x="561" 
d="M484 -128v128h-34v56h98v-184h-64zM39 0l202 273l1 -38l-193 259h81l145 -197v0l145 197h81l-192 -256l1 31l202 -269h-82l-155 209v0l-155 -209h-81z" />
    <glyph glyph-name="uni04B4" unicode="&#x4b4;" horiz-adv-x="950" 
d="M850 -155v155h-608v641h-216v64h495v-64h-209v-577h433v641h71v-644h101v-216h-67z" />
    <glyph glyph-name="uni04B5" unicode="&#x4b5;" horiz-adv-x="754" 
d="M641 -133v133h-455v434h-167v60h399v-60h-162v-374h299v434h70v-435h80v-192h-64z" />
    <glyph glyph-name="uni04B6" unicode="&#x4b6;" horiz-adv-x="764" 
d="M645 -151v151h-102v304q-21 -12 -52.5 -20.5t-66.5 -13t-69 -4.5q-132 0 -206.5 72.5t-74.5 215.5v151h71v-145q0 -118 57 -173.5t159 -55.5q45 0 93.5 9t88.5 33v332h70v-645h98v-211h-66z" />
    <glyph glyph-name="uni04B7" unicode="&#x4b7;" horiz-adv-x="627" 
d="M517 -128v128h-79v57h143v-185h-64zM437 0v214q-30 -22 -66 -33t-77 -11q-77 0 -124 24t-68 69t-21 107v124h70v-120q0 -46 13.5 -77.5t46.5 -48t89 -16.5q42 0 74.5 9t62.5 30v223h70v-494h-70z" />
    <glyph glyph-name="uni04B8" unicode="&#x4b8;" horiz-adv-x="727" 
d="M544 0v304q-20 -12 -51 -20.5t-64.5 -13t-65.5 -4.5l18 12v-167h-59v167l16 -12q-81 5 -140.5 36.5t-91.5 94t-32 157.5v151h70v-146q0 -115 53.5 -169t144.5 -59l-20 -10v186h59v-186l-19 10q49 0 96.5 9.5t85.5 32.5v332h70v-705h-70z" />
    <glyph glyph-name="uni04B9" unicode="&#x4b9;" horiz-adv-x="617" 
d="M444 0v215q-28 -22 -62 -33t-67 -12l18 14v-123h-56v123l23 -14q-81 0 -129 25t-69 70t-21 105v124h70v-120q0 -48 15 -79.5t47 -47t85 -15.5l-21 -9v145h56v-145l-19 9q36 0 68 9t63 30v223h71v-494h-72z" />
    <glyph glyph-name="uni04BA" unicode="&#x4ba;" horiz-adv-x="704" 
d="M113 0v705h70v-307q32 17 82.5 27.5t97.5 10.5q133 0 206.5 -72.5t73.5 -215.5v-148h-71v141q0 119 -55.5 174.5t-157.5 55.5q-47 0 -92.5 -10t-83.5 -31v-330h-70z" />
    <glyph glyph-name="uni04BB" unicode="&#x4bb;" horiz-adv-x="636" 
d="M102 0v705h68v-318h2q23 53 70.5 84.5t108.5 31.5q62 0 103 -21.5t61.5 -64.5t20.5 -108v-309h-70v305q0 40 -12 70.5t-39.5 47.5t-73.5 17q-49 0 -87 -22t-60 -58.5t-22 -78.5v-281h-70z" />
    <glyph glyph-name="uni04BC" unicode="&#x4bc;" horiz-adv-x="951" 
d="M589 -8q-111 0 -190.5 41t-123.5 117t-48 181l14 -12h-34q-85 0 -128.5 42.5t-43.5 123.5v58h70v-56q0 -52 23.5 -79.5t82.5 -27.5h28l-12 -12q3 107 43 184.5t111.5 119t169.5 41.5q103 0 174 -44.5t107.5 -125.5t36.5 -189v-35h-581l12 12q6 -132 79.5 -203t210.5 -71
q60 0 116.5 17.5t105.5 59.5l29 -58q-49 -43 -115.5 -63.5t-136.5 -20.5zM552 648q-116 0 -182 -72.5t-70 -208.5l-13 13h528l-16 -28q0 146 -63.5 221t-183.5 75z" />
    <glyph glyph-name="uni04BD" unicode="&#x4bd;" horiz-adv-x="679" 
d="M438 -8q-79 0 -137.5 29.5t-91 86t-33.5 135.5l13 -15h-26q-68 0 -101.5 35.5t-33.5 94.5v39h64v-40q0 -35 17 -54.5t60 -19.5h23l-15 -19q3 70 32.5 124t82.5 84.5t126 30.5q74 0 124 -32t75 -88.5t25 -132.5v-22h-407l11 13q2 -91 54 -140t138 -49q41 0 85 11.5
t82 43.5l27 -52q-37 -33 -90.5 -48t-103.5 -15zM417 445q-49 0 -87 -21.5t-60.5 -61.5t-24.5 -96l-13 17h369l-22 -22q0 87 -42 135.5t-120 48.5z" />
    <glyph glyph-name="uni04BE" unicode="&#x4be;" horiz-adv-x="951" 
d="M589 -8q-111 0 -190.5 41t-123.5 117t-48 181l14 -12h-34q-85 0 -128.5 42.5t-43.5 123.5v58h70v-56q0 -52 23.5 -79.5t82.5 -27.5h28l-12 -12q3 107 43 184.5t111.5 119t169.5 41.5q103 0 174 -44.5t107.5 -125.5t36.5 -189v-35h-581l12 12q6 -132 79.5 -203t210.5 -71
q60 0 116.5 17.5t105.5 59.5l29 -58q-49 -43 -115.5 -63.5t-136.5 -20.5zM552 648q-116 0 -182 -72.5t-70 -208.5l-13 13h528l-16 -28q0 146 -63.5 221t-183.5 75zM599 -194q-46 0 -76 26t-30 69q0 39 27 75t71 59l28 -35q-15 -7 -31 -19.5t-26.5 -30.5t-10.5 -39
q0 -29 16.5 -41t39.5 -12q12 0 25.5 3t26.5 9l17 -47q-13 -7 -32.5 -12t-44.5 -5z" />
    <glyph glyph-name="uni04BF" unicode="&#x4bf;" horiz-adv-x="679" 
d="M438 -8q-79 0 -137.5 29.5t-91 86t-33.5 135.5l13 -15h-26q-68 0 -101.5 35.5t-33.5 94.5v39h64v-40q0 -35 17 -54.5t60 -19.5h23l-15 -19q3 70 32.5 124t82.5 84.5t126 30.5q74 0 124 -32t75 -88.5t25 -132.5v-22h-407l11 13q2 -91 54 -140t138 -49q41 0 85 11.5
t82 43.5l27 -52q-37 -33 -90.5 -48t-103.5 -15zM417 445q-49 0 -87 -21.5t-60.5 -61.5t-24.5 -96l-13 17h369l-22 -22q0 87 -42 135.5t-120 48.5zM477 -194q-46 0 -76 26t-30 69q0 39 27 75t71 59l28 -35q-15 -7 -31 -19.5t-26.5 -30.5t-10.5 -39q0 -29 16.5 -41t39.5 -12
q12 0 25.5 3t26.5 9l17 -47q-13 -7 -32.5 -12t-44.5 -5z" />
    <glyph glyph-name="uni04C0" unicode="&#x4c0;" horiz-adv-x="296" 
d="M113 0v705h70v-705h-70z" />
    <glyph glyph-name="uni04C1" unicode="&#x4c1;" horiz-adv-x="991" 
d="M20 0l118 242q21 43 47.5 74t60 49t72.5 22l-28 -24l-232 342h81l223 -332l-22 17h121v315h70v-315h122l-23 -17l222 332h81l-232 -342l-26 24q39 -4 71.5 -22t59 -48.5t46.5 -73.5l119 -243h-78l-100 208q-29 60 -67 89t-97 29h-98v-326h-70v326h-98q-57 0 -97 -27.5
t-70 -90.5l-98 -208h-78zM494 767q-43 0 -80.5 15t-65.5 45t-42 76l50 15q20 -52 55 -74t82 -22q51 0 84.5 21t61.5 74l48 -14q-28 -74 -79 -105t-114 -31z" />
    <glyph glyph-name="uni04C2" unicode="&#x4c2;" horiz-adv-x="852" 
d="M18 0l106 166q22 36 41.5 59t43 36t57.5 16l-22 -18l-198 235h79l177 -209h89v209h70v-209h89l177 209h79l-198 -235l-22 18q32 -3 54 -14t42.5 -33.5t45.5 -63.5l106 -166h-76l-97 151q-17 28 -33 44.5t-37.5 24t-57.5 7.5h-72v-227h-70v227h-72q-35 0 -57 -7.5
t-37.5 -24t-33.5 -44.5l-97 -151h-76zM424 564q-39 0 -73.5 15t-59.5 45t-38 75l50 16q16 -49 46 -72.5t76 -23.5q44 0 73.5 21.5t53.5 73.5l48 -15q-17 -48 -43.5 -77.5t-60 -43.5t-72.5 -14z" />
    <glyph glyph-name="uni04C3" unicode="&#x4c3;" horiz-adv-x="712" 
d="M433 -188q-36 0 -66.5 5.5t-49.5 15.5l15 59q19 -7 42 -12t52 -5q65 0 104.5 42.5t39.5 129.5v49q0 75 -22.5 126.5t-71.5 77.5t-130 26h-163v-326h-70v705h70v-315h162l-26 -18l222 333h80l-232 -343l-9 26q86 -2 143.5 -34.5t87 -95.5t29.5 -156v-54q0 -76 -26 -129
t-72.5 -80t-108.5 -27z" />
    <glyph glyph-name="uni04C4" unicode="&#x4c4;" horiz-adv-x="592" 
d="M335 -187l-20 59q45 7 77 26.5t49 53t17 80.5v43q0 73 -35 112.5t-119 39.5h-132v-227h-70v494h70v-209h103l177 209h79l-200 -237l-23 27q71 0 120 -22.5t74.5 -68t25.5 -114.5v-46q0 -45 -12 -82t-36 -65t-60.5 -46.5t-84.5 -26.5z" />
    <glyph glyph-name="uni04C5" unicode="&#x4c5;" horiz-adv-x="787" 
d="M624 -151l51 151h-85v641h-333v-165q0 -107 -12.5 -187.5t-37.5 -138.5t-63.5 -98t-91.5 -66l-32 56q42 22 74 55t53.5 84t32 127t10.5 185v212h470v-645h100l-70 -211h-66z" />
    <glyph glyph-name="uni04C6" unicode="&#x4c6;" horiz-adv-x="648" 
d="M476 -128l46 128h-63v54h146l-65 -182h-64zM66 -10l-28 54q39 17 64.5 44t39 66t19 93.5t5.5 129.5v117h362v-494h-70v434h-226v-59q0 -81 -7 -143.5t-25.5 -109.5t-50.5 -79.5t-83 -52.5z" />
    <glyph glyph-name="uni04C7" unicode="&#x4c7;" horiz-adv-x="803" 
d="M485 -193l-4 63l42 3q48 4 72.5 32t24.5 82v339h-437v-326h-70v705h70v-315h437v315h70v-716q0 -41 -9.5 -73.5t-29.5 -54.5t-50.5 -35t-71.5 -16z" />
    <glyph glyph-name="uni04C8" unicode="&#x4c8;" horiz-adv-x="647" 
d="M333 -193l-4 60l48 6q47 5 72.5 30t25.5 79v244h-303v-226h-70v494h70v-208h303v208h70v-508q0 -41 -10.5 -71.5t-30.5 -52t-50 -34t-71 -16.5z" />
    <glyph glyph-name="uni04C9" unicode="&#x4c9;" horiz-adv-x="816" 
d="M654 -151l51 151h-85v60h169l-70 -211h-65zM113 0v705h70v-315h437v315h70v-705h-70v326h-437v-326h-70z" />
    <glyph glyph-name="uni04CA" unicode="&#x4ca;" horiz-adv-x="665" 
d="M493 -128l47 128h-63v54h146l-65 -182h-65zM102 0v494h70v-208h303v208h70v-494h-70v226h-303v-226h-70z" />
    <glyph glyph-name="uni04CB" unicode="&#x4cb;" horiz-adv-x="730" 
d="M504 -151h-65v211h126v-60h-61v-151zM543 0v304q-21 -12 -52.5 -20.5t-66.5 -13t-69 -4.5q-132 0 -206.5 72.5t-74.5 215.5v151h71v-145q0 -118 57 -173.5t159 -55.5q45 0 93.5 9t88.5 33v332h70v-705h-70z" />
    <glyph glyph-name="uni04CC" unicode="&#x4cc;" horiz-adv-x="623" 
d="M420 -128h-65v176h124v-48h-59v-128zM437 0v214q-30 -22 -66 -33t-77 -11q-77 0 -124 24t-68 69t-21 107v124h70v-120q0 -46 13.5 -77.5t46.5 -48t89 -16.5q42 0 74.5 9t62.5 30v223h70v-494h-70z" />
    <glyph glyph-name="uni04CD" unicode="&#x4cd;" horiz-adv-x="928" 
d="M775 -151l51 151h-94v605h-1l-246 -494h-54l-247 494h-2v-605h-67v705h86l257 -517v0l256 517h85v-645h112l-70 -211h-66z" />
    <glyph glyph-name="uni04CE" unicode="&#x4ce;" horiz-adv-x="753" 
d="M586 -128l46 128h-63v54h146l-65 -182h-64zM102 0v494h64l202 -339l201 339h64v-494h-64v385v0l-182 -306h-38l-183 306v0v-385h-64z" />
    <glyph glyph-name="uni04CF" unicode="&#x4cf;" horiz-adv-x="273" 
d="M102 0v705h70v-705h-70z" />
    <glyph glyph-name="uni04D0" unicode="&#x4d0;" horiz-adv-x="764" 
d="M43 0l307 705h65l306 -705h-74l-87 202l39 -21h-433l38 21l-87 -202h-74zM380 619l-166 -390l-25 15h387l-27 -15l-165 390h-4zM381 767q-43 0 -80.5 15t-65.5 45t-42 76l50 15q20 -52 55 -74t82 -22q51 0 84.5 21t61.5 74l48 -14q-28 -74 -79 -105t-114 -31z" />
    <glyph glyph-name="uni04D1" unicode="&#x4d1;" horiz-adv-x="618" 
d="M265 -8q-52 0 -94 19t-66 52t-24 74q0 58 33.5 90.5t100.5 45.5t168 13h80v-54h-76q-62 0 -106.5 -4t-73 -14t-42 -27.5t-13.5 -45.5q0 -44 35.5 -67t87.5 -23q47 0 86.5 21.5t64 56.5t24.5 77v116q0 61 -36.5 90.5t-106.5 29.5q-46 0 -89.5 -12t-90.5 -41l-25 55
q30 19 65 32t72 20t73 7q62 0 108.5 -19.5t72.5 -60.5t26 -105v-318h-63v110h-3q-14 -30 -40 -57.5t-63 -44t-85 -16.5zM311 557q-39 0 -73.5 15t-59.5 45t-38 75l50 16q16 -49 46 -72.5t76 -23.5q44 0 73.5 21.5t53.5 73.5l48 -15q-17 -48 -43.5 -77.5t-60 -43.5t-72.5 -14
z" />
    <glyph glyph-name="uni04D2" unicode="&#x4d2;" horiz-adv-x="764" 
d="M43 0l307 705h65l306 -705h-74l-87 202l39 -21h-433l38 21l-87 -202h-74zM380 619l-166 -390l-25 15h387l-27 -15l-165 390h-4zM437 809v80h82v-80h-82zM247 809v80h82v-80h-82z" />
    <glyph glyph-name="uni04D3" unicode="&#x4d3;" horiz-adv-x="618" 
d="M265 -8q-52 0 -94 19t-66 52t-24 74q0 58 33.5 90.5t100.5 45.5t168 13h80v-54h-76q-62 0 -106.5 -4t-73 -14t-42 -27.5t-13.5 -45.5q0 -44 35.5 -67t87.5 -23q47 0 86.5 21.5t64 56.5t24.5 77v116q0 61 -36.5 90.5t-106.5 29.5q-46 0 -89.5 -12t-90.5 -41l-25 55
q30 19 65 32t72 20t73 7q62 0 108.5 -19.5t72.5 -60.5t26 -105v-318h-63v110h-3q-14 -30 -40 -57.5t-63 -44t-85 -16.5zM367 621v82h82v-82h-82zM177 621v82h82v-82h-82z" />
    <glyph glyph-name="uni04D4" unicode="&#x4d4;" horiz-adv-x="1034" 
d="M3 0l415 705h534v-64h-464l24 37l64 -310l-41 21h397v-64h-386l35 21l67 -316l-38 34h342v-64h-367l-43 205l27 -24h-401l34 24l-121 -205h-78zM447 634l-234 -407l-23 17h359l-11 -18l-86 408h-5z" />
    <glyph glyph-name="uni04D5" unicode="&#x4d5;" horiz-adv-x="982" 
d="M261 -8q-51 0 -92 19t-64.5 52t-23.5 74q0 58 34 90.5t101.5 45.5t170.5 13h86v-54h-82q-86 0 -138.5 -7.5t-76.5 -27t-24 -56.5q0 -43 34.5 -66.5t84.5 -23.5q51 0 91.5 21.5t64 57t23.5 77.5v115q0 61 -36.5 90.5t-103.5 29.5q-48 0 -92.5 -12t-90.5 -41l-25 55
q30 19 65 32t72.5 20t73.5 7q73 0 120.5 -30.5t65.5 -78.5v0q28 54 77.5 81.5t115.5 27.5q72 0 121 -31.5t74.5 -88t25.5 -133.5v-21h-414v54h373l-22 -21q0 53 -18 94.5t-53 65t-87 23.5q-80 0 -127.5 -51t-47.5 -138v-10q0 -88 49.5 -141t142.5 -53q50 0 88.5 12.5
t78.5 41.5l27 -51q-35 -32 -87 -47.5t-107 -15.5q-61 0 -106 16.5t-75 48t-44 74.5h-1q-16 -38 -46.5 -70t-74 -50.5t-101.5 -18.5z" />
    <glyph glyph-name="uni04D6" unicode="&#x4d6;" horiz-adv-x="646" 
d="M113 0v705h451v-64h-381v-252h361v-64h-361v-261h381v-64h-451zM344 767q-43 0 -80.5 15t-65.5 45t-42 76l50 15q20 -52 55 -74t82 -22q51 0 84.5 21t61.5 74l48 -14q-28 -74 -79 -105t-114 -31z" />
    <glyph glyph-name="uni04D7" unicode="&#x4d7;" horiz-adv-x="606" 
d="M332 -8q-79 0 -138 30t-91 87.5t-32 138.5q0 74 28.5 131.5t83 90.5t129.5 33t124.5 -32t74.5 -88.5t25 -132.5v-22h-416v55h375l-22 -22q0 87 -42 135.5t-119 48.5q-50 0 -89 -23t-61 -64.5t-22 -100.5v-9q0 -63 23.5 -106.5t67 -66.5t101.5 -23q41 0 85 11.5t82 43.5
l28 -52q-38 -33 -91 -48t-104 -15zM311 557q-39 0 -73.5 15t-59.5 45t-38 75l50 16q16 -49 46 -72.5t76 -23.5q44 0 73.5 21.5t53.5 73.5l48 -15q-17 -48 -43.5 -77.5t-60 -43.5t-72.5 -14z" />
    <glyph glyph-name="uni04D8" unicode="&#x4d8;" horiz-adv-x="807" 
d="M405 -8q-96 0 -168.5 43t-113.5 123.5t-41 190.5v37h608v-61h-561l26 28q0 -148 66.5 -222t182.5 -74q114 0 181.5 76t67.5 220q0 143 -66.5 219.5t-197.5 76.5q-46 0 -91 -9.5t-86.5 -28t-73.5 -47.5l-26 59q30 29 76 49t99 30.5t103 10.5q104 0 179 -40.5t115.5 -120.5
t40.5 -199q0 -84 -23.5 -151t-66 -113.5t-101.5 -71.5t-129 -25z" />
    <glyph glyph-name="uni04D9" unicode="&#x4d9;" horiz-adv-x="606" 
d="M295 -8q-74 0 -124.5 31.5t-75.5 88t-25 133.5v21h415v-54h-374l22 22q0 -88 42.5 -136t119.5 -48q49 0 88 22t61 64t22 101v9q0 63 -23.5 107t-66.5 66.5t-102 22.5q-41 0 -84.5 -11t-83.5 -43l-27 51q38 34 91.5 49t103.5 15q80 0 138.5 -30t90.5 -87t32 -139
q0 -74 -28.5 -131.5t-82 -90.5t-129.5 -33z" />
    <glyph glyph-name="uni04DA" unicode="&#x4da;" horiz-adv-x="807" 
d="M405 -8q-96 0 -168.5 43t-113.5 123.5t-41 190.5v37h608v-61h-561l26 28q0 -148 66.5 -222t182.5 -74q114 0 181.5 76t67.5 220q0 143 -66.5 219.5t-197.5 76.5q-46 0 -91 -9.5t-86.5 -28t-73.5 -47.5l-26 59q30 29 76 49t99 30.5t103 10.5q104 0 179 -40.5t115.5 -120.5
t40.5 -199q0 -84 -23.5 -151t-66 -113.5t-101.5 -71.5t-129 -25zM455 809v80h82v-80h-82zM265 809v80h82v-80h-82z" />
    <glyph glyph-name="uni04DB" unicode="&#x4db;" horiz-adv-x="606" 
d="M295 -8q-74 0 -124.5 31.5t-75.5 88t-25 133.5v21h415v-54h-374l22 22q0 -88 42.5 -136t119.5 -48q49 0 88 22t61 64t22 101v9q0 63 -23.5 107t-66.5 66.5t-102 22.5q-41 0 -84.5 -11t-83.5 -43l-27 51q38 34 91.5 49t103.5 15q80 0 138.5 -30t90.5 -87t32 -139
q0 -74 -28.5 -131.5t-82 -90.5t-129.5 -33zM336 621v82h82v-82h-82zM146 621v82h82v-82h-82z" />
    <glyph glyph-name="uni04DC" unicode="&#x4dc;" horiz-adv-x="991" 
d="M20 0l118 242q21 43 47.5 74t60 49t72.5 22l-28 -24l-232 342h81l223 -332l-22 17h121v315h70v-315h122l-23 -17l222 332h81l-232 -342l-26 24q39 -4 71.5 -22t59 -48.5t46.5 -73.5l119 -243h-78l-100 208q-29 60 -67 89t-97 29h-98v-326h-70v326h-98q-57 0 -97 -27.5
t-70 -90.5l-98 -208h-78zM550 809v80h82v-80h-82zM360 809v80h82v-80h-82z" />
    <glyph glyph-name="uni04DD" unicode="&#x4dd;" horiz-adv-x="852" 
d="M18 0l106 166q22 36 41.5 59t43 36t57.5 16l-22 -18l-198 235h79l177 -209h89v209h70v-209h89l177 209h79l-198 -235l-22 18q32 -3 54 -14t42.5 -33.5t45.5 -63.5l106 -166h-76l-97 151q-17 28 -33 44.5t-37.5 24t-57.5 7.5h-72v-227h-70v227h-72q-35 0 -57 -7.5
t-37.5 -24t-33.5 -44.5l-97 -151h-76zM480 628v82h82v-82h-82zM290 628v82h82v-82h-82z" />
    <glyph glyph-name="uni04DE" unicode="&#x4de;" horiz-adv-x="680" 
d="M324 -8q-61 0 -114.5 10t-96 29.5t-70.5 47.5l28 58q48 -44 110.5 -62.5t139.5 -18.5q106 0 154.5 34.5t48.5 104.5q0 68 -42.5 99.5t-132.5 31.5h-182v63h166q88 0 131.5 32t43.5 94q0 64 -46.5 99t-140.5 35q-63 0 -124.5 -19t-109.5 -62l-28 59q33 29 76.5 48
t92.5 28.5t98 9.5q85 0 141 -23.5t84 -67t28 -102.5q0 -56 -29 -97.5t-86 -60.5v-1q62 -15 96.5 -58.5t34.5 -109.5q0 -63 -29 -108t-88.5 -69t-153.5 -24zM378 809v80h82v-80h-82zM188 809v80h82v-80h-82z" />
    <glyph glyph-name="uni04DF" unicode="&#x4df;" horiz-adv-x="556" 
d="M272 -8q-67 0 -128 17t-95 47l25 51q37 -30 89.5 -42.5t107.5 -12.5q80 0 115 21.5t35 65.5q0 43 -30 63.5t-85 20.5h-132v57h123q49 0 78 20t29 59q0 40 -31 62t-97 22q-53 0 -102.5 -13t-91.5 -43l-25 55q44 31 101.5 46t121.5 15q97 0 144.5 -37t47.5 -102
q0 -38 -23.5 -67t-66.5 -42v-2q36 -7 60 -23.5t36 -40t12 -53.5q0 -65 -54.5 -104.5t-163.5 -39.5zM327 629v82h82v-82h-82zM137 629v82h82v-82h-82z" />
    <glyph glyph-name="uni04E0" unicode="&#x4e0;" horiz-adv-x="680" 
d="M323 -8q-61 0 -114 9t-95.5 27.5t-70.5 46.5l28 59q49 -44 111 -61t139 -17q106 0 154.5 35t48.5 103q0 51 -22.5 80t-64.5 41t-100 12h-118v51l276 290l4 -27h-441v64h510v-50l-274 -290l-12 22h72q76 0 129.5 -21.5t82.5 -63.5t29 -106q0 -96 -66.5 -150t-205.5 -54z
" />
    <glyph glyph-name="uni04E1" unicode="&#x4e1;" horiz-adv-x="557" 
d="M258 -191q-70 0 -127.5 16t-95.5 46l27 56q37 -28 83.5 -42.5t107.5 -14.5q93 0 138.5 37t45.5 113q0 67 -45.5 99.5t-129.5 32.5h-109l-3 45l255 260l2 -23h-354v60h421v-48l-245 -249l-10 14h57q111 0 171.5 -49t60.5 -140q0 -66 -30 -114t-85.5 -73.5t-134.5 -25.5z
" />
    <glyph glyph-name="uni04E2" unicode="&#x4e2;" horiz-adv-x="812" 
d="M113 0v705h67v-600h1l451 600h67v-705h-68v600v0l-452 -600h-66zM244 816v57h326v-57h-326z" />
    <glyph glyph-name="uni04E3" unicode="&#x4e3;" horiz-adv-x="643" 
d="M102 0v494h67v-401v0l304 401h68v-494h-67v402v0l-304 -402h-68zM165 643v56h314v-56h-314z" />
    <glyph glyph-name="uni04E4" unicode="&#x4e4;" horiz-adv-x="812" 
d="M113 0v705h67v-600h1l451 600h67v-705h-68v600v0l-452 -600h-66zM461 809v80h82v-80h-82zM271 809v80h82v-80h-82z" />
    <glyph glyph-name="uni04E5" unicode="&#x4e5;" horiz-adv-x="643" 
d="M102 0v494h67v-401v0l304 401h68v-494h-67v402v0l-304 -402h-68zM376 628v82h82v-82h-82zM186 628v82h82v-82h-82z" />
    <glyph glyph-name="uni04E6" unicode="&#x4e6;" horiz-adv-x="807" 
d="M403 -8q-74 0 -133.5 24.5t-101.5 71.5t-64 113.5t-22 150.5q0 85 22 152t63.5 113.5t101 71t134.5 24.5q76 0 135.5 -24.5t101.5 -71t63.5 -113t21.5 -151.5q0 -84 -22 -151t-63.5 -114t-101 -71.5t-135.5 -24.5zM403 57q79 0 134.5 33.5t85 99.5t29.5 163t-29 162.5
t-85 99t-135 33.5q-78 0 -133.5 -33.5t-85 -99t-29.5 -162.5q0 -96 29.5 -162t85 -100t133.5 -34zM458 809v80h82v-80h-82zM268 809v80h82v-80h-82z" />
    <glyph glyph-name="uni04E7" unicode="&#x4e7;" horiz-adv-x="621" 
d="M311 -8q-74 0 -128 31.5t-83 89.5t-29 135t29.5 134t83 89t127.5 32t127.5 -32t83 -89t29.5 -134t-29.5 -135t-83 -89.5t-127.5 -31.5zM310 54q79 0 125 53t46 141t-45.5 140t-124.5 52t-124.5 -52t-45.5 -140t45.5 -141t123.5 -53zM365 621v82h82v-82h-82zM175 621v82
h82v-82h-82z" />
    <glyph glyph-name="uni04E8" unicode="&#x4e8;" horiz-adv-x="807" 
d="M133 333v58h564v-58h-564zM403 -8q-74 0 -133.5 24.5t-101.5 71.5t-64 113.5t-22 150.5q0 85 22 152t63.5 113.5t101 71t134.5 24.5q76 0 135.5 -24.5t101.5 -71t63.5 -113t21.5 -151.5q0 -84 -22 -151t-63.5 -114t-101 -71.5t-135.5 -24.5zM403 57q79 0 134.5 33.5
t85 99.5t29.5 163t-29 162.5t-85 99t-135 33.5q-78 0 -133.5 -33.5t-85 -99t-29.5 -162.5q0 -96 29.5 -162t85 -100t133.5 -34z" />
    <glyph glyph-name="uni04E9" unicode="&#x4e9;" horiz-adv-x="621" 
d="M311 -8q-74 0 -128 31.5t-83 89.5t-29 135t29 134t83 89t128 32t127.5 -32t83 -89t29.5 -134t-29.5 -135t-83 -89.5t-127.5 -31.5zM310 51q80 0 126 54t46 143t-45.5 142t-125.5 53q-81 0 -126.5 -53t-45.5 -142t46 -143t125 -54zM107 220v54h407v-54h-407z" />
    <glyph glyph-name="uni04EA" unicode="&#x4ea;" horiz-adv-x="807" 
d="M133 333v58h564v-58h-564zM403 -8q-74 0 -133.5 24.5t-101.5 71.5t-64 113.5t-22 150.5q0 85 22 152t63.5 113.5t101 71t134.5 24.5q76 0 135.5 -24.5t101.5 -71t63.5 -113t21.5 -151.5q0 -84 -22 -151t-63.5 -114t-101 -71.5t-135.5 -24.5zM403 57q79 0 134.5 33.5
t85 99.5t29.5 163t-29 162.5t-85 99t-135 33.5q-78 0 -133.5 -33.5t-85 -99t-29.5 -162.5q0 -96 29.5 -162t85 -100t133.5 -34zM458 809v80h82v-80h-82zM268 809v80h82v-80h-82z" />
    <glyph glyph-name="uni04EB" unicode="&#x4eb;" horiz-adv-x="621" 
d="M311 -8q-74 0 -128 31.5t-83 89.5t-29 135t29 134t83 89t128 32t127.5 -32t83 -89t29.5 -134t-29.5 -135t-83 -89.5t-127.5 -31.5zM310 51q80 0 126 54t46 143t-45.5 142t-125.5 53q-81 0 -126.5 -53t-45.5 -142t46 -143t125 -54zM107 220v54h407v-54h-407zM362 621v82
h82v-82h-82zM172 621v82h82v-82h-82z" />
    <glyph glyph-name="uni04EC" unicode="&#x4ec;" horiz-adv-x="713" 
d="M307 -8q-72 0 -132 22.5t-108 67.5l30 55q48 -42 98.5 -61t112.5 -19q117 0 183 74.5t66 216.5l25 -22h-405v63h405l-25 -25q-2 141 -66 212.5t-181 71.5q-63 0 -114 -20t-99 -60l-30 54q48 44 108.5 67.5t133.5 23.5q101 0 173 -42.5t110.5 -123t38.5 -194.5
q0 -113 -39.5 -194t-111.5 -124t-173 -43zM370 809v80h82v-80h-82zM180 809v80h82v-80h-82z" />
    <glyph glyph-name="uni04ED" unicode="&#x4ed;" horiz-adv-x="554" 
d="M227 -8q-40 0 -76.5 7.5t-65.5 22t-47 34.5l26 50q31 -29 73 -41.5t88 -12.5q63 0 105 22t63.5 64.5t22.5 101.5l9 -15h-294v56h294l-9 -15q-1 50 -21.5 90t-62 63.5t-107.5 23.5q-42 0 -84.5 -13t-76.5 -43l-27 51q28 24 77.5 44.5t112.5 20.5q82 0 139 -30.5t87.5 -87
t30.5 -134.5q0 -79 -30.5 -137.5t-87.5 -90t-139 -31.5zM290 628v82h82v-82h-82zM100 628v82h82v-82h-82z" />
    <glyph glyph-name="uni04EE" unicode="&#x4ee;" horiz-adv-x="640" 
d="M203 0l117 227l-1 -30l-317 508h78l266 -427h1l219 427h75l-362 -705h-76zM158 816v57h326v-57h-326z" />
    <glyph glyph-name="uni04EF" unicode="&#x4ef;" horiz-adv-x="558" 
d="M167 -180l88 205v-53l-219 522h76l168 -420v0l169 420h74l-282 -674h-74zM121 636v56h314v-56h-314z" />
    <glyph glyph-name="uni04F0" unicode="&#x4f0;" horiz-adv-x="640" 
d="M203 0l117 227l-1 -30l-317 508h78l266 -427h1l219 427h75l-362 -705h-76zM375 809v80h82v-80h-82zM185 809v80h82v-80h-82z" />
    <glyph glyph-name="uni04F1" unicode="&#x4f1;" horiz-adv-x="558" 
d="M167 -180l88 205v-53l-219 522h76l168 -420v0l169 420h74l-282 -674h-74zM332 621v82h82v-82h-82zM142 621v82h82v-82h-82z" />
    <glyph glyph-name="uni04F2" unicode="&#x4f2;" horiz-adv-x="640" 
d="M203 0l117 227l-1 -30l-317 508h78l266 -427h1l219 427h75l-362 -705h-76zM235 765l85 171h80l-118 -171h-47zM360 765l90 171h79l-122 -171h-47z" />
    <glyph glyph-name="uni04F3" unicode="&#x4f3;" horiz-adv-x="558" 
d="M167 -180l88 205v-53l-219 522h76l168 -420v0l169 420h74l-282 -674h-74zM319 560l54 193h70l-82 -193h-42zM194 560l55 193h70l-82 -193h-43z" />
    <glyph glyph-name="uni04F4" unicode="&#x4f4;" horiz-adv-x="726" 
d="M543 0v304q-21 -12 -52.5 -20.5t-66.5 -13t-69 -4.5q-132 0 -206.5 72.5t-74.5 215.5v151h71v-145q0 -118 57 -173.5t159 -55.5q45 0 93.5 9t88.5 33v332h70v-705h-70zM400 809v80h82v-80h-82zM210 809v80h82v-80h-82z" />
    <glyph glyph-name="uni04F5" unicode="&#x4f5;" horiz-adv-x="609" 
d="M437 0v214q-30 -22 -66 -33t-77 -11q-77 0 -124 24t-68 69t-21 107v124h70v-120q0 -46 13.5 -77.5t46.5 -48t89 -16.5q41 0 74 9t63 30v223h70v-494h-70zM349 628v82h82v-82h-82zM159 628v82h82v-82h-82z" />
    <glyph glyph-name="uni04F6" unicode="&#x4f6;" horiz-adv-x="594" 
d="M218 -151v151h-102v60h168v-211h-66zM113 0v705h448v-64h-378v-641h-70z" />
    <glyph glyph-name="uni04F7" unicode="&#x4f7;" horiz-adv-x="481" 
d="M185 -128v128h-80v57h143v-185h-63zM102 0v494h353v-60h-283v-434h-70z" />
    <glyph glyph-name="uni04F8" unicode="&#x4f8;" horiz-adv-x="912" 
d="M113 0v705h70v-314h211q73 0 125.5 -21.5t80 -65t27.5 -107.5q0 -65 -27.5 -108.5t-80 -66t-125.5 -22.5h-281zM183 63h204q86 0 127 32t41 100q0 70 -42 101.5t-126 31.5h-204v-265zM729 0v705h70v-705h-70zM510 809v80h82v-80h-82zM320 809v80h82v-80h-82z" />
    <glyph glyph-name="uni04F9" unicode="&#x4f9;" horiz-adv-x="815" 
d="M102 0v494h70v-173h172q98 0 148.5 -42.5t50.5 -117.5q0 -49 -23.5 -85t-67.5 -56t-108 -20h-242zM172 57h166q64 0 99 24.5t35 79.5t-35 79t-99 24h-166v-207zM643 0v494h70v-494h-70zM466 628v82h82v-82h-82zM276 628v82h82v-82h-82z" />
    <glyph glyph-name="uni04FA" unicode="&#x4fa;" horiz-adv-x="603" 
d="M91 -182l-6 57l41 3q58 5 80 33t22 89h-106l1 321h-106v61h106v323h447v-64h-377v-259h210v-62l-210 1v-261h101v-53q0 -90 -40.5 -136t-120.5 -50z" />
    <glyph glyph-name="uni04FB" unicode="&#x4fb;" horiz-adv-x="498" 
d="M102 -184l-5 58l44 4q40 4 62 31.5t22 90.5h-105v214h-103v57h103v223h352v-60h-282v-163h156v-57h-156v-168h99v-39q0 -93 -40 -138t-103 -50z" />
    <glyph glyph-name="uni04FC" unicode="&#x4fc;" horiz-adv-x="671" 
d="M426 -184l-13 62q69 8 96.5 32.5t27.5 73.5q0 16 -7.5 37.5t-22 47t-35.5 55.5l-138 199v0l-221 -323h-81l258 374l1 -23l-244 354h81l207 -301h1l208 301h81l-246 -354v24l159 -229q25 -34 40.5 -63.5t23 -55t7.5 -47.5q0 -74 -46.5 -114t-136.5 -50z" />
    <glyph glyph-name="uni04FD" unicode="&#x4fd;" horiz-adv-x="551" 
d="M335 -187l-13 57q58 8 86 26t28 59q0 21 -9 42t-25.5 44.5t-40.5 51.5l-86 116v0l-155 -209h-81l202 273l1 -38l-193 259h81l145 -197v0l145 197h81l-192 -256l1 31l109 -147q31 -37 49.5 -65t27.5 -53t9 -52q0 -39 -19.5 -68t-57 -47t-93.5 -24z" />
    <glyph glyph-name="uni04FE" unicode="&#x4fe;" horiz-adv-x="671" 
d="M32 0l258 374l1 -23l-244 354h81l207 -301h1l208 301h81l-246 -354v24l260 -375h-82l-223 323v0l-221 -323h-81zM120 336v54h432v-54h-432z" />
    <glyph glyph-name="uni04FF" unicode="&#x4ff;" horiz-adv-x="551" 
d="M39 0l203 273v-38l-193 259h81l145 -197v0l145 197h81l-192 -256l1 31l202 -269h-82l-155 209v0l-155 -209h-81zM59 228v54h432v-54h-432z" />
    <glyph glyph-name="uni0510" unicode="&#x510;" horiz-adv-x="680" 
d="M356 -8q-93 0 -153 24t-89 69t-29 108q0 66 35 109.5t95 58.5v1q-56 19 -85 60.5t-29 97.5q0 59 28 102.5t84.5 67t141.5 23.5q49 0 98 -9.5t92.5 -28.5t75.5 -48l-29 -59q-47 43 -108 62t-124 19q-95 0 -141.5 -35.5t-46.5 -98.5q0 -62 44 -94t133 -32h164v-63h-181
q-90 0 -133.5 -31.5t-43.5 -99.5q0 -70 49.5 -104.5t155.5 -34.5q78 0 139 18.5t110 62.5l28 -58q-27 -28 -70 -47.5t-96.5 -29.5t-114.5 -10z" />
    <glyph glyph-name="uni0511" unicode="&#x511;" horiz-adv-x="556" 
d="M283 -8q-108 0 -162.5 39.5t-54.5 104.5q0 30 12 53.5t36 40t60 23.5v2q-43 13 -66.5 42t-23.5 67q0 63 49.5 101t143.5 38q63 0 121 -15t101 -46l-25 -55q-42 30 -91.5 43t-101.5 13q-64 0 -97 -22.5t-33 -61.5t30 -59t78 -20h123v-57h-132q-56 0 -85.5 -20.5
t-29.5 -63.5q0 -44 35 -65.5t115 -21.5q55 0 107.5 12.5t88.5 42.5l25 -51q-33 -30 -94 -47t-129 -17z" />
    <glyph glyph-name="uni0512" unicode="&#x512;" horiz-adv-x="773" 
d="M453 -193l-5 63l43 3q48 4 73.5 32t25.5 82v654h-333v-165q0 -108 -12.5 -188t-37.5 -138t-63.5 -98t-91.5 -66l-32 56q39 21 70.5 51t54 79.5t34 127t11.5 193.5v212h470v-716q0 -42 -10 -74t-30.5 -54.5t-51 -35t-72.5 -15.5z" />
    <glyph glyph-name="uni0513" unicode="&#x513;" horiz-adv-x="630" 
d="M316 -193l-4 61l48 6q47 5 72.5 29.5t25.5 79.5v451h-226v-59q0 -81 -7 -143.5t-25.5 -109.5t-50.5 -79.5t-83 -52.5l-28 54q39 17 64.5 44t39 66t19 93.5t5.5 129.5v117h362v-509q0 -40 -10.5 -70.5t-30.5 -52t-50 -34t-71 -16.5z" />
    <glyph glyph-name="uni051A" unicode="&#x51a;" horiz-adv-x="807" 
d="M606 -195l-77 125q-18 30 -47.5 46t-70.5 16l54 24q34 0 58 -6t42.5 -22t36.5 -46l65 -103zM403 -8q-74 0 -133.5 24.5t-101.5 71.5t-64 113.5t-22 150.5q0 85 22 152t63.5 113.5t101 71t134.5 24.5q76 0 135.5 -24.5t101.5 -71t63.5 -113t21.5 -151.5q0 -84 -22 -151
t-63.5 -114t-101 -71.5t-135.5 -24.5zM403 57q79 0 134.5 33.5t85 99.5t29.5 163t-29 162.5t-85 99t-135 33.5q-78 0 -133.5 -33.5t-85 -99t-29.5 -162.5q0 -96 29.5 -162t85 -100t133.5 -34z" />
    <glyph glyph-name="uni051B" unicode="&#x51b;" horiz-adv-x="652" 
d="M481 -180v286h-3q-21 -54 -67.5 -84t-111.5 -30q-68 0 -119.5 32t-80 89.5t-28.5 133.5q0 77 28.5 134.5t80 89.5t120.5 32q65 0 112.5 -31t70.5 -88h3v110h65v-674h-70zM312 52q79 0 124 53.5t45 142.5q0 88 -45 141t-125 53q-79 0 -124.5 -53t-45.5 -141
q0 -89 46 -142.5t125 -53.5z" />
    <glyph glyph-name="uni051C" unicode="&#x51c;" horiz-adv-x="1101" 
d="M272 0l-220 705h73l186 -614h-2l211 614h61l211 -615h-1l187 615h71l-220 -705h-71l-207 604v0l-210 -604h-69z" />
    <glyph glyph-name="uni051D" unicode="&#x51d;" horiz-adv-x="872" 
d="M209 0l-167 494h71l137 -417h-1l154 417h67l152 -417h-1l139 417h71l-170 -494h-71l-155 421h2l-156 -421h-72z" />
    <glyph glyph-name="uni0524" unicode="&#x524;" horiz-adv-x="838" 
d="M719 -151v151h-102v641h-434v-641h-70v705h574v-645h98v-211h-66z" />
    <glyph glyph-name="uni0525" unicode="&#x525;" horiz-adv-x="658" 
d="M550 -128v128h-80v434h-298v-434h-70v494h438v-437h74v-185h-64z" />
    <glyph glyph-name="uni0526" unicode="&#x526;" horiz-adv-x="742" 
d="M674 -151v151h-102v141q0 119 -55.5 174.5t-158.5 55.5q-45 0 -91 -10t-84 -31v-330h-70v705h70v-307q32 17 82.5 27.5t97.5 10.5q133 0 206.5 -72.5t73.5 -215.5v-88h97v-211h-66z" />
    <glyph glyph-name="uni0527" unicode="&#x527;" horiz-adv-x="651" 
d="M566 -128v128h-80v57h143v-185h-63zM101 0v705h69v-318h2q22 53 70 84.5t109 31.5q62 0 103 -21.5t61.5 -64.5t20.5 -108v-309h-70v305q0 40 -12 70.5t-39.5 47.5t-73.5 17q-49 0 -87.5 -22t-60 -58.5t-21.5 -78.5v-281h-71z" />
    <glyph glyph-name="uni0528" unicode="&#x528;" horiz-adv-x="803" 
d="M-21 -193l-5 62l43 3q49 4 72.5 33t23.5 82v718h70v-315h437v315h70v-705h-70v326h-437v-338q0 -41 -9.5 -73t-29.5 -54.5t-50 -35t-71 -15.5z" />
    <glyph glyph-name="uni0529" unicode="&#x529;" horiz-adv-x="647" 
d="M-40 -193l-4 61l48 6q47 5 72.5 29.5t25.5 78.5v512h70v-208h303v208h70v-494h-70v226h-303v-240q0 -41 -10.5 -71.5t-30.5 -52t-50 -34t-71 -16.5z" />
    <glyph glyph-name="uni052E" unicode="&#x52e;" horiz-adv-x="811" 
d="M692 -151v151h-102v641h-333v-165q0 -107 -12.5 -187.5t-37.5 -138.5t-63.5 -98t-91.5 -66l-32 56q42 22 74 55t53.5 84t32 127t10.5 185v212h470v-645h98v-211h-66z" />
    <glyph glyph-name="uni052F" unicode="&#x52f;" horiz-adv-x="647" 
d="M539 -128v128h-80v57h143v-185h-63zM66 -10l-28 54q39 17 64.5 44t39 66t19 93.5t5.5 129.5v117h362v-494h-70v434h-226v-59q0 -81 -7 -143.5t-25.5 -109.5t-50.5 -79.5t-83 -52.5z" />
    <glyph glyph-name="uni1E08" unicode="&#x1e08;" horiz-adv-x="711" 
d="M404 -9q-99 0 -171.5 43.5t-111.5 125t-39 193.5t39 193t111 124t172 43q74 0 134.5 -23t104.5 -68l-30 -55q-47 43 -96.5 62t-112.5 19q-117 0 -183 -75t-66 -220q0 -144 66 -220t183 -76q63 0 112.5 19t96.5 62l30 -55q-44 -45 -104.5 -68.5t-134.5 -23.5zM405 -193
q-24 0 -48.5 5t-39.5 14l12 43q19 -9 35.5 -13t41.5 -4q27 0 43.5 9t16.5 28q0 15 -10.5 22.5t-29.5 7.5q-9 0 -21.5 -2t-28.5 -7l-17 15l15 95h48l-13 -77l-22 8q11 3 25 5t26 2q23 0 41.5 -7.5t30.5 -23t12 -38.5q0 -25 -15.5 -43.5t-41.5 -28.5t-60 -10zM372 765l118 171
h89l-146 -171h-61z" />
    </font>
</defs>
</svg>
